<?xml version="1.0" encoding="utf-8"?>
<svg viewBox="22.197 -9.301 2181.418 923.622" xmlns="http://www.w3.org/2000/svg">
  <defs>
    <view id="view-1" viewBox="582.691 989.184 5.5 9.371">
      <title>View 1</title>
    </view>
  </defs>
  <rect x="76.095" y="45.154" width="2073.652" height="815.726" style="fill: none; stroke-linejoin: round; stroke-width: 31px; stroke-dashoffset: 28px; stroke: rgb(212, 34, 34);" rx="124.368" ry="124.368"/>
  <path d="M 285.326 304.123 L 428.206 244.59 L 428.206 554.24 C 350.476 506.681 293.72 420.309 285.326 304.123 Z M 668.206 272.59 C 668.206 493.872 532.272 617.235 446.667 652.898 C 434.852 657.821 421.559 657.821 409.744 652.898 C 302.701 608.303 188.206 471.077 188.206 272.59 C 188.206 253.212 199.858 235.735 217.745 228.282 L 409.745 148.282 C 421.56 143.359 434.853 143.359 446.668 148.282 L 638.668 228.282 C 656.555 235.735 668.206 253.213 668.206 272.59 Z M 620.206 272.59 L 428.205 192.59 L 236.206 272.59 C 236.206 441.868 330.657 567.951 428.204 608.589 C 521.808 569.607 620.206 446.394 620.206 272.59 Z" style="fill: rgb(201, 46, 46);"/>
  <path d="M 991.463 481.392 L 991.463 329.235 C 991.463 301.302 968.679 278.517 940.743 278.517 L 788.588 278.517 L 788.588 329.235 L 940.743 329.235 L 940.743 481.392 C 940.743 495.36 929.351 506.752 915.386 506.752 L 788.588 506.752 L 788.588 557.472 L 915.386 557.472 C 957.286 557.472 991.463 523.295 991.463 481.392 Z" style="fill-opacity: 1; fill-rule: evenodd; stroke: none; stroke-width: 0.216; stroke-linecap: butt; stroke-linejoin: miter; stroke-dasharray: none; fill: rgb(201, 46, 46);" id="path15"/>
  <path d="M 1185.095 354.595 L 1185.095 329.237 L 1032.938 329.237 L 1032.938 278.517 L 1185.095 278.517 C 1213.03 278.517 1235.813 301.302 1235.813 329.237 L 1235.813 354.595 C 1235.813 382.53 1213.03 405.315 1185.095 405.315 L 1083.657 405.315 L 1083.657 557.472 L 1032.938 557.472 L 1032.938 354.595 Z" style="fill-opacity: 1; fill-rule: evenodd; stroke: none; stroke-width: 0.216; stroke-linecap: butt; stroke-linejoin: miter; stroke-dasharray: none; fill: rgb(201, 46, 46);" id="path17"/>
  <path d="M 1275.587 354.611 C 1275.555 312.674 1309.76 278.471 1351.697 278.501 L 1478.494 278.523 L 1478.494 329.215 L 1351.697 329.127 C 1337.591 329.003 1326.089 340.505 1326.213 354.611 L 1478.494 354.611 L 1478.494 405.329 L 1326.337 405.329 L 1326.337 481.408 C 1326.337 495.376 1337.729 506.766 1351.697 506.766 L 1478.494 506.766 L 1478.494 557.486 L 1351.697 557.486 C 1309.794 557.486 1275.617 523.309 1275.617 481.408 Z" style="fill-opacity: 1; fill-rule: evenodd; stroke: none; stroke-width: 0.216; stroke-linecap: butt; stroke-linejoin: miter; stroke-dasharray: none; fill: rgb(201, 46, 46);" id="path19"/>
  <path d="M 1594.286 354.595 L 1594.286 557.472 L 1645.006 557.472 L 1645.142 354.595 C 1645.278 340.777 1656.548 329.509 1670.364 329.371 L 1721.084 329.237 L 1721.084 278.517 L 1518.208 278.517 L 1518.208 329.237 L 1598.774 329.285 C 1596.07 337.359 1594.286 345.978 1594.286 354.595 Z" style="fill-opacity: 1; fill-rule: evenodd; stroke: none; stroke-width: 0.216; stroke-linecap: butt; stroke-linejoin: miter; stroke-dasharray: none; fill: rgb(201, 46, 46);" id="path21"/>
  <path d="M 1963.635 481.362 L 1963.635 354.565 C 1963.635 312.662 1929.46 278.487 1887.557 278.487 L 1836.837 278.487 C 1794.935 278.487 1760.76 312.662 1760.76 354.565 L 1760.76 481.362 C 1760.76 523.265 1794.935 557.44 1836.837 557.502 L 1887.557 557.502 C 1929.46 557.44 1963.635 523.265 1963.635 481.362 Z M 1912.917 481.362 L 1912.917 354.565 C 1912.917 340.597 1901.525 329.205 1887.557 329.205 L 1836.837 329.205 C 1822.87 329.205 1811.479 340.597 1811.479 354.565 L 1811.479 481.362 C 1811.479 495.33 1822.87 506.722 1836.837 506.722 L 1887.557 506.722 C 1901.525 506.722 1912.917 495.33 1912.917 481.362 Z" style="fill-opacity: 1; fill-rule: evenodd; stroke: none; stroke-width: 0.216; stroke-linecap: butt; stroke-linejoin: miter; stroke-dasharray: none; fill: rgb(201, 46, 46);" id="path23"/>
  <path d="M 228.195 768.323 C 225.222 768.323 222.625 767.7 220.405 766.453 C 218.178 765.206 216.332 763.47 214.865 761.243 L 218.315 758.393 C 219.588 760.253 221.018 761.69 222.605 762.703 C 224.192 763.716 226.055 764.223 228.195 764.223 C 233.828 764.223 236.645 761.583 236.645 756.303 C 236.645 754.163 236.128 752.54 235.095 751.433 C 234.062 750.32 232.278 749.446 229.745 748.813 L 226.645 748.033 C 222.998 747.126 220.312 745.79 218.585 744.023 C 216.858 742.256 215.995 739.766 215.995 736.553 C 215.995 732.866 217.145 730.08 219.445 728.193 C 221.745 726.306 224.802 725.363 228.615 725.363 C 231.508 725.363 233.935 725.9 235.895 726.973 C 237.862 728.046 239.578 729.733 241.045 732.033 L 237.535 734.533 C 236.462 732.866 235.242 731.606 233.875 730.753 C 232.508 729.9 230.695 729.473 228.435 729.473 C 225.895 729.473 223.962 730.03 222.635 731.143 C 221.302 732.25 220.635 734.053 220.635 736.553 C 220.635 738.58 221.182 740.106 222.275 741.133 C 223.368 742.166 225.125 742.98 227.545 743.573 L 230.635 744.353 C 232.575 744.826 234.222 745.39 235.575 746.043 C 236.922 746.696 238.022 747.5 238.875 748.453 C 239.728 749.406 240.342 750.526 240.715 751.813 C 241.095 753.106 241.285 754.603 241.285 756.303 C 241.285 760.236 240.125 763.223 237.805 765.263 C 235.485 767.303 232.282 768.323 228.195 768.323 ZM 265.381 767.613 L 265.381 762.613 L 264.781 762.613 C 264.187 764.52 263.267 765.95 262.021 766.903 C 260.767 767.85 259.071 768.323 256.931 768.323 C 254.197 768.323 252.044 767.393 250.471 765.533 C 248.904 763.666 248.121 760.79 248.121 756.903 L 248.121 736.913 L 252.651 736.913 L 252.651 756.603 C 252.651 759.063 253.154 760.946 254.161 762.253 C 255.174 763.566 256.731 764.223 258.831 764.223 C 260.657 764.223 262.207 763.666 263.481 762.553 C 264.747 761.446 265.381 759.88 265.381 757.853 L 265.381 736.913 L 269.901 736.913 L 269.901 767.613 L 265.381 767.613 ZM 287.452 768.323 C 284.912 768.323 282.742 767.81 280.942 766.783 C 279.136 765.75 277.596 764.32 276.322 762.493 L 279.482 759.873 C 280.549 761.386 281.709 762.54 282.962 763.333 C 284.209 764.126 285.706 764.523 287.452 764.523 C 289.239 764.523 290.656 764.076 291.702 763.183 C 292.756 762.29 293.282 761.01 293.282 759.343 C 293.282 757.996 292.946 756.906 292.272 756.073 C 291.599 755.24 290.349 754.663 288.522 754.343 L 286.202 753.923 C 283.229 753.37 281.019 752.44 279.572 751.133 C 278.126 749.82 277.402 747.836 277.402 745.183 C 277.402 743.636 277.639 742.296 278.112 741.163 C 278.586 740.036 279.259 739.106 280.132 738.373 C 281.006 737.633 282.049 737.096 283.262 736.763 C 284.469 736.423 285.786 736.253 287.212 736.253 C 289.512 736.253 291.446 736.66 293.012 737.473 C 294.579 738.286 295.939 739.466 297.092 741.013 L 294.172 743.693 C 293.499 742.74 292.609 741.896 291.502 741.163 C 290.389 740.43 288.959 740.063 287.212 740.063 C 283.606 740.063 281.802 741.71 281.802 745.003 C 281.802 746.51 282.189 747.61 282.962 748.303 C 283.736 748.996 284.996 749.503 286.742 749.823 L 289.062 750.243 C 292.196 750.796 294.416 751.766 295.722 753.153 C 297.029 754.54 297.682 756.423 297.682 758.803 C 297.682 761.783 296.822 764.116 295.102 765.803 C 293.376 767.483 290.826 768.323 287.452 768.323 ZM 305.061 779.513 L 305.061 736.913 L 309.581 736.913 L 309.581 741.913 L 310.181 741.913 C 310.774 739.886 311.734 738.426 313.061 737.533 C 314.394 736.64 316.011 736.193 317.911 736.193 C 319.738 736.193 321.344 736.57 322.731 737.323 C 324.124 738.076 325.294 739.15 326.241 740.543 C 327.194 741.93 327.911 743.613 328.391 745.593 C 328.864 747.58 329.101 749.803 329.101 752.263 C 329.101 754.723 328.864 756.943 328.391 758.923 C 327.911 760.91 327.194 762.596 326.241 763.983 C 325.294 765.37 324.124 766.44 322.731 767.193 C 321.344 767.946 319.738 768.323 317.911 768.323 C 316.011 768.323 314.394 767.88 313.061 766.993 C 311.734 766.1 310.774 764.64 310.181 762.613 L 309.581 762.613 L 309.581 779.513 L 305.061 779.513 Z M 316.551 764.283 C 319.044 764.283 320.948 763.5 322.261 761.933 C 323.568 760.366 324.221 758.173 324.221 755.353 L 324.221 749.163 C 324.221 746.35 323.568 744.16 322.261 742.593 C 320.948 741.026 319.044 740.243 316.551 740.243 C 315.598 740.243 314.694 740.383 313.841 740.663 C 312.988 740.936 312.254 741.333 311.641 741.853 C 311.021 742.366 310.524 742.98 310.151 743.693 C 309.771 744.406 309.581 745.2 309.581 746.073 L 309.581 758.453 C 309.581 759.326 309.771 760.12 310.151 760.833 C 310.524 761.546 311.021 762.16 311.641 762.673 C 312.254 763.186 312.988 763.583 313.841 763.863 C 314.694 764.143 315.598 764.283 316.551 764.283 ZM 338.497 729.473 C 336.637 729.473 335.707 728.66 335.707 727.033 L 335.707 726.083 C 335.707 724.456 336.637 723.643 338.497 723.643 C 340.364 723.643 341.297 724.456 341.297 726.083 L 341.297 727.033 C 341.297 728.66 340.364 729.473 338.497 729.473 Z M 336.237 767.613 L 336.237 736.913 L 340.757 736.913 L 340.757 767.613 L 336.237 767.613 ZM 359.922 768.323 C 356.116 768.323 353.129 767.076 350.962 764.583 C 348.802 762.083 347.722 757.976 347.722 752.263 C 347.722 746.55 348.802 742.443 350.962 739.943 C 353.129 737.443 356.116 736.193 359.922 736.193 C 362.816 736.193 365.126 736.86 366.852 738.193 C 368.579 739.52 369.839 741.213 370.632 743.273 L 366.882 745.183 C 366.369 743.596 365.556 742.376 364.442 741.523 C 363.329 740.67 361.822 740.243 359.922 740.243 C 357.422 740.243 355.576 740.976 354.382 742.443 C 353.196 743.91 352.602 746.15 352.602 749.163 L 352.602 755.353 C 352.602 758.366 353.196 760.61 354.382 762.083 C 355.576 763.55 357.422 764.283 359.922 764.283 C 361.902 764.283 363.499 763.846 364.712 762.973 C 365.919 762.1 366.879 760.77 367.592 758.983 L 370.922 761.303 C 370.016 763.45 368.639 765.156 366.792 766.423 C 364.946 767.69 362.656 768.323 359.922 768.323 ZM 379.074 729.473 C 377.214 729.473 376.284 728.66 376.284 727.033 L 376.284 726.083 C 376.284 724.456 377.214 723.643 379.074 723.643 C 380.94 723.643 381.874 724.456 381.874 726.083 L 381.874 727.033 C 381.874 728.66 380.94 729.473 379.074 729.473 Z M 376.814 767.613 L 376.814 736.913 L 381.334 736.913 L 381.334 767.613 L 376.814 767.613 ZM 400.849 768.323 C 399.069 768.323 397.405 768.026 395.859 767.433 C 394.312 766.84 392.982 765.89 391.869 764.583 C 390.755 763.27 389.882 761.603 389.249 759.583 C 388.615 757.556 388.299 755.116 388.299 752.263 C 388.299 749.403 388.615 746.963 389.249 744.943 C 389.882 742.923 390.755 741.256 391.869 739.943 C 392.982 738.636 394.312 737.686 395.859 737.093 C 397.405 736.493 399.069 736.193 400.849 736.193 C 402.635 736.193 404.302 736.493 405.849 737.093 C 407.395 737.686 408.725 738.636 409.839 739.943 C 410.945 741.256 411.819 742.923 412.459 744.943 C 413.092 746.963 413.409 749.403 413.409 752.263 C 413.409 755.116 413.092 757.556 412.459 759.583 C 411.819 761.603 410.945 763.27 409.839 764.583 C 408.725 765.89 407.395 766.84 405.849 767.433 C 404.302 768.026 402.635 768.323 400.849 768.323 Z M 400.849 764.283 C 403.309 764.283 405.205 763.55 406.539 762.083 C 407.865 760.61 408.529 758.366 408.529 755.353 L 408.529 749.163 C 408.529 746.15 407.865 743.91 406.539 742.443 C 405.205 740.976 403.309 740.243 400.849 740.243 C 398.395 740.243 396.502 740.976 395.169 742.443 C 393.842 743.91 393.179 746.15 393.179 749.163 L 393.179 755.353 C 393.179 758.366 393.842 760.61 395.169 762.083 C 396.502 763.55 398.395 764.283 400.849 764.283 ZM 437.325 767.613 L 437.325 762.613 L 436.725 762.613 C 436.132 764.52 435.212 765.95 433.965 766.903 C 432.712 767.85 431.015 768.323 428.875 768.323 C 426.142 768.323 423.988 767.393 422.415 765.533 C 420.848 763.666 420.065 760.79 420.065 756.903 L 420.065 736.913 L 424.595 736.913 L 424.595 756.603 C 424.595 759.063 425.098 760.946 426.105 762.253 C 427.118 763.566 428.675 764.223 430.775 764.223 C 432.602 764.223 434.152 763.666 435.425 762.553 C 436.692 761.446 437.325 759.88 437.325 757.853 L 437.325 736.913 L 441.845 736.913 L 441.845 767.613 L 437.325 767.613 ZM 459.397 768.323 C 456.857 768.323 454.687 767.81 452.887 766.783 C 451.08 765.75 449.54 764.32 448.267 762.493 L 451.427 759.873 C 452.493 761.386 453.653 762.54 454.907 763.333 C 456.153 764.126 457.65 764.523 459.397 764.523 C 461.183 764.523 462.6 764.076 463.647 763.183 C 464.7 762.29 465.227 761.01 465.227 759.343 C 465.227 757.996 464.89 756.906 464.217 756.073 C 463.543 755.24 462.293 754.663 460.467 754.343 L 458.147 753.923 C 455.173 753.37 452.963 752.44 451.517 751.133 C 450.07 749.82 449.347 747.836 449.347 745.183 C 449.347 743.636 449.583 742.296 450.057 741.163 C 450.53 740.036 451.203 739.106 452.077 738.373 C 452.95 737.633 453.993 737.096 455.207 736.763 C 456.413 736.423 457.73 736.253 459.157 736.253 C 461.457 736.253 463.39 736.66 464.957 737.473 C 466.523 738.286 467.883 739.466 469.037 741.013 L 466.117 743.693 C 465.443 742.74 464.553 741.896 463.447 741.163 C 462.333 740.43 460.903 740.063 459.157 740.063 C 455.55 740.063 453.747 741.71 453.747 745.003 C 453.747 746.51 454.133 747.61 454.907 748.303 C 455.68 748.996 456.94 749.503 458.687 749.823 L 461.007 750.243 C 464.14 750.796 466.36 751.766 467.667 753.153 C 468.973 754.54 469.627 756.423 469.627 758.803 C 469.627 761.783 468.767 764.116 467.047 765.803 C 465.32 767.483 462.77 768.323 459.397 768.323 ZM 494.139 767.613 L 489.619 767.613 L 489.619 736.913 L 494.139 736.913 L 494.139 742.623 L 494.739 742.623 C 495.252 740.836 496.135 739.44 497.389 738.433 C 498.635 737.42 500.272 736.913 502.299 736.913 L 503.959 736.913 L 503.959 741.493 L 500.989 741.493 C 498.842 741.493 497.165 741.97 495.959 742.923 C 494.745 743.876 494.139 745.303 494.139 747.203 L 494.139 767.613 ZM 519.722 768.323 C 517.942 768.323 516.279 768.026 514.732 767.433 C 513.186 766.84 511.856 765.89 510.742 764.583 C 509.629 763.27 508.756 761.603 508.122 759.583 C 507.489 757.556 507.172 755.116 507.172 752.263 C 507.172 749.403 507.489 746.963 508.122 744.943 C 508.756 742.923 509.629 741.256 510.742 739.943 C 511.856 738.636 513.186 737.686 514.732 737.093 C 516.279 736.493 517.942 736.193 519.722 736.193 C 521.509 736.193 523.146 736.493 524.632 737.093 C 526.119 737.686 527.379 738.636 528.412 739.943 C 529.446 741.256 530.249 742.923 530.822 744.943 C 531.396 746.963 531.682 749.403 531.682 752.263 L 531.682 753.393 L 511.992 753.393 L 511.992 755.353 C 511.992 758.366 512.676 760.62 514.042 762.113 C 515.409 763.6 517.302 764.343 519.722 764.343 C 521.789 764.343 523.476 763.896 524.782 763.003 C 526.096 762.11 527.129 760.77 527.882 758.983 L 530.972 761.243 C 530.019 763.35 528.619 765.056 526.772 766.363 C 524.932 767.67 522.582 768.323 519.722 768.323 Z M 519.722 740.003 C 517.269 740.003 515.366 740.776 514.012 742.323 C 512.666 743.87 511.992 746.15 511.992 749.163 L 511.992 749.943 L 526.862 749.943 L 526.862 749.163 C 526.862 743.056 524.482 740.003 519.722 740.003 ZM 556.313 779.513 L 556.313 762.613 L 555.723 762.613 C 555.13 764.64 554.166 766.1 552.833 766.993 C 551.506 767.88 549.89 768.323 547.983 768.323 C 546.163 768.323 544.556 767.946 543.163 767.193 C 541.776 766.44 540.606 765.37 539.653 763.983 C 538.706 762.596 537.993 760.91 537.513 758.923 C 537.04 756.943 536.803 754.723 536.803 752.263 C 536.803 749.803 537.04 747.58 537.513 745.593 C 537.993 743.613 538.706 741.93 539.653 740.543 C 540.606 739.15 541.776 738.076 543.163 737.323 C 544.556 736.57 546.163 736.193 547.983 736.193 C 549.89 736.193 551.506 736.64 552.833 737.533 C 554.166 738.426 555.13 739.886 555.723 741.913 L 556.313 741.913 L 556.313 736.913 L 560.843 736.913 L 560.843 779.513 L 556.313 779.513 Z M 549.353 764.283 C 550.306 764.283 551.21 764.143 552.063 763.863 C 552.916 763.583 553.65 763.186 554.263 762.673 C 554.876 762.16 555.373 761.546 555.753 760.833 C 556.126 760.12 556.313 759.326 556.313 758.453 L 556.313 746.073 C 556.313 745.2 556.126 744.406 555.753 743.693 C 555.373 742.98 554.876 742.366 554.263 741.853 C 553.65 741.333 552.916 740.936 552.063 740.663 C 551.21 740.383 550.306 740.243 549.353 740.243 C 546.853 740.243 544.95 741.026 543.643 742.593 C 542.336 744.16 541.683 746.35 541.683 749.163 L 541.683 755.353 C 541.683 758.173 542.336 760.366 543.643 761.933 C 544.95 763.5 546.853 764.283 549.353 764.283 ZM 586.839 767.613 L 586.839 762.613 L 586.239 762.613 C 585.646 764.52 584.726 765.95 583.479 766.903 C 582.226 767.85 580.529 768.323 578.389 768.323 C 575.656 768.323 573.503 767.393 571.929 765.533 C 570.363 763.666 569.579 760.79 569.579 756.903 L 569.579 736.913 L 574.109 736.913 L 574.109 756.603 C 574.109 759.063 574.613 760.946 575.619 762.253 C 576.633 763.566 578.189 764.223 580.289 764.223 C 582.116 764.223 583.666 763.666 584.939 762.553 C 586.206 761.446 586.839 759.88 586.839 757.853 L 586.839 736.913 L 591.359 736.913 L 591.359 767.613 L 586.839 767.613 ZM 610.871 768.323 C 609.091 768.323 607.428 768.026 605.881 767.433 C 604.334 766.84 603.004 765.89 601.891 764.583 C 600.778 763.27 599.904 761.603 599.271 759.583 C 598.638 757.556 598.321 755.116 598.321 752.263 C 598.321 749.403 598.638 746.963 599.271 744.943 C 599.904 742.923 600.778 741.256 601.891 739.943 C 603.004 738.636 604.334 737.686 605.881 737.093 C 607.428 736.493 609.091 736.193 610.871 736.193 C 612.658 736.193 614.294 736.493 615.781 737.093 C 617.268 737.686 618.528 738.636 619.561 739.943 C 620.594 741.256 621.398 742.923 621.971 744.943 C 622.544 746.963 622.831 749.403 622.831 752.263 L 622.831 753.393 L 603.141 753.393 L 603.141 755.353 C 603.141 758.366 603.824 760.62 605.191 762.113 C 606.558 763.6 608.451 764.343 610.871 764.343 C 612.938 764.343 614.624 763.896 615.931 763.003 C 617.244 762.11 618.278 760.77 619.031 758.983 L 622.121 761.243 C 621.168 763.35 619.768 765.056 617.921 766.363 C 616.081 767.67 613.731 768.323 610.871 768.323 Z M 610.871 740.003 C 608.418 740.003 606.514 740.776 605.161 742.323 C 603.814 743.87 603.141 746.15 603.141 749.163 L 603.141 749.943 L 618.011 749.943 L 618.011 749.163 C 618.011 743.056 615.631 740.003 610.871 740.003 ZM 638.362 768.323 C 635.822 768.323 633.652 767.81 631.852 766.783 C 630.045 765.75 628.505 764.32 627.232 762.493 L 630.392 759.873 C 631.458 761.386 632.618 762.54 633.872 763.333 C 635.118 764.126 636.615 764.523 638.362 764.523 C 640.148 764.523 641.565 764.076 642.612 763.183 C 643.665 762.29 644.192 761.01 644.192 759.343 C 644.192 757.996 643.855 756.906 643.182 756.073 C 642.508 755.24 641.258 754.663 639.432 754.343 L 637.112 753.923 C 634.138 753.37 631.928 752.44 630.482 751.133 C 629.035 749.82 628.312 747.836 628.312 745.183 C 628.312 743.636 628.548 742.296 629.022 741.163 C 629.495 740.036 630.168 739.106 631.042 738.373 C 631.915 737.633 632.958 737.096 634.172 736.763 C 635.378 736.423 636.695 736.253 638.122 736.253 C 640.422 736.253 642.355 736.66 643.922 737.473 C 645.488 738.286 646.848 739.466 648.002 741.013 L 645.082 743.693 C 644.408 742.74 643.518 741.896 642.412 741.163 C 641.298 740.43 639.868 740.063 638.122 740.063 C 634.515 740.063 632.712 741.71 632.712 745.003 C 632.712 746.51 633.098 747.61 633.872 748.303 C 634.645 748.996 635.905 749.503 637.652 749.823 L 639.972 750.243 C 643.105 750.796 645.325 751.766 646.632 753.153 C 647.938 754.54 648.592 756.423 648.592 758.803 C 648.592 761.783 647.732 764.116 646.012 765.803 C 644.285 767.483 641.735 768.323 638.362 768.323 ZM 667.571 767.613 L 662.041 767.613 C 660.415 767.613 659.235 767.246 658.501 766.513 C 657.768 765.78 657.401 764.6 657.401 762.973 L 657.401 740.893 L 652.881 740.893 L 652.881 736.913 L 655.551 736.913 C 656.465 736.913 657.071 736.683 657.371 736.223 C 657.671 735.77 657.821 735.086 657.821 734.173 L 657.821 728.463 L 661.921 728.463 L 661.921 736.913 L 667.871 736.913 L 667.871 740.893 L 661.921 740.893 L 661.921 763.623 L 667.571 763.623 L 667.571 767.613 ZM 704.994 767.613 L 704.994 762.613 L 704.404 762.613 C 703.811 764.64 702.848 766.1 701.514 766.993 C 700.188 767.88 698.571 768.323 696.664 768.323 C 694.844 768.323 693.238 767.946 691.844 767.193 C 690.458 766.44 689.288 765.37 688.334 763.983 C 687.388 762.596 686.674 760.91 686.194 758.923 C 685.721 756.943 685.484 754.723 685.484 752.263 C 685.484 749.803 685.721 747.58 686.194 745.593 C 686.674 743.613 687.388 741.93 688.334 740.543 C 689.288 739.15 690.458 738.076 691.844 737.323 C 693.238 736.57 694.844 736.193 696.664 736.193 C 698.571 736.193 700.188 736.64 701.514 737.533 C 702.848 738.426 703.811 739.886 704.404 741.913 L 704.994 741.913 L 704.994 723.583 L 709.524 723.583 L 709.524 767.613 L 704.994 767.613 Z M 698.034 764.283 C 698.988 764.283 699.891 764.143 700.744 763.863 C 701.598 763.583 702.331 763.186 702.944 762.673 C 703.558 762.16 704.054 761.546 704.434 760.833 C 704.808 760.12 704.994 759.326 704.994 758.453 L 704.994 746.073 C 704.994 745.2 704.808 744.406 704.434 743.693 C 704.054 742.98 703.558 742.366 702.944 741.853 C 702.331 741.333 701.598 740.936 700.744 740.663 C 699.891 740.383 698.988 740.243 698.034 740.243 C 695.534 740.243 693.631 741.026 692.324 742.593 C 691.018 744.16 690.364 746.35 690.364 749.163 L 690.364 755.353 C 690.364 758.173 691.018 760.366 692.324 761.933 C 693.631 763.5 695.534 764.283 698.034 764.283 ZM 720.821 729.473 C 718.961 729.473 718.031 728.66 718.031 727.033 L 718.031 726.083 C 718.031 724.456 718.961 723.643 720.821 723.643 C 722.687 723.643 723.621 724.456 723.621 726.083 L 723.621 727.033 C 723.621 728.66 722.687 729.473 720.821 729.473 Z M 718.561 767.613 L 718.561 736.913 L 723.081 736.913 L 723.081 767.613 L 718.561 767.613 ZM 740.636 768.323 C 738.096 768.323 735.926 767.81 734.126 766.783 C 732.319 765.75 730.779 764.32 729.506 762.493 L 732.666 759.873 C 733.732 761.386 734.892 762.54 736.146 763.333 C 737.392 764.126 738.889 764.523 740.636 764.523 C 742.422 764.523 743.839 764.076 744.886 763.183 C 745.939 762.29 746.466 761.01 746.466 759.343 C 746.466 757.996 746.129 756.906 745.456 756.073 C 744.782 755.24 743.532 754.663 741.706 754.343 L 739.386 753.923 C 736.412 753.37 734.202 752.44 732.756 751.133 C 731.309 749.82 730.586 747.836 730.586 745.183 C 730.586 743.636 730.822 742.296 731.296 741.163 C 731.769 740.036 732.442 739.106 733.316 738.373 C 734.189 737.633 735.232 737.096 736.446 736.763 C 737.652 736.423 738.969 736.253 740.396 736.253 C 742.696 736.253 744.629 736.66 746.196 737.473 C 747.762 738.286 749.122 739.466 750.276 741.013 L 747.356 743.693 C 746.682 742.74 745.792 741.896 744.686 741.163 C 743.572 740.43 742.142 740.063 740.396 740.063 C 736.789 740.063 734.986 741.71 734.986 745.003 C 734.986 746.51 735.372 747.61 736.146 748.303 C 736.919 748.996 738.179 749.503 739.926 749.823 L 742.246 750.243 C 745.379 750.796 747.599 751.766 748.906 753.153 C 750.212 754.54 750.866 756.423 750.866 758.803 C 750.866 761.783 750.006 764.116 748.286 765.803 C 746.559 767.483 744.009 768.323 740.636 768.323 ZM 768.365 768.323 C 764.558 768.323 761.571 767.076 759.405 764.583 C 757.245 762.083 756.165 757.976 756.165 752.263 C 756.165 746.55 757.245 742.443 759.405 739.943 C 761.571 737.443 764.558 736.193 768.365 736.193 C 771.258 736.193 773.568 736.86 775.295 738.193 C 777.021 739.52 778.281 741.213 779.075 743.273 L 775.325 745.183 C 774.811 743.596 773.998 742.376 772.885 741.523 C 771.771 740.67 770.265 740.243 768.365 740.243 C 765.865 740.243 764.018 740.976 762.825 742.443 C 761.638 743.91 761.045 746.15 761.045 749.163 L 761.045 755.353 C 761.045 758.366 761.638 760.61 762.825 762.083 C 764.018 763.55 765.865 764.283 768.365 764.283 C 770.345 764.283 771.941 763.846 773.155 762.973 C 774.361 762.1 775.321 760.77 776.035 758.983 L 779.365 761.303 C 778.458 763.45 777.081 765.156 775.235 766.423 C 773.388 767.69 771.098 768.323 768.365 768.323 ZM 795.309 768.323 C 793.529 768.323 791.866 768.026 790.319 767.433 C 788.773 766.84 787.443 765.89 786.329 764.583 C 785.216 763.27 784.343 761.603 783.709 759.583 C 783.076 757.556 782.759 755.116 782.759 752.263 C 782.759 749.403 783.076 746.963 783.709 744.943 C 784.343 742.923 785.216 741.256 786.329 739.943 C 787.443 738.636 788.773 737.686 790.319 737.093 C 791.866 736.493 793.529 736.193 795.309 736.193 C 797.096 736.193 798.763 736.493 800.309 737.093 C 801.856 737.686 803.186 738.636 804.299 739.943 C 805.406 741.256 806.279 742.923 806.919 744.943 C 807.553 746.963 807.869 749.403 807.869 752.263 C 807.869 755.116 807.553 757.556 806.919 759.583 C 806.279 761.603 805.406 763.27 804.299 764.583 C 803.186 765.89 801.856 766.84 800.309 767.433 C 798.763 768.026 797.096 768.323 795.309 768.323 Z M 795.309 764.283 C 797.769 764.283 799.666 763.55 800.999 762.083 C 802.326 760.61 802.989 758.366 802.989 755.353 L 802.989 749.163 C 802.989 746.15 802.326 743.91 800.999 742.443 C 799.666 740.976 797.769 740.243 795.309 740.243 C 792.856 740.243 790.963 740.976 789.629 742.443 C 788.303 743.91 787.639 746.15 787.639 749.163 L 787.639 755.353 C 787.639 758.366 788.303 760.61 789.629 762.083 C 790.963 763.55 792.856 764.283 795.309 764.283 ZM 825.899 767.613 L 820.539 767.613 L 810.899 736.913 L 815.419 736.913 L 820.119 752.383 L 822.979 763.623 L 823.579 763.623 L 826.429 752.383 L 831.129 736.913 L 835.539 736.913 L 825.899 767.613 ZM 851.058 768.323 C 849.278 768.323 847.614 768.026 846.068 767.433 C 844.521 766.84 843.191 765.89 842.078 764.583 C 840.964 763.27 840.091 761.603 839.458 759.583 C 838.824 757.556 838.508 755.116 838.508 752.263 C 838.508 749.403 838.824 746.963 839.458 744.943 C 840.091 742.923 840.964 741.256 842.078 739.943 C 843.191 738.636 844.521 737.686 846.068 737.093 C 847.614 736.493 849.278 736.193 851.058 736.193 C 852.844 736.193 854.481 736.493 855.968 737.093 C 857.454 737.686 858.714 738.636 859.748 739.943 C 860.781 741.256 861.584 742.923 862.158 744.943 C 862.731 746.963 863.018 749.403 863.018 752.263 L 863.018 753.393 L 843.328 753.393 L 843.328 755.353 C 843.328 758.366 844.011 760.62 845.378 762.113 C 846.744 763.6 848.638 764.343 851.058 764.343 C 853.124 764.343 854.811 763.896 856.118 763.003 C 857.431 762.11 858.464 760.77 859.218 758.983 L 862.308 761.243 C 861.354 763.35 859.954 765.056 858.108 766.363 C 856.268 767.67 853.918 768.323 851.058 768.323 Z M 851.058 740.003 C 848.604 740.003 846.701 740.776 845.348 742.323 C 844.001 743.87 843.328 746.15 843.328 749.163 L 843.328 749.943 L 858.198 749.943 L 858.198 749.163 C 858.198 743.056 855.818 740.003 851.058 740.003 ZM 874.558 767.613 L 870.038 767.613 L 870.038 736.913 L 874.558 736.913 L 874.558 742.623 L 875.158 742.623 C 875.672 740.836 876.555 739.44 877.808 738.433 C 879.055 737.42 880.692 736.913 882.718 736.913 L 884.378 736.913 L 884.378 741.493 L 881.408 741.493 C 879.262 741.493 877.585 741.97 876.378 742.923 C 875.165 743.876 874.558 745.303 874.558 747.203 L 874.558 767.613 ZM 900.142 768.323 C 898.362 768.323 896.699 768.026 895.152 767.433 C 893.605 766.84 892.275 765.89 891.162 764.583 C 890.049 763.27 889.175 761.603 888.542 759.583 C 887.909 757.556 887.592 755.116 887.592 752.263 C 887.592 749.403 887.909 746.963 888.542 744.943 C 889.175 742.923 890.049 741.256 891.162 739.943 C 892.275 738.636 893.605 737.686 895.152 737.093 C 896.699 736.493 898.362 736.193 900.142 736.193 C 901.929 736.193 903.565 736.493 905.052 737.093 C 906.539 737.686 907.799 738.636 908.832 739.943 C 909.865 741.256 910.669 742.923 911.242 744.943 C 911.815 746.963 912.102 749.403 912.102 752.263 L 912.102 753.393 L 892.412 753.393 L 892.412 755.353 C 892.412 758.366 893.095 760.62 894.462 762.113 C 895.829 763.6 897.722 764.343 900.142 764.343 C 902.209 764.343 903.895 763.896 905.202 763.003 C 906.515 762.11 907.549 760.77 908.302 758.983 L 911.392 761.243 C 910.439 763.35 909.039 765.056 907.192 766.363 C 905.352 767.67 903.002 768.323 900.142 768.323 Z M 900.142 740.003 C 897.689 740.003 895.785 740.776 894.432 742.323 C 893.085 743.87 892.412 746.15 892.412 749.163 L 892.412 749.943 L 907.282 749.943 L 907.282 749.163 C 907.282 743.056 904.902 740.003 900.142 740.003 ZM 936.733 767.613 L 936.733 762.613 L 936.143 762.613 C 935.549 764.64 934.586 766.1 933.253 766.993 C 931.926 767.88 930.309 768.323 928.403 768.323 C 926.583 768.323 924.976 767.946 923.583 767.193 C 922.196 766.44 921.026 765.37 920.073 763.983 C 919.126 762.596 918.413 760.91 917.933 758.923 C 917.459 756.943 917.223 754.723 917.223 752.263 C 917.223 749.803 917.459 747.58 917.933 745.593 C 918.413 743.613 919.126 741.93 920.073 740.543 C 921.026 739.15 922.196 738.076 923.583 737.323 C 924.976 736.57 926.583 736.193 928.403 736.193 C 930.309 736.193 931.926 736.64 933.253 737.533 C 934.586 738.426 935.549 739.886 936.143 741.913 L 936.733 741.913 L 936.733 723.583 L 941.263 723.583 L 941.263 767.613 L 936.733 767.613 Z M 929.773 764.283 C 930.726 764.283 931.629 764.143 932.483 763.863 C 933.336 763.583 934.069 763.186 934.683 762.673 C 935.296 762.16 935.793 761.546 936.173 760.833 C 936.546 760.12 936.733 759.326 936.733 758.453 L 936.733 746.073 C 936.733 745.2 936.546 744.406 936.173 743.693 C 935.793 742.98 935.296 742.366 934.683 741.853 C 934.069 741.333 933.336 740.936 932.483 740.663 C 931.629 740.383 930.726 740.243 929.773 740.243 C 927.273 740.243 925.369 741.026 924.063 742.593 C 922.756 744.16 922.103 746.35 922.103 749.163 L 922.103 755.353 C 922.103 758.173 922.756 760.366 924.063 761.933 C 925.369 763.5 927.273 764.283 929.773 764.283 ZM 953.159 768.323 C 950.819 768.323 949.649 767.313 949.649 765.293 L 949.649 764.343 C 949.649 762.316 950.819 761.303 953.159 761.303 C 955.499 761.303 956.669 762.316 956.669 764.343 L 956.669 765.293 C 956.669 767.313 955.499 768.323 953.159 768.323 ZM 991.417 767.613 L 986.657 767.613 L 986.657 751.193 L 973.797 726.083 L 979.217 726.083 L 988.797 745.833 L 989.387 745.833 L 998.967 726.083 L 1004.267 726.083 L 991.417 751.193 L 991.417 767.613 ZM 1016.993 768.323 C 1015.213 768.323 1013.549 768.026 1012.003 767.433 C 1010.456 766.84 1009.126 765.89 1008.013 764.583 C 1006.899 763.27 1006.026 761.603 1005.393 759.583 C 1004.759 757.556 1004.443 755.116 1004.443 752.263 C 1004.443 749.403 1004.759 746.963 1005.393 744.943 C 1006.026 742.923 1006.899 741.256 1008.013 739.943 C 1009.126 738.636 1010.456 737.686 1012.003 737.093 C 1013.549 736.493 1015.213 736.193 1016.993 736.193 C 1018.779 736.193 1020.446 736.493 1021.993 737.093 C 1023.539 737.686 1024.869 738.636 1025.983 739.943 C 1027.089 741.256 1027.963 742.923 1028.603 744.943 C 1029.236 746.963 1029.553 749.403 1029.553 752.263 C 1029.553 755.116 1029.236 757.556 1028.603 759.583 C 1027.963 761.603 1027.089 763.27 1025.983 764.583 C 1024.869 765.89 1023.539 766.84 1021.993 767.433 C 1020.446 768.026 1018.779 768.323 1016.993 768.323 Z M 1016.993 764.283 C 1019.453 764.283 1021.349 763.55 1022.683 762.083 C 1024.009 760.61 1024.673 758.366 1024.673 755.353 L 1024.673 749.163 C 1024.673 746.15 1024.009 743.91 1022.683 742.443 C 1021.349 740.976 1019.453 740.243 1016.993 740.243 C 1014.539 740.243 1012.646 740.976 1011.313 742.443 C 1009.986 743.91 1009.323 746.15 1009.323 749.163 L 1009.323 755.353 C 1009.323 758.366 1009.986 760.61 1011.313 762.083 C 1012.646 763.55 1014.539 764.283 1016.993 764.283 ZM 1053.469 767.613 L 1053.469 762.613 L 1052.869 762.613 C 1052.276 764.52 1051.356 765.95 1050.109 766.903 C 1048.856 767.85 1047.159 768.323 1045.019 768.323 C 1042.286 768.323 1040.132 767.393 1038.559 765.533 C 1036.992 763.666 1036.209 760.79 1036.209 756.903 L 1036.209 736.913 L 1040.739 736.913 L 1040.739 756.603 C 1040.739 759.063 1041.242 760.946 1042.249 762.253 C 1043.262 763.566 1044.819 764.223 1046.919 764.223 C 1048.746 764.223 1050.296 763.666 1051.569 762.553 C 1052.836 761.446 1053.469 759.88 1053.469 757.853 L 1053.469 736.913 L 1057.989 736.913 L 1057.989 767.613 L 1053.469 767.613 ZM 1102.254 767.613 L 1099.044 767.613 C 1096.11 767.613 1094.644 766.146 1094.644 763.213 L 1094.644 762.613 L 1094.044 762.613 C 1093.53 764.48 1092.587 765.9 1091.214 766.873 C 1089.847 767.84 1088.214 768.323 1086.314 768.323 C 1083.334 768.323 1081.11 767.57 1079.644 766.063 C 1078.177 764.556 1077.444 762.336 1077.444 759.403 C 1077.444 756.543 1078.387 754.283 1080.274 752.623 C 1082.154 750.956 1085.097 750.123 1089.104 750.123 L 1094.644 750.123 L 1094.644 746.733 C 1094.644 744.466 1094.137 742.8 1093.124 741.733 C 1092.11 740.66 1090.514 740.123 1088.334 740.123 C 1086.547 740.123 1085.11 740.51 1084.024 741.283 C 1082.93 742.056 1081.987 743.176 1081.194 744.643 L 1078.514 742.143 C 1079.307 740.476 1080.577 739.08 1082.324 737.953 C 1084.07 736.82 1086.134 736.253 1088.514 736.253 C 1092 736.253 1094.647 737.096 1096.454 738.783 C 1098.26 740.47 1099.164 742.96 1099.164 746.253 L 1099.164 763.623 L 1102.254 763.623 L 1102.254 767.613 Z M 1087.444 764.403 C 1088.47 764.403 1089.43 764.223 1090.324 763.863 C 1091.217 763.51 1091.98 763.043 1092.614 762.463 C 1093.254 761.89 1093.75 761.236 1094.104 760.503 C 1094.464 759.77 1094.644 759.006 1094.644 758.213 L 1094.644 753.573 L 1088.984 753.573 C 1086.604 753.573 1084.87 753.97 1083.784 754.763 C 1082.69 755.556 1082.144 756.706 1082.144 758.213 L 1082.144 759.873 C 1082.144 761.426 1082.62 762.57 1083.574 763.303 C 1084.527 764.036 1085.817 764.403 1087.444 764.403 ZM 1112.9 767.613 L 1108.38 767.613 L 1108.38 736.913 L 1112.9 736.913 L 1112.9 742.623 L 1113.5 742.623 C 1114.014 740.836 1114.897 739.44 1116.15 738.433 C 1117.397 737.42 1119.034 736.913 1121.06 736.913 L 1122.72 736.913 L 1122.72 741.493 L 1119.75 741.493 C 1117.604 741.493 1115.927 741.97 1114.72 742.923 C 1113.507 743.876 1112.9 745.303 1112.9 747.203 L 1112.9 767.613 ZM 1138.484 768.323 C 1136.704 768.323 1135.041 768.026 1133.494 767.433 C 1131.948 766.84 1130.618 765.89 1129.504 764.583 C 1128.391 763.27 1127.518 761.603 1126.884 759.583 C 1126.251 757.556 1125.934 755.116 1125.934 752.263 C 1125.934 749.403 1126.251 746.963 1126.884 744.943 C 1127.518 742.923 1128.391 741.256 1129.504 739.943 C 1130.618 738.636 1131.948 737.686 1133.494 737.093 C 1135.041 736.493 1136.704 736.193 1138.484 736.193 C 1140.271 736.193 1141.908 736.493 1143.394 737.093 C 1144.881 737.686 1146.141 738.636 1147.174 739.943 C 1148.208 741.256 1149.011 742.923 1149.584 744.943 C 1150.158 746.963 1150.444 749.403 1150.444 752.263 L 1150.444 753.393 L 1130.754 753.393 L 1130.754 755.353 C 1130.754 758.366 1131.438 760.62 1132.804 762.113 C 1134.171 763.6 1136.064 764.343 1138.484 764.343 C 1140.551 764.343 1142.238 763.896 1143.544 763.003 C 1144.858 762.11 1145.891 760.77 1146.644 758.983 L 1149.734 761.243 C 1148.781 763.35 1147.381 765.056 1145.534 766.363 C 1143.694 767.67 1141.344 768.323 1138.484 768.323 Z M 1138.484 740.003 C 1136.031 740.003 1134.128 740.776 1132.774 742.323 C 1131.428 743.87 1130.754 746.15 1130.754 749.163 L 1130.754 749.943 L 1145.624 749.943 L 1145.624 749.163 C 1145.624 743.056 1143.244 740.003 1138.484 740.003 ZM 1170.078 767.613 L 1170.078 723.583 L 1174.598 723.583 L 1174.598 741.913 L 1175.198 741.913 C 1175.791 739.886 1176.751 738.426 1178.078 737.533 C 1179.411 736.64 1181.028 736.193 1182.928 736.193 C 1184.755 736.193 1186.361 736.57 1187.748 737.323 C 1189.141 738.076 1190.311 739.15 1191.258 740.543 C 1192.211 741.93 1192.928 743.613 1193.408 745.593 C 1193.881 747.58 1194.118 749.803 1194.118 752.263 C 1194.118 754.723 1193.881 756.943 1193.408 758.923 C 1192.928 760.91 1192.211 762.596 1191.258 763.983 C 1190.311 765.37 1189.141 766.44 1187.748 767.193 C 1186.361 767.946 1184.755 768.323 1182.928 768.323 C 1181.028 768.323 1179.411 767.88 1178.078 766.993 C 1176.751 766.1 1175.791 764.64 1175.198 762.613 L 1174.598 762.613 L 1174.598 767.613 L 1170.078 767.613 Z M 1181.568 764.283 C 1184.061 764.283 1185.965 763.5 1187.278 761.933 C 1188.585 760.366 1189.238 758.173 1189.238 755.353 L 1189.238 749.163 C 1189.238 746.35 1188.585 744.16 1187.278 742.593 C 1185.965 741.026 1184.061 740.243 1181.568 740.243 C 1180.615 740.243 1179.711 740.383 1178.858 740.663 C 1178.005 740.936 1177.271 741.333 1176.658 741.853 C 1176.038 742.366 1175.541 742.98 1175.168 743.693 C 1174.788 744.406 1174.598 745.2 1174.598 746.073 L 1174.598 758.453 C 1174.598 759.326 1174.788 760.12 1175.168 760.833 C 1175.541 761.546 1176.038 762.16 1176.658 762.673 C 1177.271 763.186 1178.005 763.583 1178.858 763.863 C 1179.711 764.143 1180.615 764.283 1181.568 764.283 ZM 1209.644 767.613 L 1205.894 767.613 C 1204.268 767.613 1203.088 767.246 1202.354 766.513 C 1201.621 765.78 1201.254 764.6 1201.254 762.973 L 1201.254 723.583 L 1205.774 723.583 L 1205.774 763.623 L 1209.644 763.623 L 1209.644 767.613 ZM 1226.42 768.323 C 1224.64 768.323 1222.976 768.026 1221.43 767.433 C 1219.883 766.84 1218.553 765.89 1217.44 764.583 C 1216.326 763.27 1215.453 761.603 1214.82 759.583 C 1214.186 757.556 1213.87 755.116 1213.87 752.263 C 1213.87 749.403 1214.186 746.963 1214.82 744.943 C 1215.453 742.923 1216.326 741.256 1217.44 739.943 C 1218.553 738.636 1219.883 737.686 1221.43 737.093 C 1222.976 736.493 1224.64 736.193 1226.42 736.193 C 1228.206 736.193 1229.873 736.493 1231.42 737.093 C 1232.966 737.686 1234.296 738.636 1235.41 739.943 C 1236.516 741.256 1237.39 742.923 1238.03 744.943 C 1238.663 746.963 1238.98 749.403 1238.98 752.263 C 1238.98 755.116 1238.663 757.556 1238.03 759.583 C 1237.39 761.603 1236.516 763.27 1235.41 764.583 C 1234.296 765.89 1232.966 766.84 1231.42 767.433 C 1229.873 768.026 1228.206 768.323 1226.42 768.323 Z M 1226.42 764.283 C 1228.88 764.283 1230.776 763.55 1232.11 762.083 C 1233.436 760.61 1234.1 758.366 1234.1 755.353 L 1234.1 749.163 C 1234.1 746.15 1233.436 743.91 1232.11 742.443 C 1230.776 740.976 1228.88 740.243 1226.42 740.243 C 1223.966 740.243 1222.073 740.976 1220.74 742.443 C 1219.413 743.91 1218.75 746.15 1218.75 749.163 L 1218.75 755.353 C 1218.75 758.366 1219.413 760.61 1220.74 762.083 C 1222.073 763.55 1223.966 764.283 1226.42 764.283 ZM 1256.056 768.323 C 1252.249 768.323 1249.263 767.076 1247.096 764.583 C 1244.936 762.083 1243.856 757.976 1243.856 752.263 C 1243.856 746.55 1244.936 742.443 1247.096 739.943 C 1249.263 737.443 1252.249 736.193 1256.056 736.193 C 1258.949 736.193 1261.259 736.86 1262.986 738.193 C 1264.713 739.52 1265.973 741.213 1266.766 743.273 L 1263.016 745.183 C 1262.503 743.596 1261.689 742.376 1260.576 741.523 C 1259.463 740.67 1257.956 740.243 1256.056 740.243 C 1253.556 740.243 1251.709 740.976 1250.516 742.443 C 1249.329 743.91 1248.736 746.15 1248.736 749.163 L 1248.736 755.353 C 1248.736 758.366 1249.329 760.61 1250.516 762.083 C 1251.709 763.55 1253.556 764.283 1256.056 764.283 C 1258.036 764.283 1259.633 763.846 1260.846 762.973 C 1262.053 762.1 1263.013 760.77 1263.726 758.983 L 1267.056 761.303 C 1266.149 763.45 1264.773 765.156 1262.926 766.423 C 1261.079 767.69 1258.789 768.323 1256.056 768.323 ZM 1272.947 767.613 L 1272.947 723.583 L 1277.467 723.583 L 1277.467 746.193 L 1277.117 752.203 L 1277.587 752.203 L 1281.877 746.433 L 1289.547 736.913 L 1295.027 736.913 L 1284.847 749.113 L 1295.917 767.613 L 1290.497 767.613 L 1281.517 751.783 L 1277.467 756.543 L 1277.467 767.613 L 1272.947 767.613 ZM 1311.262 768.323 C 1309.482 768.323 1307.818 768.026 1306.272 767.433 C 1304.725 766.84 1303.395 765.89 1302.282 764.583 C 1301.168 763.27 1300.295 761.603 1299.662 759.583 C 1299.028 757.556 1298.712 755.116 1298.712 752.263 C 1298.712 749.403 1299.028 746.963 1299.662 744.943 C 1300.295 742.923 1301.168 741.256 1302.282 739.943 C 1303.395 738.636 1304.725 737.686 1306.272 737.093 C 1307.818 736.493 1309.482 736.193 1311.262 736.193 C 1313.048 736.193 1314.685 736.493 1316.172 737.093 C 1317.658 737.686 1318.918 738.636 1319.952 739.943 C 1320.985 741.256 1321.788 742.923 1322.362 744.943 C 1322.935 746.963 1323.222 749.403 1323.222 752.263 L 1323.222 753.393 L 1303.532 753.393 L 1303.532 755.353 C 1303.532 758.366 1304.215 760.62 1305.582 762.113 C 1306.948 763.6 1308.842 764.343 1311.262 764.343 C 1313.328 764.343 1315.015 763.896 1316.322 763.003 C 1317.635 762.11 1318.668 760.77 1319.422 758.983 L 1322.512 761.243 C 1321.558 763.35 1320.158 765.056 1318.312 766.363 C 1316.472 767.67 1314.122 768.323 1311.262 768.323 Z M 1311.262 740.003 C 1308.808 740.003 1306.905 740.776 1305.552 742.323 C 1304.205 743.87 1303.532 746.15 1303.532 749.163 L 1303.532 749.943 L 1318.402 749.943 L 1318.402 749.163 C 1318.402 743.056 1316.022 740.003 1311.262 740.003 ZM 1347.852 767.613 L 1347.852 762.613 L 1347.262 762.613 C 1346.669 764.64 1345.706 766.1 1344.372 766.993 C 1343.046 767.88 1341.429 768.323 1339.522 768.323 C 1337.702 768.323 1336.096 767.946 1334.702 767.193 C 1333.316 766.44 1332.146 765.37 1331.192 763.983 C 1330.246 762.596 1329.532 760.91 1329.052 758.923 C 1328.579 756.943 1328.342 754.723 1328.342 752.263 C 1328.342 749.803 1328.579 747.58 1329.052 745.593 C 1329.532 743.613 1330.246 741.93 1331.192 740.543 C 1332.146 739.15 1333.316 738.076 1334.702 737.323 C 1336.096 736.57 1337.702 736.193 1339.522 736.193 C 1341.429 736.193 1343.046 736.64 1344.372 737.533 C 1345.706 738.426 1346.669 739.886 1347.262 741.913 L 1347.852 741.913 L 1347.852 723.583 L 1352.382 723.583 L 1352.382 767.613 L 1347.852 767.613 Z M 1340.892 764.283 C 1341.846 764.283 1342.749 764.143 1343.602 763.863 C 1344.456 763.583 1345.189 763.186 1345.802 762.673 C 1346.416 762.16 1346.912 761.546 1347.292 760.833 C 1347.666 760.12 1347.852 759.326 1347.852 758.453 L 1347.852 746.073 C 1347.852 745.2 1347.666 744.406 1347.292 743.693 C 1346.912 742.98 1346.416 742.366 1345.802 741.853 C 1345.189 741.333 1344.456 740.936 1343.602 740.663 C 1342.749 740.383 1341.846 740.243 1340.892 740.243 C 1338.392 740.243 1336.489 741.026 1335.182 742.593 C 1333.876 744.16 1333.222 746.35 1333.222 749.163 L 1333.222 755.353 C 1333.222 758.173 1333.876 760.366 1335.182 761.933 C 1336.489 763.5 1338.392 764.283 1340.892 764.283 ZM 1378.552 767.613 L 1374.032 767.613 L 1374.032 736.913 L 1378.552 736.913 L 1378.552 741.913 L 1379.152 741.913 C 1379.745 740.006 1380.669 738.576 1381.922 737.623 C 1383.169 736.67 1384.862 736.193 1387.002 736.193 C 1389.742 736.193 1391.895 737.126 1393.462 738.993 C 1395.029 740.86 1395.812 743.736 1395.812 747.623 L 1395.812 767.613 L 1391.292 767.613 L 1391.292 747.923 C 1391.292 745.463 1390.785 743.576 1389.772 742.263 C 1388.759 740.956 1387.202 740.303 1385.102 740.303 C 1383.275 740.303 1381.729 740.86 1380.462 741.973 C 1379.189 743.08 1378.552 744.646 1378.552 746.673 L 1378.552 767.613 ZM 1415.023 768.323 C 1413.243 768.323 1411.58 768.026 1410.033 767.433 C 1408.487 766.84 1407.157 765.89 1406.043 764.583 C 1404.93 763.27 1404.057 761.603 1403.423 759.583 C 1402.79 757.556 1402.473 755.116 1402.473 752.263 C 1402.473 749.403 1402.79 746.963 1403.423 744.943 C 1404.057 742.923 1404.93 741.256 1406.043 739.943 C 1407.157 738.636 1408.487 737.686 1410.033 737.093 C 1411.58 736.493 1413.243 736.193 1415.023 736.193 C 1416.81 736.193 1418.477 736.493 1420.023 737.093 C 1421.57 737.686 1422.9 738.636 1424.013 739.943 C 1425.12 741.256 1425.993 742.923 1426.633 744.943 C 1427.267 746.963 1427.583 749.403 1427.583 752.263 C 1427.583 755.116 1427.267 757.556 1426.633 759.583 C 1425.993 761.603 1425.12 763.27 1424.013 764.583 C 1422.9 765.89 1421.57 766.84 1420.023 767.433 C 1418.477 768.026 1416.81 768.323 1415.023 768.323 Z M 1415.023 764.283 C 1417.483 764.283 1419.38 763.55 1420.713 762.083 C 1422.04 760.61 1422.703 758.366 1422.703 755.353 L 1422.703 749.163 C 1422.703 746.15 1422.04 743.91 1420.713 742.443 C 1419.38 740.976 1417.483 740.243 1415.023 740.243 C 1412.57 740.243 1410.677 740.976 1409.343 742.443 C 1408.017 743.91 1407.353 746.15 1407.353 749.163 L 1407.353 755.353 C 1407.353 758.366 1408.017 760.61 1409.343 762.083 C 1410.677 763.55 1412.57 764.283 1415.023 764.283 ZM 1438.702 767.613 L 1431.332 736.913 L 1435.732 736.913 L 1438.702 750.243 L 1441.322 763.623 L 1441.922 763.623 L 1444.952 750.243 L 1448.052 736.913 L 1453.282 736.913 L 1456.382 750.243 L 1459.412 763.623 L 1460.012 763.623 L 1462.622 750.243 L 1465.602 736.913 L 1469.882 736.913 L 1462.502 767.613 L 1456.792 767.613 L 1453.042 752.733 L 1450.962 741.493 L 1450.372 741.493 L 1448.172 752.733 L 1444.422 767.613 L 1438.702 767.613 ZM 1489.874 767.613 L 1489.874 740.893 L 1485.414 740.893 L 1485.414 736.913 L 1489.874 736.913 L 1489.874 729.413 C 1489.874 727.393 1490.34 725.916 1491.274 724.983 C 1492.207 724.05 1493.684 723.583 1495.704 723.583 L 1500.284 723.583 L 1500.284 727.573 L 1494.394 727.573 L 1494.394 736.913 L 1500.284 736.913 L 1500.284 740.893 L 1494.394 740.893 L 1494.394 767.613 L 1489.874 767.613 ZM 1516.048 768.323 C 1514.268 768.323 1512.605 768.026 1511.058 767.433 C 1509.512 766.84 1508.182 765.89 1507.068 764.583 C 1505.955 763.27 1505.082 761.603 1504.448 759.583 C 1503.815 757.556 1503.498 755.116 1503.498 752.263 C 1503.498 749.403 1503.815 746.963 1504.448 744.943 C 1505.082 742.923 1505.955 741.256 1507.068 739.943 C 1508.182 738.636 1509.512 737.686 1511.058 737.093 C 1512.605 736.493 1514.268 736.193 1516.048 736.193 C 1517.835 736.193 1519.502 736.493 1521.048 737.093 C 1522.595 737.686 1523.925 738.636 1525.038 739.943 C 1526.145 741.256 1527.018 742.923 1527.658 744.943 C 1528.292 746.963 1528.608 749.403 1528.608 752.263 C 1528.608 755.116 1528.292 757.556 1527.658 759.583 C 1527.018 761.603 1526.145 763.27 1525.038 764.583 C 1523.925 765.89 1522.595 766.84 1521.048 767.433 C 1519.502 768.026 1517.835 768.323 1516.048 768.323 Z M 1516.048 764.283 C 1518.508 764.283 1520.405 763.55 1521.738 762.083 C 1523.065 760.61 1523.728 758.366 1523.728 755.353 L 1523.728 749.163 C 1523.728 746.15 1523.065 743.91 1521.738 742.443 C 1520.405 740.976 1518.508 740.243 1516.048 740.243 C 1513.595 740.243 1511.702 740.976 1510.368 742.443 C 1509.042 743.91 1508.378 746.15 1508.378 749.163 L 1508.378 755.353 C 1508.378 758.366 1509.042 760.61 1510.368 762.083 C 1511.702 763.55 1513.595 764.283 1516.048 764.283 ZM 1540.084 767.613 L 1535.564 767.613 L 1535.564 736.913 L 1540.084 736.913 L 1540.084 742.623 L 1540.684 742.623 C 1541.198 740.836 1542.081 739.44 1543.334 738.433 C 1544.581 737.42 1546.218 736.913 1548.244 736.913 L 1549.904 736.913 L 1549.904 741.493 L 1546.934 741.493 C 1544.788 741.493 1543.111 741.97 1541.904 742.923 C 1540.691 743.876 1540.084 745.303 1540.084 747.203 L 1540.084 767.613 ZM 1576.441 768.323 C 1573.901 768.323 1571.731 767.81 1569.931 766.783 C 1568.124 765.75 1566.584 764.32 1565.311 762.493 L 1568.471 759.873 C 1569.537 761.386 1570.697 762.54 1571.951 763.333 C 1573.197 764.126 1574.694 764.523 1576.441 764.523 C 1578.227 764.523 1579.644 764.076 1580.691 763.183 C 1581.744 762.29 1582.271 761.01 1582.271 759.343 C 1582.271 757.996 1581.934 756.906 1581.261 756.073 C 1580.587 755.24 1579.337 754.663 1577.511 754.343 L 1575.191 753.923 C 1572.217 753.37 1570.007 752.44 1568.561 751.133 C 1567.114 749.82 1566.391 747.836 1566.391 745.183 C 1566.391 743.636 1566.627 742.296 1567.101 741.163 C 1567.574 740.036 1568.247 739.106 1569.121 738.373 C 1569.994 737.633 1571.037 737.096 1572.251 736.763 C 1573.457 736.423 1574.774 736.253 1576.201 736.253 C 1578.501 736.253 1580.434 736.66 1582.001 737.473 C 1583.567 738.286 1584.927 739.466 1586.081 741.013 L 1583.161 743.693 C 1582.487 742.74 1581.597 741.896 1580.491 741.163 C 1579.377 740.43 1577.947 740.063 1576.201 740.063 C 1572.594 740.063 1570.791 741.71 1570.791 745.003 C 1570.791 746.51 1571.177 747.61 1571.951 748.303 C 1572.724 748.996 1573.984 749.503 1575.731 749.823 L 1578.051 750.243 C 1581.184 750.796 1583.404 751.766 1584.711 753.153 C 1586.017 754.54 1586.671 756.423 1586.671 758.803 C 1586.671 761.783 1585.811 764.116 1584.091 765.803 C 1582.364 767.483 1579.814 768.323 1576.441 768.323 ZM 1604.519 768.323 C 1602.739 768.323 1601.076 768.026 1599.529 767.433 C 1597.983 766.84 1596.653 765.89 1595.539 764.583 C 1594.426 763.27 1593.553 761.603 1592.919 759.583 C 1592.286 757.556 1591.969 755.116 1591.969 752.263 C 1591.969 749.403 1592.286 746.963 1592.919 744.943 C 1593.553 742.923 1594.426 741.256 1595.539 739.943 C 1596.653 738.636 1597.983 737.686 1599.529 737.093 C 1601.076 736.493 1602.739 736.193 1604.519 736.193 C 1606.306 736.193 1607.943 736.493 1609.429 737.093 C 1610.916 737.686 1612.176 738.636 1613.209 739.943 C 1614.243 741.256 1615.046 742.923 1615.619 744.943 C 1616.193 746.963 1616.479 749.403 1616.479 752.263 L 1616.479 753.393 L 1596.789 753.393 L 1596.789 755.353 C 1596.789 758.366 1597.473 760.62 1598.839 762.113 C 1600.206 763.6 1602.099 764.343 1604.519 764.343 C 1606.586 764.343 1608.273 763.896 1609.579 763.003 C 1610.893 762.11 1611.926 760.77 1612.679 758.983 L 1615.769 761.243 C 1614.816 763.35 1613.416 765.056 1611.569 766.363 C 1609.729 767.67 1607.379 768.323 1604.519 768.323 Z M 1604.519 740.003 C 1602.066 740.003 1600.163 740.776 1598.809 742.323 C 1597.463 743.87 1596.789 746.15 1596.789 749.163 L 1596.789 749.943 L 1611.659 749.943 L 1611.659 749.163 C 1611.659 743.056 1609.279 740.003 1604.519 740.003 ZM 1633.62 768.323 C 1629.813 768.323 1626.827 767.076 1624.66 764.583 C 1622.5 762.083 1621.42 757.976 1621.42 752.263 C 1621.42 746.55 1622.5 742.443 1624.66 739.943 C 1626.827 737.443 1629.813 736.193 1633.62 736.193 C 1636.513 736.193 1638.823 736.86 1640.55 738.193 C 1642.277 739.52 1643.537 741.213 1644.33 743.273 L 1640.58 745.183 C 1640.067 743.596 1639.253 742.376 1638.14 741.523 C 1637.027 740.67 1635.52 740.243 1633.62 740.243 C 1631.12 740.243 1629.273 740.976 1628.08 742.443 C 1626.893 743.91 1626.3 746.15 1626.3 749.163 L 1626.3 755.353 C 1626.3 758.366 1626.893 760.61 1628.08 762.083 C 1629.273 763.55 1631.12 764.283 1633.62 764.283 C 1635.6 764.283 1637.197 763.846 1638.41 762.973 C 1639.617 762.1 1640.577 760.77 1641.29 758.983 L 1644.62 761.303 C 1643.713 763.45 1642.337 765.156 1640.49 766.423 C 1638.643 767.69 1636.353 768.323 1633.62 768.323 ZM 1667.471 767.613 L 1667.471 762.613 L 1666.871 762.613 C 1666.278 764.52 1665.358 765.95 1664.111 766.903 C 1662.858 767.85 1661.161 768.323 1659.021 768.323 C 1656.288 768.323 1654.135 767.393 1652.561 765.533 C 1650.995 763.666 1650.211 760.79 1650.211 756.903 L 1650.211 736.913 L 1654.741 736.913 L 1654.741 756.603 C 1654.741 759.063 1655.245 760.946 1656.251 762.253 C 1657.265 763.566 1658.821 764.223 1660.921 764.223 C 1662.748 764.223 1664.298 763.666 1665.571 762.553 C 1666.838 761.446 1667.471 759.88 1667.471 757.853 L 1667.471 736.913 L 1671.991 736.913 L 1671.991 767.613 L 1667.471 767.613 ZM 1685.553 767.613 L 1681.033 767.613 L 1681.033 736.913 L 1685.553 736.913 L 1685.553 742.623 L 1686.153 742.623 C 1686.666 740.836 1687.55 739.44 1688.803 738.433 C 1690.05 737.42 1691.686 736.913 1693.713 736.913 L 1695.373 736.913 L 1695.373 741.493 L 1692.403 741.493 C 1690.256 741.493 1688.58 741.97 1687.373 742.923 C 1686.16 743.876 1685.553 745.303 1685.553 747.203 L 1685.553 767.613 ZM 1703.046 729.473 C 1701.186 729.473 1700.256 728.66 1700.256 727.033 L 1700.256 726.083 C 1700.256 724.456 1701.186 723.643 1703.046 723.643 C 1704.913 723.643 1705.846 724.456 1705.846 726.083 L 1705.846 727.033 C 1705.846 728.66 1704.913 729.473 1703.046 729.473 Z M 1700.786 767.613 L 1700.786 736.913 L 1705.306 736.913 L 1705.306 767.613 L 1700.786 767.613 ZM 1726.071 767.613 L 1720.541 767.613 C 1718.914 767.613 1717.734 767.246 1717.001 766.513 C 1716.268 765.78 1715.901 764.6 1715.901 762.973 L 1715.901 740.893 L 1711.381 740.893 L 1711.381 736.913 L 1714.051 736.913 C 1714.964 736.913 1715.571 736.683 1715.871 736.223 C 1716.171 735.77 1716.321 735.086 1716.321 734.173 L 1716.321 728.463 L 1720.421 728.463 L 1720.421 736.913 L 1726.371 736.913 L 1726.371 740.893 L 1720.421 740.893 L 1720.421 763.623 L 1726.071 763.623 L 1726.071 767.613 ZM 1745.528 752.383 L 1750.228 736.913 L 1754.638 736.913 L 1742.498 775.463 C 1742.258 776.256 1741.998 776.923 1741.718 777.463 C 1741.445 777.996 1741.098 778.413 1740.678 778.713 C 1740.265 779.006 1739.768 779.213 1739.188 779.333 C 1738.615 779.453 1737.892 779.513 1737.018 779.513 L 1733.688 779.513 L 1733.688 775.523 L 1738.388 775.523 L 1740.178 769.283 L 1729.998 736.913 L 1734.518 736.913 L 1739.218 752.383 L 1742.078 763.623 L 1742.678 763.623 L 1745.528 752.383 ZM 1777.534 767.613 L 1773.014 767.613 L 1773.014 736.913 L 1777.534 736.913 L 1777.534 742.623 L 1778.134 742.623 C 1778.648 740.836 1779.531 739.44 1780.784 738.433 C 1782.031 737.42 1783.668 736.913 1785.694 736.913 L 1787.354 736.913 L 1787.354 741.493 L 1784.384 741.493 C 1782.238 741.493 1780.561 741.97 1779.354 742.923 C 1778.141 743.876 1777.534 745.303 1777.534 747.203 L 1777.534 767.613 ZM 1803.118 768.323 C 1801.338 768.323 1799.675 768.026 1798.128 767.433 C 1796.582 766.84 1795.252 765.89 1794.138 764.583 C 1793.025 763.27 1792.152 761.603 1791.518 759.583 C 1790.885 757.556 1790.568 755.116 1790.568 752.263 C 1790.568 749.403 1790.885 746.963 1791.518 744.943 C 1792.152 742.923 1793.025 741.256 1794.138 739.943 C 1795.252 738.636 1796.582 737.686 1798.128 737.093 C 1799.675 736.493 1801.338 736.193 1803.118 736.193 C 1804.905 736.193 1806.542 736.493 1808.028 737.093 C 1809.515 737.686 1810.775 738.636 1811.808 739.943 C 1812.842 741.256 1813.645 742.923 1814.218 744.943 C 1814.792 746.963 1815.078 749.403 1815.078 752.263 L 1815.078 753.393 L 1795.388 753.393 L 1795.388 755.353 C 1795.388 758.366 1796.072 760.62 1797.438 762.113 C 1798.805 763.6 1800.698 764.343 1803.118 764.343 C 1805.185 764.343 1806.872 763.896 1808.178 763.003 C 1809.492 762.11 1810.525 760.77 1811.278 758.983 L 1814.368 761.243 C 1813.415 763.35 1812.015 765.056 1810.168 766.363 C 1808.328 767.67 1805.978 768.323 1803.118 768.323 Z M 1803.118 740.003 C 1800.665 740.003 1798.762 740.776 1797.408 742.323 C 1796.062 743.87 1795.388 746.15 1795.388 749.163 L 1795.388 749.943 L 1810.258 749.943 L 1810.258 749.163 C 1810.258 743.056 1807.878 740.003 1803.118 740.003 ZM 1844.709 767.613 L 1841.499 767.613 C 1838.566 767.613 1837.099 766.146 1837.099 763.213 L 1837.099 762.613 L 1836.499 762.613 C 1835.986 764.48 1835.042 765.9 1833.669 766.873 C 1832.302 767.84 1830.669 768.323 1828.769 768.323 C 1825.789 768.323 1823.566 767.57 1822.099 766.063 C 1820.632 764.556 1819.899 762.336 1819.899 759.403 C 1819.899 756.543 1820.842 754.283 1822.729 752.623 C 1824.609 750.956 1827.552 750.123 1831.559 750.123 L 1837.099 750.123 L 1837.099 746.733 C 1837.099 744.466 1836.592 742.8 1835.579 741.733 C 1834.566 740.66 1832.969 740.123 1830.789 740.123 C 1829.002 740.123 1827.566 740.51 1826.479 741.283 C 1825.386 742.056 1824.442 743.176 1823.649 744.643 L 1820.969 742.143 C 1821.762 740.476 1823.032 739.08 1824.779 737.953 C 1826.526 736.82 1828.589 736.253 1830.969 736.253 C 1834.456 736.253 1837.102 737.096 1838.909 738.783 C 1840.716 740.47 1841.619 742.96 1841.619 746.253 L 1841.619 763.623 L 1844.709 763.623 L 1844.709 767.613 Z M 1829.899 764.403 C 1830.926 764.403 1831.886 764.223 1832.779 763.863 C 1833.672 763.51 1834.436 763.043 1835.069 762.463 C 1835.709 761.89 1836.206 761.236 1836.559 760.503 C 1836.919 759.77 1837.099 759.006 1837.099 758.213 L 1837.099 753.573 L 1831.439 753.573 C 1829.059 753.573 1827.326 753.97 1826.239 754.763 C 1825.146 755.556 1824.599 756.706 1824.599 758.213 L 1824.599 759.873 C 1824.599 761.426 1825.076 762.57 1826.029 763.303 C 1826.982 764.036 1828.272 764.403 1829.899 764.403 ZM 1859.346 768.323 C 1856.806 768.323 1854.636 767.81 1852.836 766.783 C 1851.029 765.75 1849.489 764.32 1848.216 762.493 L 1851.376 759.873 C 1852.442 761.386 1853.602 762.54 1854.856 763.333 C 1856.102 764.126 1857.599 764.523 1859.346 764.523 C 1861.132 764.523 1862.549 764.076 1863.596 763.183 C 1864.649 762.29 1865.176 761.01 1865.176 759.343 C 1865.176 757.996 1864.839 756.906 1864.166 756.073 C 1863.492 755.24 1862.242 754.663 1860.416 754.343 L 1858.096 753.923 C 1855.122 753.37 1852.912 752.44 1851.466 751.133 C 1850.019 749.82 1849.296 747.836 1849.296 745.183 C 1849.296 743.636 1849.532 742.296 1850.006 741.163 C 1850.479 740.036 1851.152 739.106 1852.026 738.373 C 1852.899 737.633 1853.942 737.096 1855.156 736.763 C 1856.362 736.423 1857.679 736.253 1859.106 736.253 C 1861.406 736.253 1863.339 736.66 1864.906 737.473 C 1866.472 738.286 1867.832 739.466 1868.986 741.013 L 1866.066 743.693 C 1865.392 742.74 1864.502 741.896 1863.396 741.163 C 1862.282 740.43 1860.852 740.063 1859.106 740.063 C 1855.499 740.063 1853.696 741.71 1853.696 745.003 C 1853.696 746.51 1854.082 747.61 1854.856 748.303 C 1855.629 748.996 1856.889 749.503 1858.636 749.823 L 1860.956 750.243 C 1864.089 750.796 1866.309 751.766 1867.616 753.153 C 1868.922 754.54 1869.576 756.423 1869.576 758.803 C 1869.576 761.783 1868.716 764.116 1866.996 765.803 C 1865.269 767.483 1862.719 768.323 1859.346 768.323 ZM 1887.424 768.323 C 1885.644 768.323 1883.981 768.026 1882.434 767.433 C 1880.888 766.84 1879.558 765.89 1878.444 764.583 C 1877.331 763.27 1876.458 761.603 1875.824 759.583 C 1875.191 757.556 1874.874 755.116 1874.874 752.263 C 1874.874 749.403 1875.191 746.963 1875.824 744.943 C 1876.458 742.923 1877.331 741.256 1878.444 739.943 C 1879.558 738.636 1880.888 737.686 1882.434 737.093 C 1883.981 736.493 1885.644 736.193 1887.424 736.193 C 1889.211 736.193 1890.878 736.493 1892.424 737.093 C 1893.971 737.686 1895.301 738.636 1896.414 739.943 C 1897.521 741.256 1898.394 742.923 1899.034 744.943 C 1899.668 746.963 1899.984 749.403 1899.984 752.263 C 1899.984 755.116 1899.668 757.556 1899.034 759.583 C 1898.394 761.603 1897.521 763.27 1896.414 764.583 C 1895.301 765.89 1893.971 766.84 1892.424 767.433 C 1890.878 768.026 1889.211 768.323 1887.424 768.323 Z M 1887.424 764.283 C 1889.884 764.283 1891.781 763.55 1893.114 762.083 C 1894.441 760.61 1895.104 758.366 1895.104 755.353 L 1895.104 749.163 C 1895.104 746.15 1894.441 743.91 1893.114 742.443 C 1891.781 740.976 1889.884 740.243 1887.424 740.243 C 1884.971 740.243 1883.078 740.976 1881.744 742.443 C 1880.418 743.91 1879.754 746.15 1879.754 749.163 L 1879.754 755.353 C 1879.754 758.366 1880.418 760.61 1881.744 762.083 C 1883.078 763.55 1884.971 764.283 1887.424 764.283 ZM 1911.461 767.613 L 1906.941 767.613 L 1906.941 736.913 L 1911.461 736.913 L 1911.461 741.913 L 1912.061 741.913 C 1912.654 740.006 1913.577 738.576 1914.831 737.623 C 1916.077 736.67 1917.771 736.193 1919.911 736.193 C 1922.651 736.193 1924.804 737.126 1926.371 738.993 C 1927.937 740.86 1928.721 743.736 1928.721 747.623 L 1928.721 767.613 L 1924.201 767.613 L 1924.201 747.923 C 1924.201 745.463 1923.694 743.576 1922.681 742.263 C 1921.667 740.956 1920.111 740.303 1918.011 740.303 C 1916.184 740.303 1914.637 740.86 1913.371 741.973 C 1912.097 743.08 1911.461 744.646 1911.461 746.673 L 1911.461 767.613 ZM 1945.972 768.323 C 1943.432 768.323 1941.262 767.81 1939.462 766.783 C 1937.656 765.75 1936.116 764.32 1934.842 762.493 L 1938.002 759.873 C 1939.069 761.386 1940.229 762.54 1941.482 763.333 C 1942.729 764.126 1944.226 764.523 1945.972 764.523 C 1947.759 764.523 1949.176 764.076 1950.222 763.183 C 1951.276 762.29 1951.802 761.01 1951.802 759.343 C 1951.802 757.996 1951.466 756.906 1950.792 756.073 C 1950.119 755.24 1948.869 754.663 1947.042 754.343 L 1944.722 753.923 C 1941.749 753.37 1939.539 752.44 1938.092 751.133 C 1936.646 749.82 1935.922 747.836 1935.922 745.183 C 1935.922 743.636 1936.159 742.296 1936.632 741.163 C 1937.106 740.036 1937.779 739.106 1938.652 738.373 C 1939.526 737.633 1940.569 737.096 1941.782 736.763 C 1942.989 736.423 1944.306 736.253 1945.732 736.253 C 1948.032 736.253 1949.966 736.66 1951.532 737.473 C 1953.099 738.286 1954.459 739.466 1955.612 741.013 L 1952.692 743.693 C 1952.019 742.74 1951.129 741.896 1950.022 741.163 C 1948.909 740.43 1947.479 740.063 1945.732 740.063 C 1942.126 740.063 1940.322 741.71 1940.322 745.003 C 1940.322 746.51 1940.709 747.61 1941.482 748.303 C 1942.256 748.996 1943.516 749.503 1945.262 749.823 L 1947.582 750.243 C 1950.716 750.796 1952.936 751.766 1954.242 753.153 C 1955.549 754.54 1956.202 756.423 1956.202 758.803 C 1956.202 761.783 1955.342 764.116 1953.622 765.803 C 1951.896 767.483 1949.346 768.323 1945.972 768.323 ZM 1966.084 768.323 C 1963.744 768.323 1962.574 767.313 1962.574 765.293 L 1962.574 764.343 C 1962.574 762.316 1963.744 761.303 1966.084 761.303 C 1968.424 761.303 1969.594 762.316 1969.594 764.343 L 1969.594 765.293 C 1969.594 767.313 1968.424 768.323 1966.084 768.323 Z" transform="matrix(1, 0, 0, 1, 0, 0)" style="fill: rgb(218, 25, 21); white-space: pre;"/>
</svg>