<?xml version="1.0" encoding="utf-8"?>
<!-- generated at drububu.com  -->
<!DOCTYPE svg PUBLIC "-//W3C//DTD SVG 1.1//EN" "http://www.w3.org/Graphics/SVG/1.1/DTD/svg11.dtd">
<svg version="1.1" preserveAspectRatio="xMinYMin meet" xmlns="http://www.w3.org/2000/svg" xmlns:xlink="http://www.w3.org/1999/xlink" x="0px" y="0px" width="46px" height="14px" viewBox="0 0 46 14">
<path d="M0 0h45v1h-44v12h-1v-13z" fill="rgb(255,255,255)"/>
<path d="M45 0h1v14h-46v-1h45v-13z" fill="rgb(0,0,0)"/>
<path d="M1 1h43v11h-43v-11z" fill="rgb(214,214,206)"/>
<path d="M44 1h1v12h-44v-1h43v-11z" fill="rgb(132,132,132)"/>
<path d="M4 3h3v1h-3v-1z" fill="rgb(0,0,0)"/>
<path d="M11 3h3v1h-3v-1z" fill="rgb(0,0,0)"/>
<path d="M17 3h1v1h1v1h-1v5h-1v-7z" fill="rgb(0,0,0)"/>
<path d="M21 3h1v7h-1v-3h-1v-1h1v-3z" fill="rgb(0,0,0)"/>
<path d="M25 3h3v1h-3v-1z" fill="rgb(0,0,0)"/>
<path d="M31 3h5v1h-4v2h2v1h-2v2h4v1h-5v-7z" fill="rgb(0,0,0)"/>
<path d="M38 3h1v6h3v1h-4v-7z" fill="rgb(0,0,0)"/>
<path d="M3 4h1v5h-1v-5z" fill="rgb(0,0,0)"/>
<path d="M7 4h1v1h-1v-1z" fill="rgb(0,0,0)"/>
<path d="M10 4h1v2h3v-2h1v6h-1v-3h-3v3h-1v-6z" fill="rgb(0,0,0)"/>
<path d="M11 4h3v2h-3v-2z" fill="rgb(214,214,206)"/>
<path d="M24 4h1v5h-1v-5z" fill="rgb(0,0,0)"/>
<path d="M28 4h1v1h-1v-1z" fill="rgb(0,0,0)"/>
<path d="M19 5h1v1h-1v-1z" fill="rgb(0,0,0)"/>
<path d="M7 8h1v1h-1v-1z" fill="rgb(0,0,0)"/>
<path d="M28 8h1v1h-1v-1z" fill="rgb(0,0,0)"/>
<path d="M4 9h3v1h-3v-1z" fill="rgb(0,0,0)"/>
<path d="M25 9h3v1h-3v-1z" fill="rgb(0,0,0)"/>
</svg>