<?xml version="1.0" encoding="UTF-8" standalone="no"?>
<!-- generated at drububu.com  -->

<svg
   xmlns:dc="http://purl.org/dc/elements/1.1/"
   xmlns:cc="http://creativecommons.org/ns#"
   xmlns:rdf="http://www.w3.org/1999/02/22-rdf-syntax-ns#"
   xmlns:svg="http://www.w3.org/2000/svg"
   xmlns="http://www.w3.org/2000/svg"
   xmlns:sodipodi="http://sodipodi.sourceforge.net/DTD/sodipodi-0.dtd"
   xmlns:inkscape="http://www.inkscape.org/namespaces/inkscape"
   version="1.1"
   preserveAspectRatio="xMinYMin meet"
   x="0px"
   y="0px"
   width="16px"
   height="16px"
   viewBox="0 0 16 16"
   id="svg8523"
   inkscape:version="0.91 r13725"
   sodipodi:docname="chart_organisation.svg">
  <metadata
     id="metadata8687">
    <rdf:RDF>
      <cc:Work
         rdf:about="">
        <dc:format>image/svg+xml</dc:format>
        <dc:type
           rdf:resource="http://purl.org/dc/dcmitype/StillImage" />
      </cc:Work>
    </rdf:RDF>
  </metadata>
  <defs
     id="defs8685" />
  <sodipodi:namedview
     pagecolor="#ffffff"
     bordercolor="#666666"
     borderopacity="1"
     objecttolerance="10"
     gridtolerance="10"
     guidetolerance="10"
     inkscape:pageopacity="0"
     inkscape:pageshadow="2"
     inkscape:window-width="640"
     inkscape:window-height="480"
     id="namedview8683"
     showgrid="false"
     inkscape:zoom="14.75"
     inkscape:cx="8"
     inkscape:cy="8"
     inkscape:window-x="0"
     inkscape:window-y="0"
     inkscape:window-maximized="0"
     inkscape:current-layer="svg8523" />
  <path
     d="M6 1h1v1h-1v-1z"
     fill="rgb(149,192,244)"
     id="path8527" />
  <path
     d="M7 1h1v1h-1v-1z"
     fill="rgb(139,186,240)"
     id="path8529" />
  <path
     d="M8 1h1v1h-1v-1z"
     fill="rgb(127,178,234)"
     id="path8531" />
  <path
     d="M9 1h1v1h-1v-1z"
     fill="rgb(112,168,226)"
     id="path8533" />
  <path
     d="M6 2h1v1h-1v-1z"
     fill="rgb(139,185,240)"
     id="path8535" />
  <path
     d="M7 2h1v1h-1v-1z"
     fill="rgb(201,212,240)"
     id="path8537" />
  <path
     d="M8 2h1v1h-1v-1z"
     fill="rgb(194,205,238)"
     id="path8539" />
  <path
     d="M9 2h1v1h-1v-1z"
     fill="rgb(96,156,216)"
     id="path8541" />
  <path
     d="M6 3h1v1h-1v-1z"
     fill="rgb(125,176,233)"
     id="path8543" />
  <path
     d="M7 3h1v1h-1v-1z"
     fill="rgb(192,203,237)"
     id="path8545" />
  <path
     d="M8 3h1v1h-1v-1z"
     fill="rgb(184,195,234)"
     id="path8547" />
  <path
     d="M9 3h1v1h-1v-1z"
     fill="rgb(81,141,206)"
     id="path8549" />
  <path
     d="M6 4h1v1h-1v-1z"
     fill="rgb(109,164,225)"
     id="path8551" />
  <path
     d="M7 4h1v1h-1v-1z"
     fill="rgb(95,153,215)"
     id="path8553" />
  <path
     d="M8 4h1v1h-1v-1z"
     fill="rgb(80,140,205)"
     id="path8555" />
  <path
     d="M9 4h1v1h-1v-1z"
     fill="rgb(66,126,196)"
     id="path8557" />
  <path
     d="M7 6h1v1h-1v-1z"
     fill="rgb(182,182,182)"
     id="path8559" />
  <path
     d="M8 6h1v1h-1v-1z"
     fill="rgb(177,177,177)"
     id="path8561" />
  <path
     d="M2 7h1v1h-1v-1z"
     fill="rgb(190,190,190)"
     id="path8563" />
  <path
     d="M3 7h1v1h-1v-1z"
     fill="rgb(188,188,188)"
     id="path8565" />
  <path
     d="M4 7h1v1h-1v-1z"
     fill="rgb(185,185,185)"
     id="path8567" />
  <path
     d="M5 7h1v1h-1v-1z"
     fill="rgb(180,180,180)"
     id="path8569" />
  <path
     d="M6 7h1v1h-1v-1z"
     fill="rgb(172,172,172)"
     id="path8571" />
  <path
     d="M7 7h1v1h-1v-1z"
     fill="rgb(162,162,162)"
     id="path8573" />
  <path
     d="M8 7h1v1h-1v-1z"
     fill="rgb(153,153,153)"
     id="path8575" />
  <path
     d="M9 7h1v1h-1v-1z"
     fill="rgb(142,142,142)"
     id="path8577" />
  <path
     d="M10 7h1v1h-1v-1z"
     fill="rgb(130,130,130)"
     id="path8579" />
  <path
     d="M11 7h1v1h-1v-1z"
     fill="rgb(119,119,119)"
     id="path8581" />
  <path
     d="M12 7h1v1h-1v-1z"
     fill="rgb(109,109,109)"
     id="path8583" />
  <path
     d="M13 7h1v1h-1v-1z"
     fill="rgb(100,100,100)"
     id="path8585" />
  <path
     d="M2 8h1v1h-1v-1z"
     fill="rgb(184,184,184)"
     id="path8587" />
  <path
     d="M13 8h1v1h-1v-1z"
     fill="rgb(93,93,93)"
     id="path8589" />
  <path
     d="M0 10h1v1h-1v-1z"
     fill="rgb(112,193,99)"
     id="path8591" />
  <path
     d="M1 10h1v1h-1v-1z"
     fill="rgb(109,191,96)"
     id="path8593" />
  <path
     d="M2 10h1v1h-1v-1z"
     fill="rgb(106,189,94)"
     id="path8595" />
  <path
     d="M3 10h1v1h-1v-1z"
     fill="rgb(104,187,91)"
     id="path8597" />
  <path
     d="M6 10h1v1h-1v-1z"
     fill="rgb(95,181,84)"
     id="path8599" />
  <path
     d="M7 10h1v1h-1v-1z"
     fill="rgb(88,177,77)"
     id="path8601" />
  <path
     d="M8 10h1v1h-1v-1z"
     fill="rgb(80,170,71)"
     id="path8603" />
  <path
     d="M9 10h1v1h-1v-1z"
     fill="rgb(72,163,63)"
     id="path8605" />
  <path
     d="M12 10h1v1h-1v-1z"
     fill="rgb(48,143,44)"
     id="path8607" />
  <path
     d="M13 10h1v1h-1v-1z"
     fill="rgb(42,136,39)"
     id="path8609" />
  <path
     d="M14 10h1v1h-1v-1z"
     fill="rgb(38,131,35)"
     id="path8611" />
  <path
     d="M15 10h1v1h-1v-1z"
     fill="rgb(38,129,34)"
     id="path8613" />
  <path
     d="M0 11h1v1h-1v-1z"
     fill="rgb(108,190,95)"
     id="path8615" />
  <path
     d="M1 11h1v1h-1v-1z"
     fill="rgb(177,218,172)"
     id="path8617" />
  <path
     d="M2 11h1v1h-1v-1z"
     fill="rgb(175,217,169)"
     id="path8619" />
  <path
     d="M3 11h1v1h-1v-1z"
     fill="rgb(99,184,87)"
     id="path8621" />
  <path
     d="M6 11h1v1h-1v-1z"
     fill="rgb(87,176,76)"
     id="path8623" />
  <path
     d="M7 11h1v1h-1v-1z"
     fill="rgb(150,204,142)"
     id="path8625" />
  <path
     d="M8 11h1v1h-1v-1z"
     fill="rgb(140,200,131)"
     id="path8627" />
  <path
     d="M9 11h1v1h-1v-1z"
     fill="rgb(63,156,56)"
     id="path8629" />
  <path
     d="M12 11h1v1h-1v-1z"
     fill="rgb(42,135,38)"
     id="path8631" />
  <path
     d="M13 11h1v1h-1v-1z"
     fill="rgb(90,175,83)"
     id="path8633" />
  <path
     d="M14 11h1v1h-1v-1z"
     fill="rgb(88,174,81)"
     id="path8635" />
  <path
     d="M15 11h1v1h-1v-1z"
     fill="rgb(36,127,33)"
     id="path8637" />
  <path
     d="M0 12h1v1h-1v-1z"
     fill="rgb(104,187,92)"
     id="path8639" />
  <path
     d="M1 12h1v1h-1v-1z"
     fill="rgb(174,216,168)"
     id="path8641" />
  <path
     d="M2 12h1v1h-1v-1z"
     fill="rgb(172,215,165)"
     id="path8643" />
  <path
     d="M3 12h1v1h-1v-1z"
     fill="rgb(95,181,84)"
     id="path8645" />
  <path
     d="M6 12h1v1h-1v-1z"
     fill="rgb(78,168,69)"
     id="path8647" />
  <path
     d="M7 12h1v1h-1v-1z"
     fill="rgb(136,198,127)"
     id="path8649" />
  <path
     d="M8 12h1v1h-1v-1z"
     fill="rgb(124,192,114)"
     id="path8651" />
  <path
     d="M9 12h1v1h-1v-1z"
     fill="rgb(54,148,48)"
     id="path8653" />
  <path
     d="M12 12h1v1h-1v-1z"
     fill="rgb(38,130,34)"
     id="path8655" />
  <path
     d="M13 12h1v1h-1v-1z"
     fill="rgb(87,173,80)"
     id="path8657" />
  <path
     d="M14 12h1v1h-1v-1z"
     fill="rgb(85,172,79)"
     id="path8659" />
  <path
     d="M15 12h1v2h-2v-1h1v-1z"
     fill="rgb(35,125,32)"
     id="path8661" />
  <path
     d="M0 13h1v1h-1v-1z"
     fill="rgb(100,184,88)"
     id="path8663" />
  <path
     d="M1 13h1v1h-1v-1z"
     fill="rgb(97,182,85)"
     id="path8665" />
  <path
     d="M2 13h1v1h-1v-1z"
     fill="rgb(94,180,83)"
     id="path8667" />
  <path
     d="M3 13h1v1h-1v-1z"
     fill="rgb(91,178,80)"
     id="path8669" />
  <path
     d="M6 13h1v1h-1v-1z"
     fill="rgb(69,161,61)"
     id="path8671" />
  <path
     d="M7 13h1v1h-1v-1z"
     fill="rgb(61,154,54)"
     id="path8673" />
  <path
     d="M8 13h1v1h-1v-1z"
     fill="rgb(54,147,48)"
     id="path8675" />
  <path
     d="M9 13h1v1h-1v-1z"
     fill="rgb(47,140,42)"
     id="path8677" />
  <path
     d="M12 13h1v1h-1v-1z"
     fill="rgb(36,127,33)"
     id="path8679" />
  <path
     d="M13 13h1v1h-1v-1z"
     fill="rgb(36,126,32)"
     id="path8681" />
</svg>
