<?xml version="1.0" encoding="UTF-8" standalone="no"?>
<!-- generated at drububu.com  -->

<svg
   xmlns:dc="http://purl.org/dc/elements/1.1/"
   xmlns:cc="http://creativecommons.org/ns#"
   xmlns:rdf="http://www.w3.org/1999/02/22-rdf-syntax-ns#"
   xmlns:svg="http://www.w3.org/2000/svg"
   xmlns="http://www.w3.org/2000/svg"
   xmlns:sodipodi="http://sodipodi.sourceforge.net/DTD/sodipodi-0.dtd"
   xmlns:inkscape="http://www.inkscape.org/namespaces/inkscape"
   version="1.1"
   preserveAspectRatio="xMinYMin meet"
   x="0px"
   y="0px"
   width="14px"
   height="13px"
   viewBox="0 0 14 13"
   id="svg4210"
   inkscape:version="0.91 r13725"
   sodipodi:docname="children.svg">
  <metadata
     id="metadata4238">
    <rdf:RDF>
      <cc:Work
         rdf:about="">
        <dc:format>image/svg+xml</dc:format>
        <dc:type
           rdf:resource="http://purl.org/dc/dcmitype/StillImage" />
        <dc:title></dc:title>
      </cc:Work>
    </rdf:RDF>
  </metadata>
  <defs
     id="defs4236" />
  <sodipodi:namedview
     pagecolor="#ffffff"
     bordercolor="#666666"
     borderopacity="1"
     objecttolerance="10"
     gridtolerance="10"
     guidetolerance="10"
     inkscape:pageopacity="0"
     inkscape:pageshadow="2"
     inkscape:window-width="2560"
     inkscape:window-height="1315"
     id="namedview4234"
     showgrid="true"
     inkscape:zoom="102.69366"
     inkscape:cx="5.4273615"
     inkscape:cy="4.1340191"
     inkscape:window-x="0"
     inkscape:window-y="1"
     inkscape:window-maximized="1"
     inkscape:current-layer="svg4210">
    <inkscape:grid
       type="xygrid"
       id="grid3552" />
  </sodipodi:namedview>
  <path
     d="M 6.8539345,7.8636722 6.8539345,9 9,9 l 0,0.6397051 -2.1460655,0 0,1.3602949 -0.7273444,0 0,-1.3602949 L 4,9.6397051 4,9 l 2.1265901,0 0,-1.1363278 z"
     id="path4222"
     inkscape:connector-curvature="0"
     style="fill:#404040"
     sodipodi:nodetypes="ccccccccccccc" />
  <path
     d="M 6.5385565,10.987279 4.513115,13 4,13 4,12.545311 6.4801303,10.013509"
     id="path4230"
     inkscape:connector-curvature="0"
     style="fill:#404040"
     sodipodi:nodetypes="ccccc" />
  <path
     d="M 6.4809189,10.032984 9,12.50636 9,13 8.4674096,13 6.5296074,10.987279"
     id="path4232"
     inkscape:connector-curvature="0"
     style="fill:#404040"
     sodipodi:nodetypes="ccccc" />
  <path
     style="fill:#404040;fill-opacity:1"
     d="M 6.5 2.9960938 A 2.5 2.5014915 0 0 0 4 5.4980469 A 2.5 2.5014915 0 0 0 6.5 8 A 2.5 2.5014915 0 0 0 9 5.4980469 A 2.5 2.5014915 0 0 0 6.5 2.9960938 z M 6.4804688 3.5742188 A 1.9237642 1.9426711 0 0 1 8.4042969 5.515625 A 1.9237642 1.9426711 0 0 1 6.4804688 7.4589844 A 1.9237642 1.9426711 0 0 1 4.5566406 5.515625 A 1.9237642 1.9426711 0 0 1 6.4804688 3.5742188 z "
     id="path3564" />
</svg>
