<?xml version="1.0" encoding="utf-8"?>
<!-- generated at drububu.com  -->
<!DOCTYPE svg PUBLIC "-//W3C//DTD SVG 1.1//EN" "http://www.w3.org/Graphics/SVG/1.1/DTD/svg11.dtd">
<svg version="1.1" preserveAspectRatio="xMinYMin meet" xmlns="http://www.w3.org/2000/svg" xmlns:xlink="http://www.w3.org/1999/xlink" x="0px" y="0px" width="18px" height="14px" viewBox="0 0 18 14">
<path d="M0 0h17v1h-16v12h-1v-13z" fill="rgb(255,255,255)"/>
<path d="M17 0h1v14h-18v-1h17v-13z" fill="rgb(0,0,0)"/>
<path d="M1 1h15v11h-15v-11z" fill="rgb(214,214,206)"/>
<path d="M16 1h1v12h-16v-1h15v-11z" fill="rgb(132,132,132)"/>
<path d="M4 3h3v1h-3v-1z" fill="rgb(0,0,0)"/>
<path d="M10 3h1v6h3v1h-4v-7z" fill="rgb(0,0,0)"/>
<path d="M3 4h1v5h-1v-5z" fill="rgb(0,0,0)"/>
<path d="M7 4h1v1h-1v-1z" fill="rgb(0,0,0)"/>
<path d="M7 8h1v1h-1v-1z" fill="rgb(0,0,0)"/>
<path d="M4 9h3v1h-3v-1z" fill="rgb(0,0,0)"/>
</svg>