<?xml version="1.0" encoding="utf-8"?>
<!-- generated at drububu.com  -->
<!DOCTYPE svg PUBLIC "-//W3C//DTD SVG 1.1//EN" "http://www.w3.org/Graphics/SVG/1.1/DTD/svg11.dtd">
<svg version="1.1" preserveAspectRatio="xMinYMin meet" xmlns="http://www.w3.org/2000/svg" xmlns:xlink="http://www.w3.org/1999/xlink" x="0px" y="0px" width="14px" height="14px" viewBox="0 0 14 14">
<path d="M0 0h13v1h-12v12h-1v-13z" fill="rgb(255,255,255)"/>
<path d="M13 0h1v14h-14v-1h13v-13z" fill="rgb(0,0,0)"/>
<path d="M1 1h11v11h-11v-11z" fill="rgb(214,214,206)"/>
<path d="M12 1h1v12h-12v-1h11v-11z" fill="rgb(132,132,132)"/>
<path d="M4 4h5v1h-1v1h-1v1h-1v-1h-1v-1h-1v-1z" fill="rgb(0,0,0)"/>
<path d="M4 7h5v1h-1v1h-1v1h-1v-1h-1v-1h-1v-1z" fill="rgb(132,132,132)"/>
</svg>