<?xml version="1.0" encoding="utf-8"?>
<!-- generated at drububu.com  -->
<!DOCTYPE svg PUBLIC "-//W3C//DTD SVG 1.1//EN" "http://www.w3.org/Graphics/SVG/1.1/DTD/svg11.dtd">
<svg version="1.1" preserveAspectRatio="xMinYMin meet" xmlns="http://www.w3.org/2000/svg" xmlns:xlink="http://www.w3.org/1999/xlink" x="0px" y="0px" width="47px" height="14px" viewBox="0 0 47 14">
<path d="M0 0h46v1h-45v12h-1v-13z" fill="rgb(255,255,255)"/>
<path d="M46 0h1v14h-47v-1h46v-13z" fill="rgb(0,0,0)"/>
<path d="M1 1h44v11h-44v-11z" fill="rgb(214,214,206)"/>
<path d="M45 1h1v12h-45v-1h44v-11z" fill="rgb(132,132,132)"/>
<path d="M3 3h5v1h-4v2h3v1h-3v2h4v1h-5v-7z" fill="rgb(0,0,0)"/>
<path d="M10 3h1v1h1v1h-1v5h-1v-7z" fill="rgb(0,0,0)"/>
<path d="M14 3h1v7h-1v-3h-1v-1h1v-3z" fill="rgb(0,0,0)"/>
<path d="M18 3h3v1h-3v-1z" fill="rgb(0,0,0)"/>
<path d="M25 3h3v1h-3v-1z" fill="rgb(0,0,0)"/>
<path d="M31 3h4v1h-3v5h3v1h-4v-7z" fill="rgb(0,0,0)"/>
<path d="M38 3h5v1h-4v2h3v1h-3v2h4v1h-5v-7z" fill="rgb(0,0,0)"/>
<path d="M17 4h1v5h-1v-5z" fill="rgb(0,0,0)"/>
<path d="M21 4h1v1h-1v-1z" fill="rgb(0,0,0)"/>
<path d="M24 4h1v5h-1v-5z" fill="rgb(0,0,0)"/>
<path d="M25 4h3v5h-3v-5z" fill="rgb(214,214,206)"/>
<path d="M28 4h1v5h-1v-5z" fill="rgb(0,0,0)"/>
<path d="M32 4h3v5h-3v-5z" fill="rgb(214,214,206)"/>
<path d="M35 4h1v5h-1v-5z" fill="rgb(0,0,0)"/>
<path d="M12 5h1v1h-1v-1z" fill="rgb(0,0,0)"/>
<path d="M21 8h1v1h-1v-1z" fill="rgb(0,0,0)"/>
<path d="M18 9h3v1h-3v-1z" fill="rgb(0,0,0)"/>
<path d="M25 9h3v1h-3v-1z" fill="rgb(0,0,0)"/>
</svg>