<?xml version="1.0" encoding="utf-8"?>
<!-- generated at drububu.com  -->
<!DOCTYPE svg PUBLIC "-//W3C//DTD SVG 1.1//EN" "http://www.w3.org/Graphics/SVG/1.1/DTD/svg11.dtd">
<svg version="1.1" preserveAspectRatio="xMinYMin meet" xmlns="http://www.w3.org/2000/svg" xmlns:xlink="http://www.w3.org/1999/xlink" x="0px" y="0px" width="55px" height="14px" viewBox="0 0 55 14">
<path d="M0 0h54v1h-53v12h-1v-13z" fill="rgb(255,255,255)"/>
<path d="M54 0h1v14h-55v-1h54v-13z" fill="rgb(0,0,0)"/>
<path d="M1 1h52v11h-52v-11z" fill="rgb(214,214,206)"/>
<path d="M53 1h1v12h-53v-1h52v-11z" fill="rgb(132,132,132)"/>
<path d="M3 3h5v1h-4v2h3v1h-3v3h-1v-7z" fill="rgb(0,0,0)"/>
<path d="M9 3h1v6h-1v-6z" fill="rgb(0,0,0)"/>
<path d="M13 3h1v6h-1v-6z" fill="rgb(0,0,0)"/>
<path d="M16 3h1v6h3v1h-4v-7z" fill="rgb(0,0,0)"/>
<path d="M22 3h1v6h3v1h-4v-7z" fill="rgb(0,0,0)"/>
<path d="M31 3h3v1h-3v-1z" fill="rgb(0,0,0)"/>
<path d="M37 3h1v7h-1v-7z" fill="rgb(0,0,0)"/>
<path d="M40 3h4v2h-1v-1h-3v-1z" fill="rgb(0,0,0)"/>
<path d="M46 3h5v1h-4v2h2v1h-2v2h4v1h-5v-7z" fill="rgb(0,0,0)"/>
<path d="M30 4h1v2h-1v-2z" fill="rgb(0,0,0)"/>
<path d="M34 4h1v1h-1v-1z" fill="rgb(0,0,0)"/>
<path d="M42 5h1v1h-1v-1z" fill="rgb(0,0,0)"/>
<path d="M31 6h3v1h-3v-1z" fill="rgb(0,0,0)"/>
<path d="M41 6h1v1h-1v-1z" fill="rgb(0,0,0)"/>
<path d="M34 7h1v2h-1v-2z" fill="rgb(0,0,0)"/>
<path d="M40 7h1v2h3v1h-4v-3z" fill="rgb(0,0,0)"/>
<path d="M30 8h1v1h-1v-1z" fill="rgb(0,0,0)"/>
<path d="M10 9h3v1h-3v-1z" fill="rgb(0,0,0)"/>
<path d="M31 9h3v1h-3v-1z" fill="rgb(0,0,0)"/>
</svg>