<?xml version="1.0" encoding="UTF-8" standalone="no"?>
<!-- generated at drububu.com  -->

<svg
   xmlns:dc="http://purl.org/dc/elements/1.1/"
   xmlns:cc="http://creativecommons.org/ns#"
   xmlns:rdf="http://www.w3.org/1999/02/22-rdf-syntax-ns#"
   xmlns:svg="http://www.w3.org/2000/svg"
   xmlns="http://www.w3.org/2000/svg"
   xmlns:sodipodi="http://sodipodi.sourceforge.net/DTD/sodipodi-0.dtd"
   xmlns:inkscape="http://www.inkscape.org/namespaces/inkscape"
   version="1.1"
   preserveAspectRatio="xMinYMin meet"
   x="0px"
   y="0px"
   width="18px"
   height="14px"
   viewBox="0 0 18 14"
   id="svg3414"
   inkscape:version="0.91 r13725"
   sodipodi:docname="html.svg">
  <metadata
     id="metadata3462">
    <rdf:RDF>
      <cc:Work
         rdf:about="">
        <dc:format>image/svg+xml</dc:format>
        <dc:type
           rdf:resource="http://purl.org/dc/dcmitype/StillImage" />
        <dc:title></dc:title>
      </cc:Work>
    </rdf:RDF>
  </metadata>
  <defs
     id="defs3460" />
  <sodipodi:namedview
     pagecolor="#ffffff"
     bordercolor="#666666"
     borderopacity="1"
     objecttolerance="10000"
     gridtolerance="10000"
     guidetolerance="10"
     inkscape:pageopacity="0"
     inkscape:pageshadow="2"
     inkscape:window-width="2560"
     inkscape:window-height="1315"
     id="namedview3458"
     showgrid="true"
     inkscape:zoom="82.071429"
     inkscape:cx="9"
     inkscape:cy="7"
     inkscape:window-x="0"
     inkscape:window-y="1"
     inkscape:window-maximized="1"
     inkscape:current-layer="svg3414">
    <inkscape:grid
       type="xygrid"
       id="grid3466" />
  </sodipodi:namedview>
  <path
     d="M0 0h17v1h-16v12h-1v-13z"
     fill="rgb(255,255,255)"
     id="path3416" />
  <path
     d="M17 0h1v14h-18v-1h17v-13z"
     fill="rgb(0,0,0)"
     id="path3418" />
  <path
     d="M1 1h15v11h-15v-11z"
     id="path3420"
     fill="rgb(214,214,206)" />
  <path
     d="M16 1h1v12h-16v-1h15v-11z"
     fill="rgb(132,132,132)"
     id="path3422" />
  <path
     d="m 6,6.9869452 1,0 0,1 -1,0 0,-1 z"
     id="path3446"
     inkscape:connector-curvature="0"
     style="fill:#000000" />
  <path
     d="m 8,6.9869452 1,0 0,1 -1,0 0,-1 z"
     id="path3448"
     inkscape:connector-curvature="0"
     style="fill:#000000" />
  <path
     d="m 10,6.9869452 1,0 0,1 -1,0 0,-1 z"
     id="path3450"
     inkscape:connector-curvature="0"
     style="fill:#000000" />
  <path
     style="fill:#000000"
     d="M 5.5264122,2.9727616 1.9893029,6.509871 2.0010216,6.5196366 2.6982872,7.2169022 5.538131,10.056746 6.2451622,9.3497147 3.4053185,6.5079178 6.2334435,3.681746 5.5264122,2.9727616 Z"
     id="rect3468"
     inkscape:connector-curvature="0" />
  <path
     inkscape:connector-curvature="0"
     id="path3473"
     d="M 11.475677,10.056746 15.012786,6.5196366 15.001066,6.5098666 14.3038,5.812601 11.463956,2.9727572 l -0.707031,0.7070313 2.839844,2.8417969 -2.828125,2.8261718 0.707031,0.7089848 z"
     style="fill:#000000" />
</svg>
