<?xml version="1.0" encoding="UTF-8" standalone="no"?>
<!-- generated at drububu.com  -->

<svg
   xmlns:dc="http://purl.org/dc/elements/1.1/"
   xmlns:cc="http://creativecommons.org/ns#"
   xmlns:rdf="http://www.w3.org/1999/02/22-rdf-syntax-ns#"
   xmlns:svg="http://www.w3.org/2000/svg"
   xmlns="http://www.w3.org/2000/svg"
   xmlns:sodipodi="http://sodipodi.sourceforge.net/DTD/sodipodi-0.dtd"
   xmlns:inkscape="http://www.inkscape.org/namespaces/inkscape"
   version="1.1"
   preserveAspectRatio="xMinYMin meet"
   x="0px"
   y="0px"
   width="13px"
   height="12px"
   viewBox="0 0 13 12"
   id="svg3416"
   inkscape:version="0.91 r13725"
   sodipodi:docname="i.svg">
  <metadata
     id="metadata3438">
    <rdf:RDF>
      <cc:Work
         rdf:about="">
        <dc:format>image/svg+xml</dc:format>
        <dc:type
           rdf:resource="http://purl.org/dc/dcmitype/StillImage" />
        <dc:title></dc:title>
      </cc:Work>
    </rdf:RDF>
  </metadata>
  <defs
     id="defs3436" />
  <sodipodi:namedview
     pagecolor="#ffffff"
     bordercolor="#666666"
     borderopacity="1"
     objecttolerance="10000"
     gridtolerance="10000"
     guidetolerance="10"
     inkscape:pageopacity="0"
     inkscape:pageshadow="2"
     inkscape:window-width="2560"
     inkscape:window-height="1315"
     id="namedview3434"
     showgrid="true"
     inkscape:zoom="95.75"
     inkscape:cx="4.6148825"
     inkscape:cy="6"
     inkscape:window-x="0"
     inkscape:window-y="1"
     inkscape:window-maximized="1"
     inkscape:current-layer="svg3416">
    <inkscape:grid
       type="xygrid"
       id="grid3440" />
  </sodipodi:namedview>
  <path
     d="M 3 1 L 3 2 L 8 2 L 8 4 L 5 4 L 5 5 L 8 5 L 8 7 L 5 7 L 5 5 L 4 5 L 4 7 L 2 7 L 2 3 L 1 3 L 1 11 L 12 11 L 12 1 L 3 1 z M 9 2 L 11 2 L 11 4 L 9 4 L 9 2 z M 9 5 L 11 5 L 11 7 L 9 7 L 9 5 z M 2 8 L 4 8 L 4 10 L 2 10 L 2 8 z M 9 8 L 11 8 L 11 10 L 9 10 L 9 8 z M 5.0214844 8.0097656 L 8.0214844 8.0097656 L 8.0214844 10.009766 L 5.0214844 10.009766 L 5.0214844 8.0097656 z "
     id="path3420"
     style="fill:#808080;fill-opacity:1" />
  <path
     style="fill:#000000;fill-opacity:1"
     d="M 0.70507812 -0.001953125 L -0.001953125 0.70507812 L 3.1464844 3.8535156 L 2 5 L 5 5 L 5 2 L 3.8535156 3.1464844 L 0.70507812 -0.001953125 z "
     id="rect4245" />
</svg>
