<?xml version="1.0" encoding="UTF-8" standalone="no"?>
<svg xmlns:rdf="http://www.w3.org/1999/02/22-rdf-syntax-ns#" xmlns="http://www.w3.org/2000/svg" height="139" viewBox="0 0 726.74579 139.4801" width="727" version="1.1" xmlns:cc="http://creativecommons.org/ns#" xmlns:dc="http://purl.org/dc/elements/1.1/">
<path d="m631 0.108 26.1 26.1h0.0187 43.5v87h-87v-43.5-0.007l-26.1 26.1v0.081 43.4h139v-139h-95.7z" fill-rule="evenodd"/>
<path d="m639 87.3h0.0995l-0.0001-17.5h0.0878v-0.0355h26.1l-0.0001-8.84h-26.1v-8.7h34.8v0.0119h0.0143l0.0001 17.5h0.002v8.7h-26.2l0.0001 8.81h26v8.7h-34.8z" fill-rule="evenodd"/>
<path d="m366 51.8c0-12 9.75-21.7 21.7-21.7l14.5-0.0802c12 0 21.7 9.75 21.7 21.7v57.9h-14.5v-57.9c0-3.98-3.25-7.23-7.23-7.23l-14.5 0.0803c-3.98 0-7.23 3.25-7.23 7.23v57.9h-14.5z" fill-rule="evenodd"/>
<path d="m435 51.6c-0.009-12 9.76-21.7 21.7-21.7l36.2 0.006v14.5l-36.2-0.0253c-4.03-0.0355-7.31 3.25-7.28 7.28h43.5v14.5h-43.5v21.7c0 3.99 3.25 7.24 7.24 7.24h36.2v14.5h-36.2c-12 0-21.7-9.76-21.7-21.7z" fill-rule="evenodd"/>
<path d="m526 51.6v57.9h14.5l0.0389-57.9c0.0389-3.95 3.26-7.16 7.2-7.2l14.5-0.0389v-14.5h-57.9v14.5l23 0.0141c-0.772 2.31-1.28 4.77-1.28 7.23z" fill-rule="evenodd"/>
<path d="m58 87.8v-43.5c0-7.98-6.51-14.5-14.5-14.5h-43.5v14.5h43.5v43.5c0 3.99-3.25 7.24-7.24 7.24h-36.2v14.5h36.2c12 0 21.7-9.76 21.7-21.7z" fill-rule="evenodd"/>
<path d="m113 51.5v-7.24h-43.5v-14.5h43.5c7.98 0 14.5 6.51 14.5 14.5v7.24c0 7.98-6.51 14.5-14.5 14.5h-29v43.5h-14.5v-57.9z" fill-rule="evenodd"/>
<path d="m139 51.6c-0.009-12 9.76-21.7 21.7-21.7l36.2 0.006v14.5l-36.2-0.0254c-4.03-0.0355-7.31 3.25-7.28 7.28h43.5v14.5h-43.5v21.7c0 3.99 3.25 7.24 7.24 7.24h36.2v14.5h-36.2c-12 0-21.7-9.76-21.7-21.7z" fill-rule="evenodd"/>
<path d="m230 51.6v57.9h14.5l0.039-57.9c0.0389-3.95 3.26-7.16 7.2-7.2l14.5-0.0388v-14.5h-57.9v14.5l23 0.0141c-0.772 2.31-1.28 4.77-1.28 7.23z" fill-rule="evenodd"/>
<path d="m336 87.8v-36.2c0-12-9.76-21.7-21.7-21.7h-14.5c-12 0-21.7 9.76-21.7 21.7v36.2c0 12 9.76 21.7 21.7 21.7h14.5c12-0.0172 21.7-9.78 21.7-21.7zm-14.5 0v-36.2c0-3.99-3.25-7.24-7.24-7.24h-14.5c-3.99 0-7.24 3.25-7.24 7.24v36.2c0 3.99 3.25 7.24 7.24 7.24h14.5c3.99 0 7.24-3.25 7.24-7.24z" fill-rule="evenodd"/>
<path d="m351 95a7.24 7.24 0 0 1 7.24 7.24 7.24 7.24 0 1 1 -7.24 -7.24z" fill-rule="evenodd"/>
</svg>
