<?xml version="1.0" encoding="UTF-8" standalone="no"?>
<svg
   xmlns:dc="http://purl.org/dc/elements/1.1/"
   xmlns:cc="http://creativecommons.org/ns#"
   xmlns:rdf="http://www.w3.org/1999/02/22-rdf-syntax-ns#"
   xmlns:svg="http://www.w3.org/2000/svg"
   xmlns="http://www.w3.org/2000/svg"
   xmlns:sodipodi="http://sodipodi.sourceforge.net/DTD/sodipodi-0.dtd"
   xmlns:inkscape="http://www.inkscape.org/namespaces/inkscape"
   version="1.1"
   width="758.14514"
   height="139.33171"
   id="svg46"
   viewBox="0 0 758.14514 139.33171"
   inkscape:version="0.91 r13725"
   sodipodi:docname="jpeto_logo.svg">
  <sodipodi:namedview
     pagecolor="#ffffff"
     bordercolor="#666666"
     borderopacity="1"
     objecttolerance="10"
     gridtolerance="10"
     guidetolerance="10"
     inkscape:pageopacity="0"
     inkscape:pageshadow="2"
     inkscape:window-width="2560"
     inkscape:window-height="1315"
     id="namedview3352"
     showgrid="false"
     inkscape:zoom="1.6415644"
     inkscape:cx="375.93338"
     inkscape:cy="45.205068"
     inkscape:window-x="0"
     inkscape:window-y="1"
     inkscape:window-maximized="1"
     inkscape:current-layer="svg46"
     fit-margin-top="0"
     fit-margin-left="0"
     fit-margin-right="0"
     fit-margin-bottom="0" />
  <metadata
     id="metadata52">
    <rdf:RDF>
      <cc:Work
         rdf:about="">
        <dc:format>image/svg+xml</dc:format>
        <dc:type
           rdf:resource="http://purl.org/dc/dcmitype/StillImage" />
        <dc:title></dc:title>
      </cc:Work>
    </rdf:RDF>
  </metadata>
  <defs
     id="defs50" />
  <g
     id="g4203"
     transform="translate(31.507356,-0.0741942)">
    <path
       id="path4"
       style="fill:#000000;fill-opacity:1;fill-rule:evenodd;stroke:none;stroke-width:0.21600001;stroke-linecap:butt;stroke-linejoin:miter;stroke-dasharray:none"
       d="m 630.8798,0.108 26.112,26.112 0.0187,0 43.5153,0 0,87.0401 -87.0401,0 0,-43.5142 0,-0.007 -26.112,26.1117 0,0.081 0,43.4405 139.2641,0 0,-139.2641 -95.6896,0 z"
       inkscape:connector-curvature="0" />
    <path
       id="path6"
       style="fill:#000000;fill-opacity:1;fill-rule:evenodd;stroke:none;stroke-width:0.21600001;stroke-linecap:butt;stroke-linejoin:miter;stroke-dasharray:none"
       d="m 639.2222,87.2806 0.0995,0 -10e-5,-17.4815 0.0878,0 0,-0.0355 26.1094,0 -1e-4,-8.8438 -26.1262,0 0,-8.704 34.816,0 0,0.0119 0.0143,0 10e-5,17.5359 0.002,0 0,8.704 -26.1995,0 10e-5,8.813 26.0123,0 0,8.704 -34.8161,0 z"
       inkscape:connector-curvature="0" />
  </g>
  <path
     inkscape:connector-curvature="0"
     d="m 101.31015,101.32536 0,-75.982778 c 0,-13.94994 -11.377601,-25.32753622 -25.327541,-25.32753622 l -75.982609,0 0,25.32753622 75.982609,0 0,75.982778 c 0,6.97488 -5.688886,12.66376 -12.663768,12.66376 l -63.318841,0 0,25.32754 63.318841,0 c 20.924822,0 37.991309,-17.06648 37.991309,-37.9913 z"
     style="fill:#000000;fill-opacity:1;fill-rule:evenodd;stroke:none;stroke-width:0.21600001;stroke-linecap:butt;stroke-linejoin:miter;stroke-dasharray:none"
     id="path15" />
  <path
     inkscape:connector-curvature="0"
     d="m 198.00406,38.006525 0,-12.663769 -75.98278,0 0,-25.32771049 75.98278,0 c 13.94977,0 25.32754,11.37777149 25.32754,25.32771049 l 0,12.663769 c 0,13.94994 -11.37777,25.327536 -25.32754,25.327536 l -50.65525,0 0,75.982599 -25.32753,0 0,-101.310135 z"
     style="fill:#000000;fill-opacity:1;fill-rule:evenodd;stroke:none;stroke-width:0.21600001;stroke-linecap:butt;stroke-linejoin:miter;stroke-dasharray:none"
     id="path17" />
  <path
     inkscape:connector-curvature="0"
     d="m 243.19339,38.014137 c -0.0157,-20.941611 17.0649,-38.02173192 38.00652,-38.00651819 l 63.31901,0.0104976 0,25.31424659 -63.31901,-0.04442 c -7.04326,-0.06208 -12.78793,5.68259 -12.72585,12.725847 l 76.04486,0 0,25.327537 -75.98278,0 0,37.991473 c 0,6.97488 5.68889,12.66377 12.66377,12.66377 l 63.31901,0 0,25.32753 -63.31901,0 c -20.92483,0 -37.99131,-17.06648 -37.99131,-37.9913 z"
     style="fill:#000000;fill-opacity:1;fill-rule:evenodd;stroke:none;stroke-width:0.21600001;stroke-linecap:butt;stroke-linejoin:miter;stroke-dasharray:none"
     id="path19" />
  <path
     inkscape:connector-curvature="0"
     d="m 402.34246,38.006516 0,101.310144 25.32753,0 0.0682,-101.310144 c 0.068,-6.900038 5.69571,-12.527718 12.59558,-12.595918 l 25.32754,-0.06784 0,-25.32771117 -101.31015,0 0,25.32771117 40.23209,0.02466 c -1.35035,4.03164 -2.24079,8.335376 -2.24079,12.639112 z"
     style="fill:#000000;fill-opacity:1;fill-rule:evenodd;stroke:none;stroke-width:0.21600001;stroke-linecap:butt;stroke-linejoin:miter;stroke-dasharray:none"
     id="path21" />
  <path
     inkscape:connector-curvature="0"
     d="m 586.78462,101.31032 0,-63.319015 C 586.78462,17.066482 569.71813,0 548.79331,0 l -25.32753,0 c -20.925,0 -37.99131,17.066482 -37.99131,37.991305 l 0,63.319015 c 0,20.92482 17.06631,37.9913 37.99131,38.02139 l 25.32753,0 c 20.92482,-0.0301 37.99131,-17.09657 37.99131,-38.02139 z m -25.32754,0 0,-63.319015 c 0,-6.974883 -5.68889,-12.663768 -12.66377,-12.663768 l -25.32753,0 c -6.97506,0 -12.66377,5.688885 -12.66377,12.663768 l 0,63.319015 c 0,6.97488 5.68871,12.66377 12.66377,12.66377 l 25.32753,0 c 6.97488,0 12.66377,-5.68889 12.66377,-12.66377 z"
     style="fill:#000000;fill-opacity:1;fill-rule:evenodd;stroke:none;stroke-width:0.21600001;stroke-linecap:butt;stroke-linejoin:miter;stroke-dasharray:none"
     id="path23" />
</svg>
