<?xml version="1.0" encoding="UTF-8" standalone="no"?>
<!-- generated at drububu.com  -->

<svg
   xmlns:dc="http://purl.org/dc/elements/1.1/"
   xmlns:cc="http://creativecommons.org/ns#"
   xmlns:rdf="http://www.w3.org/1999/02/22-rdf-syntax-ns#"
   xmlns:svg="http://www.w3.org/2000/svg"
   xmlns="http://www.w3.org/2000/svg"
   xmlns:sodipodi="http://sodipodi.sourceforge.net/DTD/sodipodi-0.dtd"
   xmlns:inkscape="http://www.inkscape.org/namespaces/inkscape"
   version="1.1"
   preserveAspectRatio="xMinYMin meet"
   x="0px"
   y="0px"
   width="12px"
   height="21px"
   viewBox="0 0 12 21"
   id="svg3395"
   inkscape:version="0.91 r13725"
   sodipodi:docname="jump.svg">
  <metadata
     id="metadata3409">
    <rdf:RDF>
      <cc:Work
         rdf:about="">
        <dc:format>image/svg+xml</dc:format>
        <dc:type
           rdf:resource="http://purl.org/dc/dcmitype/StillImage" />
        <dc:title></dc:title>
      </cc:Work>
    </rdf:RDF>
  </metadata>
  <defs
     id="defs3407" />
  <sodipodi:namedview
     pagecolor="#ffffff"
     bordercolor="#666666"
     borderopacity="1"
     objecttolerance="10000"
     gridtolerance="10000"
     guidetolerance="10"
     inkscape:pageopacity="0"
     inkscape:pageshadow="2"
     inkscape:window-width="2560"
     inkscape:window-height="1315"
     id="namedview3405"
     showgrid="true"
     inkscape:zoom="54.714286"
     inkscape:cx="6"
     inkscape:cy="10.5"
     inkscape:window-x="0"
     inkscape:window-y="1"
     inkscape:window-maximized="1"
     inkscape:current-layer="svg3395">
    <inkscape:grid
       type="xygrid"
       id="grid3811" />
  </sodipodi:namedview>
  <path
     d="M 2 6 L 2 15 L 11 15 L 11 11 L 12 11 L 12 10 L 11 10 L 11 6 L 2 6 z M 3 7 L 10 7 L 10 14 L 3 14 L 3 7 z M 7 8 L 7 10.027344 L 4 10 L 4 11 L 7 11.011719 L 7 13 L 9 10.5 L 7 8 z "
     id="path3399" />
  <path
     id="path3823"
     d="M 2 6 L 2 15 L 11 15 L 11 11 L 12 11 L 12 10 L 11 10 L 11 6 L 2 6 z M 3 7 L 10 7 L 10 14 L 3 14 L 3 7 z M 7 8 L 7 10.027344 L 4 10 L 4 11 L 7 11.011719 L 7 13 L 9 10.5 L 7 8 z " />
</svg>
