<?xml version="1.0" encoding="utf-8"?>
<!-- generated at drububu.com  -->
<!DOCTYPE svg PUBLIC "-//W3C//DTD SVG 1.1//EN" "http://www.w3.org/Graphics/SVG/1.1/DTD/svg11.dtd">
<svg version="1.1" preserveAspectRatio="xMinYMin meet" xmlns="http://www.w3.org/2000/svg" xmlns:xlink="http://www.w3.org/1999/xlink" x="0px" y="0px" width="19px" height="14px" viewBox="0 0 19 14">
<path d="M0 0h18v1h-17v12h-1v-13z" fill="rgb(255,255,255)"/>
<path d="M18 0h1v14h-19v-1h18v-13z" fill="rgb(0,0,0)"/>
<path d="M1 1h16v11h-16v-11z" fill="rgb(214,214,206)"/>
<path d="M17 1h1v12h-17v-1h16v-11z" fill="rgb(132,132,132)"/>
<path d="M11 3h2v1h-2v-1z" fill="rgb(0,0,0)"/>
<path d="M10 4h1v4h-1v-1h-4v1h-2v-3h6v-1z" fill="rgb(0,0,0)"/>
<path d="M11 4h2v4h-2v-4z" fill="rgb(214,214,206)"/>
<path d="M13 4h1v4h-1v-4z" fill="rgb(0,0,0)"/>
<path d="M11 8h2v1h-2v-1z" fill="rgb(0,0,0)"/>
</svg>