<?xml version="1.0" encoding="UTF-8" standalone="no"?>
<!-- generated at drububu.com  -->

<svg
   xmlns:dc="http://purl.org/dc/elements/1.1/"
   xmlns:cc="http://creativecommons.org/ns#"
   xmlns:rdf="http://www.w3.org/1999/02/22-rdf-syntax-ns#"
   xmlns:svg="http://www.w3.org/2000/svg"
   xmlns="http://www.w3.org/2000/svg"
   xmlns:sodipodi="http://sodipodi.sourceforge.net/DTD/sodipodi-0.dtd"
   xmlns:inkscape="http://www.inkscape.org/namespaces/inkscape"
   version="1.1"
   preserveAspectRatio="xMinYMin meet"
   x="0px"
   y="0px"
   width="11px"
   height="8px"
   viewBox="0 0 11 8"
   id="svg6334"
   inkscape:version="0.91 r13725"
   sodipodi:docname="mail.svg">
  <metadata
     id="metadata6342">
    <rdf:RDF>
      <cc:Work
         rdf:about="">
        <dc:format>image/svg+xml</dc:format>
        <dc:type
           rdf:resource="http://purl.org/dc/dcmitype/StillImage" />
        <dc:title></dc:title>
      </cc:Work>
    </rdf:RDF>
  </metadata>
  <defs
     id="defs6340" />
  <sodipodi:namedview
     pagecolor="#ffffff"
     bordercolor="#666666"
     borderopacity="1"
     objecttolerance="10000"
     gridtolerance="10000"
     guidetolerance="10"
     inkscape:pageopacity="0"
     inkscape:pageshadow="2"
     inkscape:window-width="2560"
     inkscape:window-height="1315"
     id="namedview6338"
     showgrid="true"
     inkscape:zoom="59"
     inkscape:cx="5.5"
     inkscape:cy="4"
     inkscape:window-x="0"
     inkscape:window-y="1"
     inkscape:window-maximized="1"
     inkscape:current-layer="svg6334">
    <inkscape:grid
       type="xygrid"
       id="grid6886" />
  </sodipodi:namedview>
  <path
     style="fill:#000000;fill-opacity:1"
     d="M 0 0 L 0 8 L 1 8 L 11 8 L 11 7 L 11 0 L 10 0 L 1 0 L 0 0 z M 1 1 L 10 1 L 10 2 L 9 2 L 9 3 L 10 3 L 10 7 L 1 7 L 1 3 L 2 3 L 2 2 L 1 2 L 1 1 z M 2 3 L 2 4 L 3 4 L 3 3 L 2 3 z M 3 4 L 3 5 L 4 5 L 4 4 L 3 4 z M 4 5 L 4 6 L 7 6 L 7 5 L 4 5 z M 7 5 L 8 5 L 8 4 L 7 4 L 7 5 z M 8 4 L 9 4 L 9 3 L 8 3 L 8 4 z "
     id="rect6888" />
</svg>
