<?xml version="1.0" encoding="utf-8"?>
<!-- generated at drububu.com  -->
<!DOCTYPE svg PUBLIC "-//W3C//DTD SVG 1.1//EN" "http://www.w3.org/Graphics/SVG/1.1/DTD/svg11.dtd">
<svg version="1.1" preserveAspectRatio="xMinYMin meet" xmlns="http://www.w3.org/2000/svg" xmlns:xlink="http://www.w3.org/1999/xlink" x="0px" y="0px" width="26px" height="14px" viewBox="0 0 26 14">
<path d="M0 0h25v1h-24v12h-1v-13z" fill="rgb(255,255,255)"/>
<path d="M25 0h1v14h-26v-1h25v-13z" fill="rgb(0,0,0)"/>
<path d="M1 1h23v11h-23v-11z" fill="rgb(214,214,206)"/>
<path d="M24 1h1v12h-24v-1h23v-11z" fill="rgb(132,132,132)"/>
<path d="M3 3h1v6h-1v-6z" fill="rgb(255,0,0)"/>
<path d="M7 3h1v6h-1v-6z" fill="rgb(255,0,0)"/>
<path d="M11 3h3v1h-3v-1z" fill="rgb(255,0,0)"/>
<path d="M17 3h4v1h-3v2h3v1h-3v3h-1v-7z" fill="rgb(255,0,0)"/>
<path d="M10 4h1v2h-1v-2z" fill="rgb(255,0,0)"/>
<path d="M14 4h1v1h-1v-1z" fill="rgb(255,0,0)"/>
<path d="M18 4h3v2h-3v-2z" fill="rgb(214,214,206)"/>
<path d="M21 4h1v2h-1v-2z" fill="rgb(255,0,0)"/>
<path d="M11 6h3v1h-3v-1z" fill="rgb(255,0,0)"/>
<path d="M14 7h1v2h-1v-2z" fill="rgb(255,0,0)"/>
<path d="M21 7h1v3h-1v-3z" fill="rgb(255,0,0)"/>
<path d="M10 8h1v1h-1v-1z" fill="rgb(255,0,0)"/>
<path d="M4 9h3v1h-3v-1z" fill="rgb(255,0,0)"/>
<path d="M11 9h3v1h-3v-1z" fill="rgb(255,0,0)"/>
</svg>