<?xml version="1.0" encoding="utf-8"?>
<!-- generated at drububu.com  -->
<!DOCTYPE svg PUBLIC "-//W3C//DTD SVG 1.1//EN" "http://www.w3.org/Graphics/SVG/1.1/DTD/svg11.dtd">
<svg version="1.1" preserveAspectRatio="xMinYMin meet" xmlns="http://www.w3.org/2000/svg" xmlns:xlink="http://www.w3.org/1999/xlink" x="0px" y="0px" width="9px" height="9px" viewBox="0 0 9 9">
<path d="M0 0h2v1h-2v-1z" fill="rgb(187,255,39)"/>
<path d="M2 0h5v1h2v1h-1v7h-7v-7h-1v-1h2v-1z" fill="rgb(0,0,0)"/>
<path d="M7 0h2v1h-2v-1z" fill="rgb(187,255,39)"/>
<path d="M0 2h1v7h-1v-7z" fill="rgb(187,255,39)"/>
<path d="M2 2h5v6h-5v-6z" fill="rgb(187,255,39)"/>
<path d="M8 2h1v7h-1v-7z" fill="rgb(187,255,39)"/>
<path d="M3 3h1v4h-1v-4z" fill="rgb(0,0,0)"/>
<path d="M5 3h1v4h-1v-4z" fill="rgb(0,0,0)"/>
</svg>