<?xml version="1.0" encoding="UTF-8" standalone="no"?>
<!-- generated at drububu.com  -->

<svg
   xmlns:dc="http://purl.org/dc/elements/1.1/"
   xmlns:cc="http://creativecommons.org/ns#"
   xmlns:rdf="http://www.w3.org/1999/02/22-rdf-syntax-ns#"
   xmlns:svg="http://www.w3.org/2000/svg"
   xmlns="http://www.w3.org/2000/svg"
   xmlns:sodipodi="http://sodipodi.sourceforge.net/DTD/sodipodi-0.dtd"
   xmlns:inkscape="http://www.inkscape.org/namespaces/inkscape"
   version="1.1"
   preserveAspectRatio="xMinYMin meet"
   x="0px"
   y="0px"
   width="14px"
   height="13px"
   viewBox="0 0 14 13"
   id="svg4210"
   inkscape:version="0.91 r13725"
   sodipodi:docname="parents.svg">
  <metadata
     id="metadata4238">
    <rdf:RDF>
      <cc:Work
         rdf:about="">
        <dc:format>image/svg+xml</dc:format>
        <dc:type
           rdf:resource="http://purl.org/dc/dcmitype/StillImage" />
        <dc:title></dc:title>
      </cc:Work>
    </rdf:RDF>
  </metadata>
  <defs
     id="defs4236" />
  <sodipodi:namedview
     pagecolor="#ffffff"
     bordercolor="#666666"
     borderopacity="1"
     objecttolerance="10"
     gridtolerance="10"
     guidetolerance="10"
     inkscape:pageopacity="0"
     inkscape:pageshadow="2"
     inkscape:window-width="2560"
     inkscape:window-height="1315"
     id="namedview4234"
     showgrid="true"
     inkscape:zoom="72.615384"
     inkscape:cx="5.4273615"
     inkscape:cy="5.302543"
     inkscape:window-x="0"
     inkscape:window-y="1"
     inkscape:window-maximized="1"
     inkscape:current-layer="svg4210">
    <inkscape:grid
       type="xygrid"
       id="grid3552" />
  </sodipodi:namedview>
  <path
     d="m 6.8539345,4.9579518 0,1.4668363 2.6142859,0 0,0.6397051 -2.6142859,0 0,3.1230068 -0.7273444,0 0,-3.1230068 -2.5810393,0 0,-0.6397051 2.5810393,0 0,-1.4668363 z"
     id="path4222"
     inkscape:connector-curvature="0"
     style="fill:#404040"
     sodipodi:nodetypes="ccccccccccccc" />
  <path
     d="m 6.5385565,10.326262 -2.5487466,2.687509 -0.513115,0 0,-0.454689 3.0034354,-3.20659"
     id="path4230"
     inkscape:connector-curvature="0"
     style="fill:#404040"
     sodipodi:nodetypes="ccccc" />
  <path
     d="m 6.4809189,9.371967 3.0699286,3.134393 0,0.49364 -0.5325904,0 -2.4886497,-2.673738"
     id="path4232"
     inkscape:connector-curvature="0"
     style="fill:#404040"
     sodipodi:nodetypes="ccccc" />
  <path
     style="fill:#404040;fill-opacity:1"
     d="M 6.5,0.00456837 A 2.5,2.5014915 0 0 0 4,2.5065215 2.5,2.5014915 0 0 0 6.5,5.0084746 2.5,2.5014915 0 0 0 9,2.5065215 2.5,2.5014915 0 0 0 6.5,0.00456837 Z m -0.019531,0.578125 A 1.9237642,1.9426711 0 0 1 8.4042969,2.5240996 1.9237642,1.9426711 0 0 1 6.4804688,4.467459 1.9237642,1.9426711 0 0 1 4.5566406,2.5240996 1.9237642,1.9426711 0 0 1 6.4804688,0.58269337 Z"
     id="path3564"
     inkscape:connector-curvature="0" />
</svg>
