<?xml version="1.0" encoding="utf-8"?>
<!-- generated at drububu.com  -->
<!DOCTYPE svg PUBLIC "-//W3C//DTD SVG 1.1//EN" "http://www.w3.org/Graphics/SVG/1.1/DTD/svg11.dtd">
<svg version="1.1" preserveAspectRatio="xMinYMin meet" xmlns="http://www.w3.org/2000/svg" xmlns:xlink="http://www.w3.org/1999/xlink" x="0px" y="0px" width="21px" height="14px" viewBox="0 0 21 14">
<path d="M0 0h20v1h-19v12h-1v-13z" fill="rgb(255,255,255)"/>
<path d="M20 0h1v14h-21v-1h20v-13z" fill="rgb(0,0,0)"/>
<path d="M1 1h18v11h-18v-11z" fill="rgb(214,214,206)"/>
<path d="M19 1h1v12h-19v-1h18v-11z" fill="rgb(132,132,132)"/>
<path d="M6 3h4v1h-4v-1z" fill="rgb(255,0,0)"/>
<path d="M12 3h4v1h-4v-1z" fill="rgb(255,0,0)"/>
<path d="M5 4h1v1h-1v-1z" fill="rgb(255,0,0)"/>
<path d="M11 4h1v1h-1v-1z" fill="rgb(255,0,0)"/>
<path d="M6 5h2v1h-2v-1z" fill="rgb(255,0,0)"/>
<path d="M12 5h2v1h-2v-1z" fill="rgb(255,0,0)"/>
<path d="M5 6h1v1h-1v-1z" fill="rgb(255,0,0)"/>
<path d="M6 6h2v1h-2v-1z" fill="rgb(214,214,206)"/>
<path d="M8 6h1v1h-1v-1z" fill="rgb(255,0,0)"/>
<path d="M11 6h1v1h-1v-1z" fill="rgb(255,0,0)"/>
<path d="M12 6h2v1h-2v-1z" fill="rgb(214,214,206)"/>
<path d="M14 6h1v1h-1v-1z" fill="rgb(255,0,0)"/>
<path d="M6 7h2v1h-2v-1z" fill="rgb(255,0,0)"/>
<path d="M12 7h2v1h-2v-1z" fill="rgb(255,0,0)"/>
<path d="M8 8h1v1h-1v-1z" fill="rgb(255,0,0)"/>
<path d="M14 8h1v1h-1v-1z" fill="rgb(255,0,0)"/>
<path d="M4 9h4v1h-4v-1z" fill="rgb(255,0,0)"/>
<path d="M10 9h4v1h-4v-1z" fill="rgb(255,0,0)"/>
</svg>