<?xml version="1.0" encoding="utf-8"?>
<!-- generated at drububu.com  -->
<!DOCTYPE svg PUBLIC "-//W3C//DTD SVG 1.1//EN" "http://www.w3.org/Graphics/SVG/1.1/DTD/svg11.dtd">
<svg version="1.1" preserveAspectRatio="xMinYMin meet" xmlns="http://www.w3.org/2000/svg" xmlns:xlink="http://www.w3.org/1999/xlink" x="0px" y="0px" width="40px" height="14px" viewBox="0 0 40 14">
<path d="M0 0h39v1h-38v12h-1v-13z" fill="rgb(255,255,255)"/>
<path d="M39 0h1v14h-40v-1h39v-13z" fill="rgb(0,0,0)"/>
<path d="M1 1h37v11h-37v-11z" fill="rgb(214,214,206)"/>
<path d="M38 1h1v12h-38v-1h37v-11z" fill="rgb(132,132,132)"/>
<path d="M7 3h3v1h-3v-1z" fill="rgb(0,0,0)"/>
<path d="M14 3h3v1h-3v-1z" fill="rgb(0,0,0)"/>
<path d="M20 3h1v5h-1v-5z" fill="rgb(0,0,0)"/>
<path d="M24 3h1v5h-1v-5z" fill="rgb(0,0,0)"/>
<path d="M27 3h5v1h-4v2h2v1h-2v2h4v1h-5v-7z" fill="rgb(0,0,0)"/>
<path d="M6 4h1v2h-1v-2z" fill="rgb(0,0,0)"/>
<path d="M10 4h1v1h-1v-1z" fill="rgb(0,0,0)"/>
<path d="M13 4h1v2h3v-2h1v6h-1v-3h-3v3h-1v-6z" fill="rgb(0,0,0)"/>
<path d="M14 4h3v2h-3v-2z" fill="rgb(214,214,206)"/>
<path d="M7 6h3v1h-3v-1z" fill="rgb(0,0,0)"/>
<path d="M10 7h1v2h-1v-2z" fill="rgb(0,0,0)"/>
<path d="M6 8h1v1h-1v-1z" fill="rgb(0,0,0)"/>
<path d="M21 8h1v1h-1v-1z" fill="rgb(0,0,0)"/>
<path d="M23 8h1v1h-1v-1z" fill="rgb(0,0,0)"/>
<path d="M7 9h3v1h-3v-1z" fill="rgb(0,0,0)"/>
<path d="M22 9h1v1h-1v-1z" fill="rgb(0,0,0)"/>
</svg>