<?xml version="1.0" encoding="UTF-8" standalone="no"?>
<!-- generated at drububu.com  -->

<svg
   xmlns:dc="http://purl.org/dc/elements/1.1/"
   xmlns:cc="http://creativecommons.org/ns#"
   xmlns:rdf="http://www.w3.org/1999/02/22-rdf-syntax-ns#"
   xmlns:svg="http://www.w3.org/2000/svg"
   xmlns="http://www.w3.org/2000/svg"
   xmlns:sodipodi="http://sodipodi.sourceforge.net/DTD/sodipodi-0.dtd"
   xmlns:inkscape="http://www.inkscape.org/namespaces/inkscape"
   version="1.1"
   preserveAspectRatio="xMinYMin meet"
   x="0px"
   y="0px"
   width="16px"
   height="16px"
   viewBox="0 0 16 16"
   id="svg9179"
   inkscape:version="0.91 r13725"
   sodipodi:docname="script_save.svg">
  <metadata
     id="metadata9629">
    <rdf:RDF>
      <cc:Work
         rdf:about="">
        <dc:format>image/svg+xml</dc:format>
        <dc:type
           rdf:resource="http://purl.org/dc/dcmitype/StillImage" />
      </cc:Work>
    </rdf:RDF>
  </metadata>
  <defs
     id="defs9627" />
  <sodipodi:namedview
     pagecolor="#ffffff"
     bordercolor="#666666"
     borderopacity="1"
     objecttolerance="10"
     gridtolerance="10"
     guidetolerance="10"
     inkscape:pageopacity="0"
     inkscape:pageshadow="2"
     inkscape:window-width="640"
     inkscape:window-height="480"
     id="namedview9625"
     showgrid="false"
     inkscape:zoom="14.75"
     inkscape:cx="8"
     inkscape:cy="8"
     inkscape:window-x="0"
     inkscape:window-y="0"
     inkscape:window-maximized="0"
     inkscape:current-layer="svg9179" />
  <path
     d="M2 0h1v1h-1v-1z"
     fill="rgb(94,170,221)"
     id="path9183" />
  <path
     d="M3 0h1v1h-1v-1z"
     fill="rgb(94,171,225)"
     id="path9185" />
  <path
     d="M4 0h1v1h-1v-1z"
     fill="rgb(129,188,234)"
     id="path9187" />
  <path
     d="M5 0h1v1h-1v-1z"
     fill="rgb(119,183,232)"
     id="path9189" />
  <path
     d="M6 0h1v1h-1v-1z"
     fill="rgb(109,178,230)"
     id="path9191" />
  <path
     d="M7 0h1v1h-1v-1z"
     fill="rgb(104,176,228)"
     id="path9193" />
  <path
     d="M8 0h3v1h-3v-1z"
     fill="rgb(94,171,225)"
     id="path9195" />
  <path
     d="M11 0h1v1h-1v-1z"
     fill="rgb(95,171,225)"
     id="path9197" />
  <path
     d="M12 0h1v1h-1v-1z"
     fill="rgb(94,171,225)"
     id="path9199" />
  <path
     d="M13 0h1v1h-1v-1z"
     fill="rgb(94,171,224)"
     id="path9201" />
  <path
     d="M14 0h1v1h-1v-1z"
     fill="rgb(91,170,224)"
     id="path9203" />
  <path
     d="M15 0h1v1h-1v-1z"
     fill="rgb(51,153,204)"
     id="path9205" />
  <path
     d="M2 1h1v1h-1v-1z"
     fill="rgb(91,166,219)"
     id="path9207" />
  <path
     d="M3 1h1v1h-1v-1z"
     fill="rgb(140,192,234)"
     id="path9209" />
  <path
     d="M4 1h4v1h-3v1h-1v-2z"
     fill="rgb(255,255,255)"
     id="path9211" />
  <path
     d="M8 1h1v1h-1v-1z"
     fill="rgb(244,249,253)"
     id="path9213" />
  <path
     d="M9 1h1v1h-1v-1z"
     fill="rgb(234,243,251)"
     id="path9215" />
  <path
     d="M10 1h1v1h-1v-1z"
     fill="rgb(217,235,248)"
     id="path9217" />
  <path
     d="M11 1h1v1h-1v-1z"
     fill="rgb(211,230,248)"
     id="path9219" />
  <path
     d="M12 1h1v1h-1v-1z"
     fill="rgb(198,223,245)"
     id="path9221" />
  <path
     d="M13 1h1v1h-1v-1z"
     fill="rgb(166,203,233)"
     id="path9223" />
  <path
     d="M14 1h1v1h-1v-1z"
     fill="rgb(92,167,221)"
     id="path9225" />
  <path
     d="M15 1h1v1h-1v-1z"
     fill="rgb(90,167,219)"
     id="path9227" />
  <path
     d="M2 2h1v1h-1v-1z"
     fill="rgb(90,162,216)"
     id="path9229" />
  <path
     d="M3 2h1v1h-1v-1z"
     fill="rgb(154,198,235)"
     id="path9231" />
  <path
     d="M5 2h1v1h-1v-1z"
     fill="rgb(226,239,252)"
     id="path9233" />
  <path
     d="M6 2h1v1h-1v-1z"
     fill="rgb(231,240,253)"
     id="path9235" />
  <path
     d="M7 2h1v1h-1v-1z"
     fill="rgb(235,241,253)"
     id="path9237" />
  <path
     d="M8 2h1v1h-1v-1z"
     fill="rgb(238,245,253)"
     id="path9239" />
  <path
     d="M9 2h1v1h-1v-1z"
     fill="rgb(241,248,253)"
     id="path9241" />
  <path
     d="M10 2h1v1h-1v-1z"
     fill="rgb(247,250,253)"
     id="path9243" />
  <path
     d="M11 2h1v1h-1v-1z"
     fill="rgb(250,252,255)"
     id="path9245" />
  <path
     d="M12 2h1v2h-1v-2z"
     fill="rgb(255,255,255)"
     id="path9247" />
  <path
     d="M13 2h1v1h-1v-1z"
     fill="rgb(247,251,254)"
     id="path9249" />
  <path
     d="M14 2h1v1h-1v-1z"
     fill="rgb(192,218,244)"
     id="path9251" />
  <path
     d="M15 2h1v1h-1v-1z"
     fill="rgb(90,163,217)"
     id="path9253" />
  <path
     d="M2 3h1v1h-1v-1z"
     fill="rgb(87,158,211)"
     id="path9255" />
  <path
     d="M3 3h1v1h-1v-1z"
     fill="rgb(165,202,235)"
     id="path9257" />
  <path
     d="M4 3h1v1h-1v-1z"
     fill="rgb(251,253,255)"
     id="path9259" />
  <path
     d="M5 3h1v1h-1v-1z"
     fill="rgb(213,233,253)"
     id="path9261" />
  <path
     d="M6 3h1v1h-1v-1z"
     fill="rgb(216,235,253)"
     id="path9263" />
  <path
     d="M7 3h1v1h-1v-1z"
     fill="rgb(219,234,253)"
     id="path9265" />
  <path
     d="M8 3h1v1h-1v-1z"
     fill="rgb(223,237,253)"
     id="path9267" />
  <path
     d="M9 3h1v1h-1v-1z"
     fill="rgb(226,240,253)"
     id="path9269" />
  <path
     d="M10 3h1v1h-1v-1z"
     fill="rgb(228,241,253)"
     id="path9271" />
  <path
     d="M11 3h1v1h-1v-1z"
     fill="rgb(228,240,252)"
     id="path9273" />
  <path
     d="M13 3h1v1h-1v-1z"
     fill="rgb(112,160,224)"
     id="path9275" />
  <path
     d="M14 3h1v1h-1v-1z"
     fill="rgb(249,251,255)"
     id="path9277" />
  <path
     d="M15 3h1v1h-1v-1z"
     fill="rgb(135,184,223)"
     id="path9279" />
  <path
     d="M2 4h1v1h-1v-1z"
     fill="rgb(83,153,206)"
     id="path9281" />
  <path
     d="M3 4h1v1h-1v-1z"
     fill="rgb(178,208,237)"
     id="path9283" />
  <path
     d="M4 4h1v1h-1v-1z"
     fill="rgb(240,246,255)"
     id="path9285" />
  <path
     d="M5 4h1v1h-1v-1z"
     fill="rgb(202,225,250)"
     id="path9287" />
  <path
     d="M6 4h1v1h-1v-1z"
     fill="rgb(204,227,251)"
     id="path9289" />
  <path
     d="M7 4h1v1h-1v-1z"
     fill="rgb(208,227,251)"
     id="path9291" />
  <path
     d="M8 4h1v1h-1v-1z"
     fill="rgb(211,230,251)"
     id="path9293" />
  <path
     d="M9 4h1v1h-1v-1z"
     fill="rgb(213,233,251)"
     id="path9295" />
  <path
     d="M10 4h1v1h-1v-1z"
     fill="rgb(216,233,252)"
     id="path9297" />
  <path
     d="M11 4h1v1h-1v-1z"
     fill="rgb(219,234,252)"
     id="path9299" />
  <path
     d="M12 4h1v1h-1v-1z"
     fill="rgb(253,255,255)"
     id="path9301" />
  <path
     d="M13 4h1v1h-1v-1z"
     fill="rgb(113,157,210)"
     id="path9303" />
  <path
     d="M14 4h1v1h-1v-1z"
     fill="rgb(193,217,238)"
     id="path9305" />
  <path
     d="M15 4h1v1h-1v-1z"
     fill="rgb(84,153,207)"
     id="path9307" />
  <path
     d="M2 5h1v1h-1v-1z"
     fill="rgb(81,147,201)"
     id="path9309" />
  <path
     d="M3 5h1v1h-1v-1z"
     fill="rgb(193,217,240)"
     id="path9311" />
  <path
     d="M4 5h1v1h-1v-1z"
     fill="rgb(225,237,251)"
     id="path9313" />
  <path
     d="M5 5h1v1h-1v-1z"
     fill="rgb(192,218,249)"
     id="path9315" />
  <path
     d="M6 5h1v1h-1v-1z"
     fill="rgb(194,220,249)"
     id="path9317" />
  <path
     d="M7 5h1v1h-1v-1z"
     fill="rgb(197,222,249)"
     id="path9319" />
  <path
     d="M8 5h1v1h-1v-1z"
     fill="rgb(199,224,250)"
     id="path9321" />
  <path
     d="M9 5h1v1h-1v-1z"
     fill="rgb(202,226,250)"
     id="path9323" />
  <path
     d="M10 5h1v1h-1v-1z"
     fill="rgb(205,226,250)"
     id="path9325" />
  <path
     d="M11 5h1v1h-1v-1z"
     fill="rgb(208,229,250)"
     id="path9327" />
  <path
     d="M12 5h1v1h-1v-1z"
     fill="rgb(253,254,255)"
     id="path9329" />
  <path
     d="M13 5h1v1h-1v-1z"
     fill="rgb(90,143,203)"
     id="path9331" />
  <path
     d="M14 5h1v1h-1v-1z"
     fill="rgb(81,147,201)"
     id="path9333" />
  <path
     d="M15 5h1v1h-1v-1z"
     fill="rgb(81,147,199)"
     id="path9335" />
  <path
     d="M2 6h1v1h-1v-1z"
     fill="rgb(77,141,195)"
     id="path9337" />
  <path
     d="M3 6h1v1h-1v-1z"
     fill="rgb(216,231,245)"
     id="path9339" />
  <path
     d="M4 6h1v1h-1v-1z"
     fill="rgb(210,229,250)"
     id="path9341" />
  <path
     d="M5 6h1v1h-1v-1z"
     fill="rgb(188,218,249)"
     id="path9343" />
  <path
     d="M6 6h1v1h-1v-1z"
     fill="rgb(110,151,212)"
     id="path9345" />
  <path
     d="M7 6h1v1h-1v-1z"
     fill="rgb(123,158,212)"
     id="path9347" />
  <path
     d="M8 6h1v1h-1v-1z"
     fill="rgb(113,152,208)"
     id="path9349" />
  <path
     d="M9 6h1v1h-1v-1z"
     fill="rgb(130,164,214)"
     id="path9351" />
  <path
     d="M10 6h1v1h-1v-1z"
     fill="rgb(104,142,205)"
     id="path9353" />
  <path
     d="M11 6h1v1h-1v-1z"
     fill="rgb(105,144,205)"
     id="path9355" />
  <path
     d="M12 6h1v1h-1v-1z"
     fill="rgb(117,154,208)"
     id="path9357" />
  <path
     d="M13 6h1v1h-1v-1z"
     fill="rgb(115,153,209)"
     id="path9359" />
  <path
     d="M14 6h1v1h-1v-1z"
     fill="rgb(98,139,200)"
     id="path9361" />
  <path
     d="M15 6h1v1h-1v-1z"
     fill="rgb(28,89,170)"
     id="path9363" />
  <path
     d="M2 7h1v1h-1v-1z"
     fill="rgb(74,135,188)"
     id="path9365" />
  <path
     d="M3 7h1v1h-1v-1z"
     fill="rgb(240,246,252)"
     id="path9367" />
  <path
     d="M4 7h1v1h-1v-1z"
     fill="rgb(199,223,249)"
     id="path9369" />
  <path
     d="M5 7h1v1h-1v-1z"
     fill="rgb(189,220,249)"
     id="path9371" />
  <path
     d="M6 7h1v1h-1v-1z"
     fill="rgb(101,141,204)"
     id="path9373" />
  <path
     d="M7 7h1v1h-1v-1z"
     fill="rgb(176,205,243)"
     id="path9375" />
  <path
     d="M8 7h1v2h-1v-2z"
     fill="rgb(255,255,255)"
     id="path9377" />
  <path
     d="M9 7h1v1h-1v-1z"
     fill="rgb(179,199,227)"
     id="path9379" />
  <path
     d="M10 7h4v1h-2v1h-2v-2z"
     fill="rgb(255,255,255)"
     id="path9381" />
  <path
     d="M14 7h1v1h-1v-1z"
     fill="rgb(161,191,234)"
     id="path9383" />
  <path
     d="M15 7h1v1h-1v-1z"
     fill="rgb(96,137,201)"
     id="path9385" />
  <path
     d="M1 8h1v1h-1v-1z"
     fill="rgb(56,113,170)"
     id="path9387" />
  <path
     d="M2 8h1v1h-1v-1z"
     fill="rgb(75,133,185)"
     id="path9389" />
  <path
     d="M3 8h1v1h-1v-1z"
     fill="rgb(247,251,254)"
     id="path9391" />
  <path
     d="M4 8h1v1h-1v-1z"
     fill="rgb(193,220,249)"
     id="path9393" />
  <path
     d="M5 8h1v1h-1v-1z"
     fill="rgb(191,220,248)"
     id="path9395" />
  <path
     d="M6 8h1v1h-1v-1z"
     fill="rgb(91,134,199)"
     id="path9397" />
  <path
     d="M7 8h1v1h-1v-1z"
     fill="rgb(158,192,239)"
     id="path9399" />
  <path
     d="M9 8h1v1h-1v-1z"
     fill="rgb(110,147,204)"
     id="path9401" />
  <path
     d="M12 8h1v1h-1v-1z"
     fill="rgb(247,251,255)"
     id="path9403" />
  <path
     d="M13 8h1v1h-1v-1z"
     fill="rgb(241,248,255)"
     id="path9405" />
  <path
     d="M14 8h1v1h-1v-1z"
     fill="rgb(140,175,228)"
     id="path9407" />
  <path
     d="M15 8h1v1h-1v-1z"
     fill="rgb(97,138,199)"
     id="path9409" />
  <path
     d="M1 9h1v1h-1v-1z"
     fill="rgb(59,119,170)"
     id="path9411" />
  <path
     d="M2 9h1v1h-1v-1z"
     fill="rgb(82,134,185)"
     id="path9413" />
  <path
     d="M3 9h1v1h-1v-1z"
     fill="rgb(249,252,254)"
     id="path9415" />
  <path
     d="M4 9h1v1h-1v-1z"
     fill="rgb(191,220,249)"
     id="path9417" />
  <path
     d="M5 9h1v1h-1v-1z"
     fill="rgb(191,219,248)"
     id="path9419" />
  <path
     d="M6 9h1v1h-1v-1z"
     fill="rgb(93,136,200)"
     id="path9421" />
  <path
     d="M7 9h1v1h-1v-1z"
     fill="rgb(161,191,239)"
     id="path9423" />
  <path
     d="M8 9h1v1h-1v-1z"
     fill="rgb(250,252,253)"
     id="path9425" />
  <path
     d="M9 9h1v1h-1v-1z"
     fill="rgb(251,252,254)"
     id="path9427" />
  <path
     d="M10 9h1v1h-1v-1z"
     fill="rgb(253,253,254)"
     id="path9429" />
  <path
     d="M11 9h1v1h-1v-1z"
     fill="rgb(252,253,254)"
     id="path9431" />
  <path
     d="M12 9h1v1h-1v-1z"
     fill="rgb(250,251,253)"
     id="path9433" />
  <path
     d="M13 9h1v1h-1v-1z"
     fill="rgb(251,252,253)"
     id="path9435" />
  <path
     d="M14 9h1v1h-1v-1z"
     fill="rgb(133,168,221)"
     id="path9437" />
  <path
     d="M15 9h1v1h-1v-1z"
     fill="rgb(83,127,193)"
     id="path9439" />
  <path
     d="M1 10h1v1h-1v-1z"
     fill="rgb(63,114,165)"
     id="path9441" />
  <path
     d="M2 10h1v1h-1v-1z"
     fill="rgb(86,134,183)"
     id="path9443" />
  <path
     d="M3 10h1v1h-1v-1z"
     fill="rgb(253,254,254)"
     id="path9445" />
  <path
     d="M4 10h1v1h-1v-1z"
     fill="rgb(194,222,250)"
     id="path9447" />
  <path
     d="M5 10h1v1h-1v-1z"
     fill="rgb(191,220,250)"
     id="path9449" />
  <path
     d="M6 10h1v1h-1v-1z"
     fill="rgb(101,141,202)"
     id="path9451" />
  <path
     d="M7 10h1v1h-1v-1z"
     fill="rgb(153,184,234)"
     id="path9453" />
  <path
     d="M8 10h1v1h-1v-1z"
     fill="rgb(126,165,221)"
     id="path9455" />
  <path
     d="M9 10h1v1h-1v-1z"
     fill="rgb(128,166,221)"
     id="path9457" />
  <path
     d="M10 10h1v1h-1v-1z"
     fill="rgb(124,163,219)"
     id="path9459" />
  <path
     d="M11 10h1v1h-1v-1z"
     fill="rgb(122,160,217)"
     id="path9461" />
  <path
     d="M12 10h1v1h-1v-1z"
     fill="rgb(121,160,217)"
     id="path9463" />
  <path
     d="M13 10h1v1h-1v-1z"
     fill="rgb(120,159,216)"
     id="path9465" />
  <path
     d="M14 10h1v1h-1v-1z"
     fill="rgb(120,158,216)"
     id="path9467" />
  <path
     d="M15 10h1v1h-1v-1z"
     fill="rgb(93,132,191)"
     id="path9469" />
  <path
     d="M0 11h1v1h-1v-1z"
     fill="rgb(51,102,153)"
     id="path9471" />
  <path
     d="M1 11h1v1h-1v-1z"
     fill="rgb(59,110,162)"
     id="path9473" />
  <path
     d="M2 11h1v1h-1v-1z"
     fill="rgb(140,174,213)"
     id="path9475" />
  <path
     d="M3 11h1v1h-1v-1z"
     fill="rgb(229,240,253)"
     id="path9477" />
  <path
     d="M4 11h1v1h-1v-1z"
     fill="rgb(162,199,247)"
     id="path9479" />
  <path
     d="M5 11h1v1h-1v-1z"
     fill="rgb(173,207,247)"
     id="path9481" />
  <path
     d="M6 11h1v1h-1v-1z"
     fill="rgb(97,139,201)"
     id="path9483" />
  <path
     d="M7 11h1v1h-1v-1z"
     fill="rgb(146,181,230)"
     id="path9485" />
  <path
     d="M8 11h1v1h-1v-1z"
     fill="rgb(129,167,226)"
     id="path9487" />
  <path
     d="M9 11h1v1h-1v-1z"
     fill="rgb(129,167,225)"
     id="path9489" />
  <path
     d="M10 11h1v1h-1v-1z"
     fill="rgb(125,163,222)"
     id="path9491" />
  <path
     d="M11 11h1v1h-1v-1z"
     fill="rgb(123,161,220)"
     id="path9493" />
  <path
     d="M12 11h1v1h-1v-1z"
     fill="rgb(121,159,219)"
     id="path9495" />
  <path
     d="M13 11h1v1h-1v-1z"
     fill="rgb(119,158,217)"
     id="path9497" />
  <path
     d="M14 11h1v1h-1v-1z"
     fill="rgb(115,154,212)"
     id="path9499" />
  <path
     d="M15 11h1v1h-1v-1z"
     fill="rgb(87,126,187)"
     id="path9501" />
  <path
     d="M0 12h1v1h-1v-1z"
     fill="rgb(55,102,155)"
     id="path9503" />
  <path
     d="M1 12h1v1h-1v-1z"
     fill="rgb(55,104,157)"
     id="path9505" />
  <path
     d="M2 12h1v1h-1v-1z"
     fill="rgb(89,133,180)"
     id="path9507" />
  <path
     d="M3 12h1v1h-1v-1z"
     fill="rgb(123,165,217)"
     id="path9509" />
  <path
     d="M4 12h1v1h-1v-1z"
     fill="rgb(111,158,216)"
     id="path9511" />
  <path
     d="M5 12h1v1h-1v-1z"
     fill="rgb(106,155,215)"
     id="path9513" />
  <path
     d="M6 12h1v1h-1v-1z"
     fill="rgb(84,129,196)"
     id="path9515" />
  <path
     d="M7 12h1v1h-1v-1z"
     fill="rgb(151,182,234)"
     id="path9517" />
  <path
     d="M8 12h1v1h-1v-1z"
     fill="rgb(234,243,243)"
     id="path9519" />
  <path
     d="M9 12h1v1h-1v-1z"
     fill="rgb(230,241,237)"
     id="path9521" />
  <path
     d="M10 12h1v1h-1v-1z"
     fill="rgb(230,241,239)"
     id="path9523" />
  <path
     d="M11 12h1v1h-1v-1z"
     fill="rgb(230,240,239)"
     id="path9525" />
  <path
     d="M12 12h1v1h-1v-1z"
     fill="rgb(229,241,237)"
     id="path9527" />
  <path
     d="M13 12h1v1h-1v-1z"
     fill="rgb(237,245,243)"
     id="path9529" />
  <path
     d="M14 12h1v1h-1v-1z"
     fill="rgb(121,156,213)"
     id="path9531" />
  <path
     d="M15 12h1v1h-1v-1z"
     fill="rgb(68,112,176)"
     id="path9533" />
  <path
     d="M0 13h1v1h-1v-1z"
     fill="rgb(53,98,152)"
     id="path9535" />
  <path
     d="M1 13h1v1h-1v-1z"
     fill="rgb(133,164,199)"
     id="path9537" />
  <path
     d="M2 13h4v1h-4v-1z"
     fill="rgb(255,255,255)"
     id="path9539" />
  <path
     d="M6 13h1v1h-1v-1z"
     fill="rgb(81,127,195)"
     id="path9541" />
  <path
     d="M7 13h1v1h-1v-1z"
     fill="rgb(154,182,239)"
     id="path9543" />
  <path
     d="M8 13h1v1h-1v-1z"
     fill="rgb(232,243,234)"
     id="path9545" />
  <path
     d="M9 13h1v1h-1v-1z"
     fill="rgb(132,191,81)"
     id="path9547" />
  <path
     d="M10 13h1v1h-1v-1z"
     fill="rgb(152,201,111)"
     id="path9549" />
  <path
     d="M11 13h1v1h-1v-1z"
     fill="rgb(153,201,113)"
     id="path9551" />
  <path
     d="M12 13h1v1h-1v-1z"
     fill="rgb(132,191,84)"
     id="path9553" />
  <path
     d="M13 13h1v1h-1v-1z"
     fill="rgb(233,244,228)"
     id="path9555" />
  <path
     d="M14 13h1v1h-1v-1z"
     fill="rgb(123,156,221)"
     id="path9557" />
  <path
     d="M15 13h1v1h-1v-1z"
     fill="rgb(58,105,170)"
     id="path9559" />
  <path
     d="M0 14h1v1h-1v-1z"
     fill="rgb(49,93,147)"
     id="path9561" />
  <path
     d="M1 14h1v1h-1v-1z"
     fill="rgb(109,144,184)"
     id="path9563" />
  <path
     d="M2 14h1v1h-1v-1z"
     fill="rgb(163,186,214)"
     id="path9565" />
  <path
     d="M3 14h1v1h-1v-1z"
     fill="rgb(179,198,223)"
     id="path9567" />
  <path
     d="M4 14h1v1h-1v-1z"
     fill="rgb(195,212,231)"
     id="path9569" />
  <path
     d="M5 14h1v1h-1v-1z"
     fill="rgb(211,223,238)"
     id="path9571" />
  <path
     d="M6 14h1v1h-1v-1z"
     fill="rgb(85,131,198)"
     id="path9573" />
  <path
     d="M7 14h1v1h-1v-1z"
     fill="rgb(186,206,239)"
     id="path9575" />
  <path
     d="M8 14h1v1h-1v-1z"
     fill="rgb(255,255,221)"
     id="path9577" />
  <path
     d="M9 14h1v1h-1v-1z"
     fill="rgb(199,238,135)"
     id="path9579" />
  <path
     d="M10 14h1v1h-1v-1z"
     fill="rgb(215,244,162)"
     id="path9581" />
  <path
     d="M11 14h1v1h-1v-1z"
     fill="rgb(215,246,162)"
     id="path9583" />
  <path
     d="M12 14h1v1h-1v-1z"
     fill="rgb(199,238,140)"
     id="path9585" />
  <path
     d="M13 14h1v1h-1v-1z"
     fill="rgb(255,255,224)"
     id="path9587" />
  <path
     d="M14 14h1v1h-1v-1z"
     fill="rgb(133,162,221)"
     id="path9589" />
  <path
     d="M15 14h1v1h-1v-1z"
     fill="rgb(62,106,171)"
     id="path9591" />
  <path
     d="M0 15h1v1h-1v-1z"
     fill="rgb(38,89,140)"
     id="path9593" />
  <path
     d="M1 15h1v1h-1v-1z"
     fill="rgb(48,90,142)"
     id="path9595" />
  <path
     d="M2 15h1v1h-1v-1z"
     fill="rgb(48,90,143)"
     id="path9597" />
  <path
     d="M3 15h1v1h-1v-1z"
     fill="rgb(47,89,142)"
     id="path9599" />
  <path
     d="M4 15h1v1h-1v-1z"
     fill="rgb(48,90,143)"
     id="path9601" />
  <path
     d="M5 15h1v1h-1v-1z"
     fill="rgb(47,90,143)"
     id="path9603" />
  <path
     d="M6 15h1v1h-1v-1z"
     fill="rgb(51,100,176)"
     id="path9605" />
  <path
     d="M7 15h1v1h-1v-1z"
     fill="rgb(88,132,195)"
     id="path9607" />
  <path
     d="M8 15h1v1h-1v-1z"
     fill="rgb(104,139,211)"
     id="path9609" />
  <path
     d="M9 15h1v1h-1v-1z"
     fill="rgb(112,143,225)"
     id="path9611" />
  <path
     d="M10 15h1v1h-1v-1z"
     fill="rgb(108,141,220)"
     id="path9613" />
  <path
     d="M11 15h1v1h-1v-1z"
     fill="rgb(109,139,218)"
     id="path9615" />
  <path
     d="M12 15h1v1h-1v-1z"
     fill="rgb(110,138,215)"
     id="path9617" />
  <path
     d="M13 15h1v1h-1v-1z"
     fill="rgb(108,139,205)"
     id="path9619" />
  <path
     d="M14 15h1v1h-1v-1z"
     fill="rgb(68,109,171)"
     id="path9621" />
  <path
     d="M15 15h1v1h-1v-1z"
     fill="rgb(46,95,166)"
     id="path9623" />
</svg>
