<?xml version="1.0" encoding="UTF-8" standalone="no"?>
<!-- generated at drububu.com  -->

<svg
   xmlns:dc="http://purl.org/dc/elements/1.1/"
   xmlns:cc="http://creativecommons.org/ns#"
   xmlns:rdf="http://www.w3.org/1999/02/22-rdf-syntax-ns#"
   xmlns:svg="http://www.w3.org/2000/svg"
   xmlns="http://www.w3.org/2000/svg"
   xmlns:sodipodi="http://sodipodi.sourceforge.net/DTD/sodipodi-0.dtd"
   xmlns:inkscape="http://www.inkscape.org/namespaces/inkscape"
   version="1.1"
   preserveAspectRatio="xMinYMin meet"
   x="0px"
   y="0px"
   width="20px"
   height="20px"
   viewBox="0 0 20 20"
   id="svg3866"
   inkscape:version="0.91 r13725"
   sodipodi:docname="search.svg">
  <metadata
     id="metadata3920">
    <rdf:RDF>
      <cc:Work
         rdf:about="">
        <dc:format>image/svg+xml</dc:format>
        <dc:type
           rdf:resource="http://purl.org/dc/dcmitype/StillImage" />
        <dc:title></dc:title>
      </cc:Work>
    </rdf:RDF>
  </metadata>
  <defs
     id="defs3918" />
  <sodipodi:namedview
     pagecolor="#ffffff"
     bordercolor="#666666"
     borderopacity="1"
     objecttolerance="10"
     gridtolerance="10"
     guidetolerance="10"
     inkscape:pageopacity="0"
     inkscape:pageshadow="2"
     inkscape:window-width="2560"
     inkscape:window-height="1315"
     id="namedview3916"
     showgrid="true"
     inkscape:zoom="57.45"
     inkscape:cx="10"
     inkscape:cy="10"
     inkscape:window-x="0"
     inkscape:window-y="1"
     inkscape:window-maximized="1"
     inkscape:current-layer="svg3866">
    <inkscape:grid
       type="xygrid"
       id="grid3922" />
  </sodipodi:namedview>
  <rect
     style="fill:#606a70;fill-opacity:1"
     id="rect3929"
     width="3"
     height="6.5126195"
     x="-0.4698022"
     y="16.997469"
     transform="matrix(0.70710678,-0.70710678,0.70710678,0.70710678,0,0)" />
  <path
     d="m 12.238025,12.02346 0.707107,-0.707106 4.091865,4.091865 -0.707107,0.707106 -4.091865,-4.091865 z"
     id="path3912"
     inkscape:connector-curvature="0"
     style="fill:#4a5a7b" />
  <path
     style="fill:#606a70;fill-opacity:1"
     d="M 9,1 A 6.3176675,6 0 0 0 2.681641,7 6.3176675,6 0 0 0 9,13 6.3176675,6 0 0 0 15.318359,7 6.3176675,6 0 0 0 9,1 Z M 9,2.3027344 A 5,4.6971278 0 0 1 14,7 5,4.6971278 0 0 1 9,11.697266 5,4.6971278 0 0 1 4,7 5,4.6971278 0 0 1 9,2.3027344 Z"
     id="path3924"
     inkscape:connector-curvature="0" />
</svg>
