<?xml version="1.0" encoding="UTF-8" standalone="no"?>
<!-- generated at drububu.com  -->

<svg
   xmlns:dc="http://purl.org/dc/elements/1.1/"
   xmlns:cc="http://creativecommons.org/ns#"
   xmlns:rdf="http://www.w3.org/1999/02/22-rdf-syntax-ns#"
   xmlns:svg="http://www.w3.org/2000/svg"
   xmlns="http://www.w3.org/2000/svg"
   xmlns:sodipodi="http://sodipodi.sourceforge.net/DTD/sodipodi-0.dtd"
   xmlns:inkscape="http://www.inkscape.org/namespaces/inkscape"
   version="1.1"
   preserveAspectRatio="xMinYMin meet"
   x="0px"
   y="0px"
   width="20px"
   height="20px"
   viewBox="0 0 20 20"
   id="svg4452"
   inkscape:version="0.91 r13725"
   sodipodi:docname="u_admin.svg">
  <metadata
     id="metadata4498">
    <rdf:RDF>
      <cc:Work
         rdf:about="">
        <dc:format>image/svg+xml</dc:format>
        <dc:type
           rdf:resource="http://purl.org/dc/dcmitype/StillImage" />
      </cc:Work>
    </rdf:RDF>
  </metadata>
  <defs
     id="defs4496" />
  <sodipodi:namedview
     pagecolor="#ffffff"
     bordercolor="#666666"
     borderopacity="1"
     objecttolerance="10"
     gridtolerance="10"
     guidetolerance="10"
     inkscape:pageopacity="0"
     inkscape:pageshadow="2"
     inkscape:window-width="640"
     inkscape:window-height="480"
     id="namedview4494"
     showgrid="false"
     inkscape:zoom="11.8"
     inkscape:cx="10"
     inkscape:cy="10"
     inkscape:window-x="0"
     inkscape:window-y="0"
     inkscape:window-maximized="0"
     inkscape:current-layer="svg4452" />
  <path
     d="M7 1h1v1h-1v-1z"
     fill="rgb(255,204,51)"
     id="path4456" />
  <path
     d="M8 1h3v1h1v1h-7v-1h3v-1z"
     fill="rgb(255,126,0)"
     id="path4458" />
  <path
     d="M11 1h1v1h-1v-1z"
     fill="rgb(255,204,51)"
     id="path4460" />
  <path
     d="M7 3h1v2h-1v-2z"
     fill="rgb(64,63,54)"
     id="path4462" />
  <path
     d="M8 3h3v1h-2v1h-1v-2z"
     fill="rgb(254,219,183)"
     id="path4464" />
  <path
     d="M11 3h1v2h-1v-2z"
     fill="rgb(64,63,54)"
     id="path4466" />
  <path
     d="M9 4h2v1h-2v-1z"
     fill="rgb(253,204,156)"
     id="path4468" />
  <path
     d="M12 4h1v2h-1v1h-3v-1h2v-1h1v-1z"
     fill="rgb(243,243,243)"
     id="path4470" />
  <path
     d="M8 5h3v1h-3v-1z"
     fill="rgb(64,63,54)"
     id="path4472" />
  <path
     d="M6 7h7v1h-1v4h1v-4h1v5h-2v5h-5v-5h-2v-5h1v-1z"
     fill="rgb(64,63,54)"
     id="path4474" />
  <path
     d="M6 8h1v4h-1v-4z"
     fill="rgb(254,219,183)"
     id="path4476" />
  <path
     d="M8 8h2v1h-1v3h-1v-4z"
     fill="rgb(255,204,51)"
     id="path4478" />
  <path
     d="M10 8h1v4h-2v-3h1v-1z"
     fill="rgb(255,153,0)"
     id="path4480" />
  <path
     d="M12 8h1v4h-1v-4z"
     fill="rgb(254,219,183)"
     id="path4482" />
  <path
     d="M14 9h1v5h-2v5h-5v-1h4v-5h2v-4z"
     fill="rgb(243,243,243)"
     id="path4484" />
  <path
     d="M6 13h1v1h-1v-1z"
     fill="rgb(243,243,243)"
     id="path4486" />
  <path
     d="M8 13h1v4h-1v-4z"
     fill="rgb(81,156,177)"
     id="path4488" />
  <path
     d="M9 13h1v4h-1v-4z"
     fill="rgb(58,121,139)"
     id="path4490" />
  <path
     d="M10 13h1v4h-1v-4z"
     fill="rgb(81,156,177)"
     id="path4492" />
</svg>
