<?xml version="1.0" encoding="UTF-8" standalone="no"?>
<!-- generated at drububu.com  -->

<svg
   xmlns:dc="http://purl.org/dc/elements/1.1/"
   xmlns:cc="http://creativecommons.org/ns#"
   xmlns:rdf="http://www.w3.org/1999/02/22-rdf-syntax-ns#"
   xmlns:svg="http://www.w3.org/2000/svg"
   xmlns="http://www.w3.org/2000/svg"
   xmlns:sodipodi="http://sodipodi.sourceforge.net/DTD/sodipodi-0.dtd"
   xmlns:inkscape="http://www.inkscape.org/namespaces/inkscape"
   version="1.1"
   preserveAspectRatio="xMinYMin meet"
   x="0px"
   y="0px"
   width="13px"
   height="20px"
   viewBox="0 0 13 20"
   id="svg5271"
   inkscape:version="0.91 r13725"
   sodipodi:docname="u_end.svg">
  <metadata
     id="metadata5303">
    <rdf:RDF>
      <cc:Work
         rdf:about="">
        <dc:format>image/svg+xml</dc:format>
        <dc:type
           rdf:resource="http://purl.org/dc/dcmitype/StillImage" />
      </cc:Work>
    </rdf:RDF>
  </metadata>
  <defs
     id="defs5301" />
  <sodipodi:namedview
     pagecolor="#ffffff"
     bordercolor="#666666"
     borderopacity="1"
     objecttolerance="10"
     gridtolerance="10"
     guidetolerance="10"
     inkscape:pageopacity="0"
     inkscape:pageshadow="2"
     inkscape:window-width="640"
     inkscape:window-height="480"
     id="namedview5299"
     showgrid="false"
     inkscape:zoom="11.8"
     inkscape:cx="6.5"
     inkscape:cy="10"
     inkscape:window-x="0"
     inkscape:window-y="0"
     inkscape:window-maximized="0"
     inkscape:current-layer="svg5271" />
  <path
     d="M7 2h1v16h-1v-16z"
     fill="rgb(192,192,192)"
     id="path5275" />
  <path
     d="M9 2h1v16h-1v-16z"
     fill="rgb(192,192,192)"
     id="path5277" />
  <path
     d="M3 3h2v2h-2v-2z"
     fill="rgb(192,192,192)"
     id="path5279" />
  <path
     d="M8 3h1v16h-1v-16z"
     fill="rgb(243,243,243)"
     id="path5281" />
  <path
     d="M10 3h1v16h-1v-16z"
     fill="rgb(243,243,243)"
     id="path5283" />
  <path
     d="M5 4h1v2h-2v-1h1v-1z"
     fill="rgb(243,243,243)"
     id="path5285" />
  <path
     d="M3 7h2v2h-2v-2z"
     fill="rgb(192,192,192)"
     id="path5287" />
  <path
     d="M5 8h1v2h-2v-1h1v-1z"
     fill="rgb(243,243,243)"
     id="path5289" />
  <path
     d="M3 11h2v2h-2v-2z"
     fill="rgb(192,192,192)"
     id="path5291" />
  <path
     d="M5 12h1v2h-2v-1h1v-1z"
     fill="rgb(243,243,243)"
     id="path5293" />
  <path
     d="M3 15h2v2h-2v-2z"
     fill="rgb(192,192,192)"
     id="path5295" />
  <path
     d="M5 16h1v2h-2v-1h1v-1z"
     fill="rgb(243,243,243)"
     id="path5297" />
</svg>
