<?xml version="1.0" encoding="UTF-8" standalone="no"?>
<!-- generated at drububu.com  -->

<svg
   xmlns:dc="http://purl.org/dc/elements/1.1/"
   xmlns:cc="http://creativecommons.org/ns#"
   xmlns:rdf="http://www.w3.org/1999/02/22-rdf-syntax-ns#"
   xmlns:svg="http://www.w3.org/2000/svg"
   xmlns="http://www.w3.org/2000/svg"
   xmlns:sodipodi="http://sodipodi.sourceforge.net/DTD/sodipodi-0.dtd"
   xmlns:inkscape="http://www.inkscape.org/namespaces/inkscape"
   version="1.1"
   preserveAspectRatio="xMinYMin meet"
   x="0px"
   y="0px"
   width="20px"
   height="20px"
   viewBox="0 0 20 20"
   id="svg4500"
   inkscape:version="0.91 r13725"
   sodipodi:docname="u_group.svg">
  <metadata
     id="metadata4572">
    <rdf:RDF>
      <cc:Work
         rdf:about="">
        <dc:format>image/svg+xml</dc:format>
        <dc:type
           rdf:resource="http://purl.org/dc/dcmitype/StillImage" />
      </cc:Work>
    </rdf:RDF>
  </metadata>
  <defs
     id="defs4570" />
  <sodipodi:namedview
     pagecolor="#ffffff"
     bordercolor="#666666"
     borderopacity="1"
     objecttolerance="10"
     gridtolerance="10"
     guidetolerance="10"
     inkscape:pageopacity="0"
     inkscape:pageshadow="2"
     inkscape:window-width="640"
     inkscape:window-height="480"
     id="namedview4568"
     showgrid="false"
     inkscape:zoom="11.8"
     inkscape:cx="10"
     inkscape:cy="10"
     inkscape:window-x="0"
     inkscape:window-y="0"
     inkscape:window-maximized="0"
     inkscape:current-layer="svg4500" />
  <path
     d="M5 2h3v1h-3v-1z"
     fill="rgb(64,63,54)"
     id="path4504" />
  <path
     d="M11 2h3v1h-3v-1z"
     fill="rgb(64,63,54)"
     id="path4506" />
  <path
     d="M4 3h1v2h-1v-2z"
     fill="rgb(64,63,54)"
     id="path4508" />
  <path
     d="M5 3h3v1h-2v1h-1v-2z"
     fill="rgb(254,219,183)"
     id="path4510" />
  <path
     d="M8 3h1v2h-1v-2z"
     fill="rgb(64,63,54)"
     id="path4512" />
  <path
     d="M10 3h1v2h-1v-2z"
     fill="rgb(64,63,54)"
     id="path4514" />
  <path
     d="M11 3h3v1h-2v1h-1v-2z"
     fill="rgb(254,219,183)"
     id="path4516" />
  <path
     d="M14 3h1v2h-1v-2z"
     fill="rgb(64,63,54)"
     id="path4518" />
  <path
     d="M6 4h2v1h-2v-1z"
     fill="rgb(253,204,156)"
     id="path4520" />
  <path
     d="M9 4h1v2h-1v1h-3v-1h2v-1h1v-1z"
     fill="rgb(243,243,243)"
     id="path4522" />
  <path
     d="M12 4h2v1h-2v-1z"
     fill="rgb(253,204,156)"
     id="path4524" />
  <path
     d="M15 4h1v2h-1v1h-3v-1h2v-1h1v-1z"
     fill="rgb(243,243,243)"
     id="path4526" />
  <path
     d="M5 5h3v1h-3v-1z"
     fill="rgb(64,63,54)"
     id="path4528" />
  <path
     d="M11 5h3v1h-3v-1z"
     fill="rgb(64,63,54)"
     id="path4532" />
  <path
     d="M3 7h13v1h-1v4h1v-4h1v5h-2v5h-5v-5h-1v5h-5v-5h-2v-5h1v-1z"
     fill="rgb(64,63,54)"
     id="path4534" />
  <path
     d="M3 8h1v4h-1v-4z"
     fill="rgb(254,219,183)"
     id="path4536" />
  <path
     d="M5 8h2v1h-1v3h-1v-4z"
     fill="rgb(255,204,51)"
     id="path4538" />
  <path
     d="M7 8h1v4h-2v-3h1v-1z"
     fill="rgb(255,153,0)"
     id="path4540" />
  <path
     d="M9 8h1v4h-1v-4z"
     fill="rgb(254,219,183)"
     id="path4542" />
  <path
     d="M11 8h2v1h-1v3h-1v-4z"
     fill="rgb(255,204,51)"
     id="path4544" />
  <path
     d="M13 8h1v4h-2v-3h1v-1z"
     fill="rgb(255,153,0)"
     id="path4546" />
  <path
     d="M15 8h1v4h-1v-4z"
     fill="rgb(254,219,183)"
     id="path4548" />
  <path
     d="M17 9h1v5h-2v5h-5v-1h4v-5h2v-4z"
     fill="rgb(243,243,243)"
     id="path4550" />
  <path
     d="M3 13h1v1h-1v-1z"
     fill="rgb(243,243,243)"
     id="path4552" />
  <path
     d="M5 13h1v4h-1v-4z"
     fill="rgb(81,156,177)"
     id="path4554" />
  <path
     d="M6 13h1v4h-1v-4z"
     fill="rgb(58,121,139)"
     id="path4556" />
  <path
     d="M7 13h1v4h-1v-4z"
     fill="rgb(81,156,177)"
     id="path4558" />
  <path
     d="M9 13h1v6h-5v-1h4v-5z"
     fill="rgb(243,243,243)"
     id="path4560" />
  <path
     d="M11 13h1v4h-1v-4z"
     fill="rgb(81,156,177)"
     id="path4562" />
  <path
     d="M12 13h1v4h-1v-4z"
     fill="rgb(58,121,139)"
     id="path4564" />
  <path
     d="M13 13h1v4h-1v-4z"
     fill="rgb(81,156,177)"
     id="path4566" />
</svg>
