<?xml version="1.0" encoding="UTF-8" standalone="no"?>
<!-- generated at drububu.com  -->

<svg
   xmlns:dc="http://purl.org/dc/elements/1.1/"
   xmlns:cc="http://creativecommons.org/ns#"
   xmlns:rdf="http://www.w3.org/1999/02/22-rdf-syntax-ns#"
   xmlns:svg="http://www.w3.org/2000/svg"
   xmlns="http://www.w3.org/2000/svg"
   xmlns:sodipodi="http://sodipodi.sourceforge.net/DTD/sodipodi-0.dtd"
   xmlns:inkscape="http://www.inkscape.org/namespaces/inkscape"
   version="1.1"
   preserveAspectRatio="xMinYMin meet"
   x="0px"
   y="0px"
   width="20px"
   height="20px"
   viewBox="0 0 20 20"
   id="svg5323"
   inkscape:version="0.91 r13725"
   sodipodi:docname="u_refresh.svg">
  <metadata
     id="metadata5417">
    <rdf:RDF>
      <cc:Work
         rdf:about="">
        <dc:format>image/svg+xml</dc:format>
        <dc:type
           rdf:resource="http://purl.org/dc/dcmitype/StillImage" />
      </cc:Work>
    </rdf:RDF>
  </metadata>
  <defs
     id="defs5415" />
  <sodipodi:namedview
     pagecolor="#ffffff"
     bordercolor="#666666"
     borderopacity="1"
     objecttolerance="10"
     gridtolerance="10"
     guidetolerance="10"
     inkscape:pageopacity="0"
     inkscape:pageshadow="2"
     inkscape:window-width="640"
     inkscape:window-height="480"
     id="namedview5413"
     showgrid="false"
     inkscape:zoom="11.8"
     inkscape:cx="10"
     inkscape:cy="10"
     inkscape:window-x="0"
     inkscape:window-y="0"
     inkscape:window-maximized="0"
     inkscape:current-layer="svg5323" />
  <path
     d="M7 3h1v1h-1v-1z"
     fill="rgb(208,233,215)"
     id="path5327" />
  <path
     d="M8 3h1v1h-1v-1z"
     fill="rgb(111,201,104)"
     id="path5329" />
  <path
     d="M9 3h2v1h-2v-1z"
     fill="rgb(59,175,68)"
     id="path5331" />
  <path
     d="M11 3h1v1h-1v-1z"
     fill="rgb(118,198,138)"
     id="path5333" />
  <path
     d="M13 3h1v6h-5v-1h2v-2h-4v1h-1v-2h1v-1h5v1h1v-2z"
     fill="rgb(2,152,1)"
     id="path5335" />
  <path
     d="M6 4h1v1h-1v-1z"
     fill="rgb(148,210,147)"
     id="path5337" />
  <path
     d="M12 4h1v1h-1v-1z"
     fill="rgb(29,164,33)"
     id="path5339" />
  <path
     d="M14 4h1v6h-5v-1h4v-5z"
     fill="rgb(243,243,243)"
     id="path5341" />
  <path
     d="M5 5h1v1h-1v-1z"
     fill="rgb(208,233,215)"
     id="path5343" />
  <path
     d="M5 6h1v1h-1v-1z"
     fill="rgb(59,175,68)"
     id="path5345" />
  <path
     d="M7 6h1v1h-1v-1z"
     fill="rgb(118,198,138)"
     id="path5347" />
  <path
     d="M8 6h2v1h-1v1h-1v1h-1v1h-1v1h-1v-2h1v-1h1v-1h1v-1z"
     fill="rgb(243,243,243)"
     id="path5349" />
  <path
     d="M10 6h1v1h-1v-1z"
     fill="rgb(75,179,74)"
     id="path5351" />
  <path
     d="M4 7h1v1h-1v-1z"
     fill="rgb(208,233,215)"
     id="path5353" />
  <path
     d="M5 7h1v1h-1v-1z"
     fill="rgb(13,158,17)"
     id="path5355" />
  <path
     d="M6 7h1v1h-1v-1z"
     fill="rgb(208,233,215)"
     id="path5357" />
  <path
     d="M10 7h1v1h-1v-1z"
     fill="rgb(45,178,41)"
     id="path5361" />
  <path
     d="M4 8h1v2h-1v-2z"
     fill="rgb(118,198,138)"
     id="path5363" />
  <path
     d="M5 8h1v1h-1v-1z"
     fill="rgb(186,219,191)"
     id="path5365" />
  <path
     d="M5 11h6v1h-2v2h4v1h-1v1h-4v-1h-2v2h-1v-6z"
     fill="rgb(2,152,1)"
     id="path5367" />
  <path
     d="M13 11h1v1h-1v-1z"
     fill="rgb(186,219,191)"
     id="path5369" />
  <path
     d="M14 11h1v1h-1v-1z"
     fill="rgb(45,178,41)"
     id="path5371" />
  <path
     d="M9 12h1v1h-1v-1z"
     fill="rgb(118,198,138)"
     id="path5373" />
  <path
     d="M10 12h2v1h-2v-1z"
     fill="rgb(243,243,243)"
     id="path5375" />
  <path
     d="M12 12h1v1h-1v-1z"
     fill="rgb(208,233,215)"
     id="path5377" />
  <path
     d="M13 12h2v1h-2v-1z"
     fill="rgb(59,175,68)"
     id="path5379" />
  <path
     d="M15 12h1v3h-1v1h-1v1h-1v1h-4v-1h3v-1h1v-1h1v-1h1v-2z"
     fill="rgb(243,243,243)"
     id="path5381" />
  <path
     d="M9 13h1v1h-1v-1z"
     fill="rgb(45,178,41)"
     id="path5383" />
  <path
     d="M10 13h1v1h-1v-1z"
     fill="rgb(102,185,133)"
     id="path5385" />
  <path
     d="M11 13h1v1h-1v-1z"
     fill="rgb(83,183,113)"
     id="path5387" />
  <path
     d="M12 13h1v1h-1v-1z"
     fill="rgb(13,158,17)"
     id="path5389" />
  <path
     d="M13 13h1v1h-1v-1z"
     fill="rgb(2,152,1)"
     id="path5391" />
  <path
     d="M14 13h1v1h-1v-1z"
     fill="rgb(140,204,187)"
     id="path5393" />
  <path
     d="M13 14h1v1h-1v-1z"
     fill="rgb(83,183,113)"
     id="path5395" />
  <path
     d="M6 15h1v1h-1v-1z"
     fill="rgb(118,198,138)"
     id="path5397" />
  <path
     d="M7 15h1v1h-1v-1z"
     fill="rgb(75,179,74)"
     id="path5399" />
  <path
     d="M12 15h1v1h-1v-1z"
     fill="rgb(83,183,113)"
     id="path5401" />
  <path
     d="M6 16h2v1h-1v1h-1v-2z"
     fill="rgb(243,243,243)"
     id="path5403" />
  <path
     d="M8 16h1v1h-1v-1z"
     fill="rgb(208,233,215)"
     id="path5405" />
  <path
     d="M9 16h1v1h-1v-1z"
     fill="rgb(102,185,133)"
     id="path5407" />
  <path
     d="M10 16h1v1h-1v-1z"
     fill="rgb(118,198,138)"
     id="path5409" />
  <path
     d="M11 16h1v1h-1v-1z"
     fill="rgb(186,219,191)"
     id="path5411" />
</svg>
