<?xml version="1.0" encoding="UTF-8" standalone="no"?>
<!-- generated at drububu.com  -->

<svg
   xmlns:dc="http://purl.org/dc/elements/1.1/"
   xmlns:cc="http://creativecommons.org/ns#"
   xmlns:rdf="http://www.w3.org/1999/02/22-rdf-syntax-ns#"
   xmlns:svg="http://www.w3.org/2000/svg"
   xmlns="http://www.w3.org/2000/svg"
   xmlns:sodipodi="http://sodipodi.sourceforge.net/DTD/sodipodi-0.dtd"
   xmlns:inkscape="http://www.inkscape.org/namespaces/inkscape"
   version="1.1"
   preserveAspectRatio="xMinYMin meet"
   x="0px"
   y="0px"
   width="13px"
   height="20px"
   viewBox="0 0 13 20"
   id="svg5461"
   inkscape:version="0.91 r13725"
   sodipodi:docname="u_start.svg">
  <metadata
     id="metadata5493">
    <rdf:RDF>
      <cc:Work
         rdf:about="">
        <dc:format>image/svg+xml</dc:format>
        <dc:type
           rdf:resource="http://purl.org/dc/dcmitype/StillImage" />
      </cc:Work>
    </rdf:RDF>
  </metadata>
  <defs
     id="defs5491" />
  <sodipodi:namedview
     pagecolor="#ffffff"
     bordercolor="#666666"
     borderopacity="1"
     objecttolerance="10"
     gridtolerance="10"
     guidetolerance="10"
     inkscape:pageopacity="0"
     inkscape:pageshadow="2"
     inkscape:window-width="2560"
     inkscape:window-height="1315"
     id="namedview5489"
     showgrid="false"
     inkscape:zoom="11.8"
     inkscape:cx="6.5"
     inkscape:cy="10"
     inkscape:window-x="0"
     inkscape:window-y="1"
     inkscape:window-maximized="1"
     inkscape:current-layer="svg5461" />
  <path
     d="M2 2h1v16h-1v-16z"
     fill="rgb(192,192,192)"
     id="path5465" />
  <path
     d="M4 2h1v16h-1v-16z"
     fill="rgb(192,192,192)"
     id="path5467" />
  <path
     d="M3 3h1v16h-1v-16z"
     fill="rgb(243,243,243)"
     id="path5469" />
  <path
     d="M5 3h1v16h-1v-16z"
     fill="rgb(243,243,243)"
     id="path5471" />
  <path
     d="M7 3h2v2h-2v-2z"
     fill="rgb(192,192,192)"
     id="path5473" />
  <path
     d="M9 4h1v2h-2v-1h1v-1z"
     fill="rgb(243,243,243)"
     id="path5475" />
  <path
     d="M7 7h2v2h-2v-2z"
     fill="rgb(192,192,192)"
     id="path5477" />
  <path
     d="M9 8h1v2h-2v-1h1v-1z"
     fill="rgb(243,243,243)"
     id="path5479" />
  <path
     d="M7 11h2v2h-2v-2z"
     fill="rgb(192,192,192)"
     id="path5481" />
  <path
     d="M9 12h1v2h-2v-1h1v-1z"
     fill="rgb(243,243,243)"
     id="path5483" />
  <path
     d="M7 15h2v2h-2v-2z"
     fill="rgb(192,192,192)"
     id="path5485" />
  <path
     d="M9 16h1v2h-2v-1h1v-1z"
     fill="rgb(243,243,243)"
     id="path5487" />
</svg>
