<?xml version="1.0" encoding="UTF-8" standalone="no"?>
<!-- generated at drububu.com  -->

<svg
   xmlns:dc="http://purl.org/dc/elements/1.1/"
   xmlns:cc="http://creativecommons.org/ns#"
   xmlns:rdf="http://www.w3.org/1999/02/22-rdf-syntax-ns#"
   xmlns:svg="http://www.w3.org/2000/svg"
   xmlns="http://www.w3.org/2000/svg"
   xmlns:sodipodi="http://sodipodi.sourceforge.net/DTD/sodipodi-0.dtd"
   xmlns:inkscape="http://www.inkscape.org/namespaces/inkscape"
   version="1.1"
   preserveAspectRatio="xMinYMin meet"
   x="0px"
   y="0px"
   width="24px"
   height="20px"
   viewBox="0 0 24 20"
   id="svg4309"
   inkscape:version="0.91 r13725"
   sodipodi:docname="u_user_nl2s.svg">
  <metadata
     id="metadata4373">
    <rdf:RDF>
      <cc:Work
         rdf:about="">
        <dc:format>image/svg+xml</dc:format>
        <dc:type
           rdf:resource="http://purl.org/dc/dcmitype/StillImage" />
      </cc:Work>
    </rdf:RDF>
  </metadata>
  <defs
     id="defs4371" />
  <sodipodi:namedview
     pagecolor="#ffffff"
     bordercolor="#666666"
     borderopacity="1"
     objecttolerance="10"
     gridtolerance="10"
     guidetolerance="10"
     inkscape:pageopacity="0"
     inkscape:pageshadow="2"
     inkscape:window-width="2560"
     inkscape:window-height="1315"
     id="namedview4369"
     showgrid="false"
     inkscape:zoom="47.2"
     inkscape:cx="12"
     inkscape:cy="16.779661"
     inkscape:window-x="0"
     inkscape:window-y="1"
     inkscape:window-maximized="1"
     inkscape:current-layer="svg4309" />
  <path
     d="M7 2h3v1h-3v-1z"
     fill="rgb(64,63,54)"
     id="path4313" />
  <path
     d="M6 3h1v2h-1v-2z"
     fill="rgb(64,63,54)"
     id="path4315" />
  <path
     d="M7 3h3v1h-2v1h-1v-2z"
     fill="rgb(254,219,183)"
     id="path4317" />
  <path
     d="M10 3h1v2h-1v-2z"
     fill="rgb(64,63,54)"
     id="path4319" />
  <path
     d="M15 3h6v1h-4v1h-1v3h-1v-5z"
     fill="rgb(255,153,0)"
     id="path4321" />
  <path
     d="M21 3h1v5h-6v-1h2v-1h1v1h2v-2h-1v-1h1v-1z"
     fill="rgb(190,96,4)"
     id="path4323" />
  <path
     d="M8 4h2v1h-2v-1z"
     fill="rgb(253,204,156)"
     id="path4325" />
  <path
     d="M11 4h1v2h-1v1h-3v-1h2v-1h1v-1z"
     fill="rgb(243,243,243)"
     id="path4327" />
  <path
     d="M7 5h3v1h-3v-1z"
     fill="rgb(64,63,54)"
     id="path4331" />
  <path
     d="M17 5h1v1h-1v-1z"
     fill="rgb(190,96,4)"
     id="path4335" />
  <path
     d="M19 5h1v1h-1v-1z"
     fill="rgb(190,96,4)"
     id="path4337" />
  <path
     d="M5 7h7v1h-1v4h1v-4h1v5h-2v5h-5v-5h-2v-5h1v-1z"
     fill="rgb(64,63,54)"
     id="path4341" />
  <path
     d="M5 8h1v4h-1v-4z"
     fill="rgb(254,219,183)"
     id="path4343" />
  <path
     d="M7 8h2v1h-1v3h-1v-4z"
     fill="rgb(255,204,51)"
     id="path4345" />
  <path
     d="M9 8h1v4h-2v-3h1v-1z"
     fill="rgb(255,153,0)"
     id="path4347" />
  <path
     d="M11 8h1v4h-1v-4z"
     fill="rgb(254,219,183)"
     id="path4349" />
  <path
     d="M13 9h1v5h-2v5h-5v-1h4v-5h2v-4z"
     fill="rgb(243,243,243)"
     id="path4351" />
  <path
     d="M18 9h1v1h-1v-1z"
     fill="rgb(190,96,4)"
     id="path4353" />
  <path
     d="M17 10h1v1h-1v-1z"
     fill="rgb(190,96,4)"
     id="path4355" />
  <path
     d="M19 10h1v2h-1v-2z"
     fill="rgb(190,96,4)"
     id="path4357" />
  <path
     d="M18 12h1v1h1v1h-3v-1h1v-1z"
     fill="rgb(190,96,4)"
     id="path4359" />
  <path
     d="M5 13h1v1h-1v-1z"
     fill="rgb(243,243,243)"
     id="path4361" />
  <path
     d="M7 13h1v4h-1v-4z"
     fill="rgb(81,156,177)"
     id="path4363" />
  <path
     d="M8 13h1v4h-1v-4z"
     fill="rgb(58,121,139)"
     id="path4365" />
  <path
     d="M9 13h1v4h-1v-4z"
     fill="rgb(81,156,177)"
     id="path4367" />
</svg>
