<?xml version="1.0" encoding="UTF-8" standalone="no"?>
<!-- generated at drububu.com  -->

<svg
   xmlns:dc="http://purl.org/dc/elements/1.1/"
   xmlns:cc="http://creativecommons.org/ns#"
   xmlns:rdf="http://www.w3.org/1999/02/22-rdf-syntax-ns#"
   xmlns:svg="http://www.w3.org/2000/svg"
   xmlns="http://www.w3.org/2000/svg"
   xmlns:sodipodi="http://sodipodi.sourceforge.net/DTD/sodipodi-0.dtd"
   xmlns:inkscape="http://www.inkscape.org/namespaces/inkscape"
   version="1.1"
   preserveAspectRatio="xMinYMin meet"
   x="0px"
   y="0px"
   width="24px"
   height="20px"
   viewBox="0 0 24 20"
   id="svg4375"
   inkscape:version="0.91 r13725"
   sodipodi:docname="u_user_nl3.svg">
  <metadata
     id="metadata4439">
    <rdf:RDF>
      <cc:Work
         rdf:about="">
        <dc:format>image/svg+xml</dc:format>
        <dc:type
           rdf:resource="http://purl.org/dc/dcmitype/StillImage" />
      </cc:Work>
    </rdf:RDF>
  </metadata>
  <defs
     id="defs4437" />
  <sodipodi:namedview
     pagecolor="#ffffff"
     bordercolor="#666666"
     borderopacity="1"
     objecttolerance="10"
     gridtolerance="10"
     guidetolerance="10"
     inkscape:pageopacity="0"
     inkscape:pageshadow="2"
     inkscape:window-width="2560"
     inkscape:window-height="1315"
     id="namedview4435"
     showgrid="false"
     inkscape:zoom="11.8"
     inkscape:cx="12"
     inkscape:cy="10"
     inkscape:window-x="0"
     inkscape:window-y="1"
     inkscape:window-maximized="1"
     inkscape:current-layer="svg4375" />
  <path
     d="M7 2h3v1h-3v-1z"
     fill="rgb(64,63,54)"
     id="path4379" />
  <path
     d="M6 3h1v2h-1v-2z"
     fill="rgb(64,63,54)"
     id="path4381" />
  <path
     d="M7 3h3v1h-2v1h-1v-2z"
     fill="rgb(254,219,183)"
     id="path4383" />
  <path
     d="M10 3h1v2h-1v-2z"
     fill="rgb(64,63,54)"
     id="path4385" />
  <path
     d="M15 3h7v5h-7v-5z"
     fill="rgb(204,204,204)"
     id="path4387" />
  <path
     d="M8 4h2v1h-2v-1z"
     fill="rgb(253,204,156)"
     id="path4389" />
  <path
     d="M11 4h1v2h-1v1h-3v-1h2v-1h1v-1z"
     fill="rgb(243,243,243)"
     id="path4391" />
  <path
     d="M17 4h3v1h-1v1h-1v-1h-1v-1z"
     fill="rgb(0,0,0)"
     id="path4393" />
  <path
     d="M7 5h3v1h-3v-1z"
     fill="rgb(64,63,54)"
     id="path4395" />
  <path
     d="M16 5h1v1h1v1h-2v-2z"
     fill="rgb(0,0,0)"
     id="path4397" />
  <path
     d="M17 5h1v1h-1v-1z"
     fill="rgb(204,204,204)"
     id="path4399" />
  <path
     d="M19 5h1v1h-1v-1z"
     fill="rgb(204,204,204)"
     id="path4401" />
  <path
     d="M20 5h1v2h-2v-1h1v-1z"
     fill="rgb(0,0,0)"
     id="path4403" />
  <path
     d="M5 7h7v1h-1v4h1v-4h1v5h-2v5h-5v-5h-2v-5h1v-1z"
     fill="rgb(64,63,54)"
     id="path4405" />
  <path
     d="M5 8h1v4h-1v-4z"
     fill="rgb(254,219,183)"
     id="path4407" />
  <path
     d="M7 8h2v1h-1v3h-1v-4z"
     fill="rgb(255,204,51)"
     id="path4409" />
  <path
     d="M9 8h1v4h-2v-3h1v-1z"
     fill="rgb(255,153,0)"
     id="path4411" />
  <path
     d="M11 8h1v4h-1v-4z"
     fill="rgb(254,219,183)"
     id="path4413" />
  <path
     d="M13 9h1v5h-2v5h-5v-1h4v-5h2v-4z"
     fill="rgb(243,243,243)"
     id="path4415" />
  <path
     d="M17 9h2v1h-2v-1z"
     fill="rgb(204,204,204)"
     id="path4417" />
  <path
     d="M19 10h1v1h-1v-1z"
     fill="rgb(204,204,204)"
     id="path4419" />
  <path
     d="M18 11h1v1h-1v-1z"
     fill="rgb(204,204,204)"
     id="path4421" />
  <path
     d="M19 12h1v1h-1v-1z"
     fill="rgb(204,204,204)"
     id="path4423" />
  <path
     d="M5 13h1v1h-1v-1z"
     fill="rgb(243,243,243)"
     id="path4425" />
  <path
     d="M7 13h1v4h-1v-4z"
     fill="rgb(81,156,177)"
     id="path4427" />
  <path
     d="M8 13h1v4h-1v-4z"
     fill="rgb(58,121,139)"
     id="path4429" />
  <path
     d="M9 13h1v4h-1v-4z"
     fill="rgb(81,156,177)"
     id="path4431" />
  <path
     d="M17 13h2v1h-2v-1z"
     fill="rgb(204,204,204)"
     id="path4433" />
</svg>
