<?xml version="1.0" encoding="UTF-8" standalone="no"?>
<!-- generated at drububu.com  -->

<svg
   xmlns:dc="http://purl.org/dc/elements/1.1/"
   xmlns:cc="http://creativecommons.org/ns#"
   xmlns:rdf="http://www.w3.org/1999/02/22-rdf-syntax-ns#"
   xmlns:svg="http://www.w3.org/2000/svg"
   xmlns="http://www.w3.org/2000/svg"
   xmlns:sodipodi="http://sodipodi.sourceforge.net/DTD/sodipodi-0.dtd"
   xmlns:inkscape="http://www.inkscape.org/namespaces/inkscape"
   version="1.1"
   preserveAspectRatio="xMinYMin meet"
   x="0px"
   y="0px"
   width="20px"
   height="20px"
   viewBox="0 0 20 20"
   id="svg3979"
   inkscape:version="0.91 r13725"
   sodipodi:docname="u_user.svg">
  <metadata
     id="metadata4021">
    <rdf:RDF>
      <cc:Work
         rdf:about="">
        <dc:format>image/svg+xml</dc:format>
        <dc:type
           rdf:resource="http://purl.org/dc/dcmitype/StillImage" />
      </cc:Work>
    </rdf:RDF>
  </metadata>
  <defs
     id="defs4019" />
  <sodipodi:namedview
     pagecolor="#ffffff"
     bordercolor="#666666"
     borderopacity="1"
     objecttolerance="10"
     gridtolerance="10"
     guidetolerance="10"
     inkscape:pageopacity="0"
     inkscape:pageshadow="2"
     inkscape:window-width="640"
     inkscape:window-height="480"
     id="namedview4017"
     showgrid="false"
     inkscape:zoom="11.8"
     inkscape:cx="10"
     inkscape:cy="10"
     inkscape:window-x="0"
     inkscape:window-y="0"
     inkscape:window-maximized="0"
     inkscape:current-layer="svg3979" />
  <path
     d="M8 2h3v1h-3v-1z"
     fill="rgb(64,63,54)"
     id="path3983" />
  <path
     d="M7 3h1v2h-1v-2z"
     fill="rgb(64,63,54)"
     id="path3985" />
  <path
     d="M8 3h3v1h-2v1h-1v-2z"
     fill="rgb(254,219,183)"
     id="path3987" />
  <path
     d="M11 3h1v2h-1v-2z"
     fill="rgb(64,63,54)"
     id="path3989" />
  <path
     d="M9 4h2v1h-2v-1z"
     fill="rgb(253,204,156)"
     id="path3991" />
  <path
     d="M12 4h1v2h-1v1h-3v-1h2v-1h1v-1z"
     fill="rgb(243,243,243)"
     id="path3993" />
  <path
     d="M8 5h3v1h-3v-1z"
     fill="rgb(64,63,54)"
     id="path3995" />
  <path
     d="M6 7h7v1h-1v4h1v-4h1v5h-2v5h-5v-5h-2v-5h1v-1z"
     fill="rgb(64,63,54)"
     id="path3997" />
  <path
     d="M6 8h1v4h-1v-4z"
     fill="rgb(254,219,183)"
     id="path3999" />
  <path
     d="M8 8h2v1h-1v3h-1v-4z"
     fill="rgb(255,204,51)"
     id="path4001" />
  <path
     d="M10 8h1v4h-2v-3h1v-1z"
     fill="rgb(255,153,0)"
     id="path4003" />
  <path
     d="M12 8h1v4h-1v-4z"
     fill="rgb(254,219,183)"
     id="path4005" />
  <path
     d="M14 9h1v5h-2v5h-5v-1h4v-5h2v-4z"
     fill="rgb(243,243,243)"
     id="path4007" />
  <path
     d="M6 13h1v1h-1v-1z"
     fill="rgb(243,243,243)"
     id="path4009" />
  <path
     d="M8 13h1v4h-1v-4z"
     fill="rgb(81,156,177)"
     id="path4011" />
  <path
     d="M9 13h1v4h-1v-4z"
     fill="rgb(58,121,139)"
     id="path4013" />
  <path
     d="M10 13h1v4h-1v-4z"
     fill="rgb(81,156,177)"
     id="path4015" />
</svg>
