<?xml version="1.0" encoding="UTF-8" standalone="no"?>
<!-- generated at drububu.com  -->

<svg
   xmlns:dc="http://purl.org/dc/elements/1.1/"
   xmlns:cc="http://creativecommons.org/ns#"
   xmlns:rdf="http://www.w3.org/1999/02/22-rdf-syntax-ns#"
   xmlns:svg="http://www.w3.org/2000/svg"
   xmlns="http://www.w3.org/2000/svg"
   xmlns:sodipodi="http://sodipodi.sourceforge.net/DTD/sodipodi-0.dtd"
   xmlns:inkscape="http://www.inkscape.org/namespaces/inkscape"
   version="1.1"
   preserveAspectRatio="xMinYMin meet"
   x="0px"
   y="0px"
   width="20px"
   height="20px"
   viewBox="0 0 20 20"
   id="svg4023"
   inkscape:version="0.91 r13725"
   sodipodi:docname="u_user_add.svg">
  <metadata
     id="metadata4069">
    <rdf:RDF>
      <cc:Work
         rdf:about="">
        <dc:format>image/svg+xml</dc:format>
        <dc:type
           rdf:resource="http://purl.org/dc/dcmitype/StillImage" />
      </cc:Work>
    </rdf:RDF>
  </metadata>
  <defs
     id="defs4067" />
  <sodipodi:namedview
     pagecolor="#ffffff"
     bordercolor="#666666"
     borderopacity="1"
     objecttolerance="10"
     gridtolerance="10"
     guidetolerance="10"
     inkscape:pageopacity="0"
     inkscape:pageshadow="2"
     inkscape:window-width="640"
     inkscape:window-height="480"
     id="namedview4065"
     showgrid="false"
     inkscape:zoom="11.8"
     inkscape:cx="10"
     inkscape:cy="10"
     inkscape:window-x="0"
     inkscape:window-y="0"
     inkscape:window-maximized="0"
     inkscape:current-layer="svg4023" />
  <path
     d="M15 0h2v2h2v1h-3v3h-1v-2h-2v-2h2v-2z"
     fill="rgb(255,126,0)"
     id="path4027" />
  <path
     d="M7 2h3v1h-3v-1z"
     fill="rgb(64,63,54)"
     id="path4029" />
  <path
     d="M6 3h1v2h-1v-2z"
     fill="rgb(64,63,54)"
     id="path4031" />
  <path
     d="M7 3h3v1h-2v1h-1v-2z"
     fill="rgb(254,219,183)"
     id="path4033" />
  <path
     d="M10 3h1v2h-1v-2z"
     fill="rgb(64,63,54)"
     id="path4035" />
  <path
     d="M16 3h3v1h-2v2h-1v-3z"
     fill="rgb(190,96,4)"
     id="path4037" />
  <path
     d="M8 4h2v1h-2v-1z"
     fill="rgb(253,204,156)"
     id="path4039" />
  <path
     d="M11 4h1v2h-1v1h-3v-1h2v-1h1v-1z"
     fill="rgb(243,243,243)"
     id="path4041" />
  <path
     d="M7 5h3v1h-3v-1z"
     fill="rgb(64,63,54)"
     id="path4043" />
  <path
     d="M5 7h7v1h-1v4h1v-4h1v5h-2v5h-5v-5h-2v-5h1v-1z"
     fill="rgb(64,63,54)"
     id="path4045" />
  <path
     d="M5 8h1v4h-1v-4z"
     fill="rgb(254,219,183)"
     id="path4047" />
  <path
     d="M7 8h2v1h-1v3h-1v-4z"
     fill="rgb(255,204,51)"
     id="path4049" />
  <path
     d="M9 8h1v4h-2v-3h1v-1z"
     fill="rgb(255,153,0)"
     id="path4051" />
  <path
     d="M11 8h1v4h-1v-4z"
     fill="rgb(254,219,183)"
     id="path4053" />
  <path
     d="M13 9h1v5h-2v5h-5v-1h4v-5h2v-4z"
     fill="rgb(243,243,243)"
     id="path4055" />
  <path
     d="M5 13h1v1h-1v-1z"
     fill="rgb(243,243,243)"
     id="path4057" />
  <path
     d="M7 13h1v4h-1v-4z"
     fill="rgb(81,156,177)"
     id="path4059" />
  <path
     d="M8 13h1v4h-1v-4z"
     fill="rgb(58,121,139)"
     id="path4061" />
  <path
     d="M9 13h1v4h-1v-4z"
     fill="rgb(81,156,177)"
     id="path4063" />
</svg>
