<?xml version="1.0" encoding="UTF-8" standalone="no"?>
<!-- generated at drububu.com  -->

<svg
   xmlns:dc="http://purl.org/dc/elements/1.1/"
   xmlns:cc="http://creativecommons.org/ns#"
   xmlns:rdf="http://www.w3.org/1999/02/22-rdf-syntax-ns#"
   xmlns:svg="http://www.w3.org/2000/svg"
   xmlns="http://www.w3.org/2000/svg"
   xmlns:sodipodi="http://sodipodi.sourceforge.net/DTD/sodipodi-0.dtd"
   xmlns:inkscape="http://www.inkscape.org/namespaces/inkscape"
   version="1.1"
   preserveAspectRatio="xMinYMin meet"
   x="0px"
   y="0px"
   width="20px"
   height="20px"
   viewBox="0 0 20 20"
   id="svg5647"
   inkscape:version="0.91 r13725"
   sodipodi:docname="u_user_search.svg">
  <metadata
     id="metadata5759">
    <rdf:RDF>
      <cc:Work
         rdf:about="">
        <dc:format>image/svg+xml</dc:format>
        <dc:type
           rdf:resource="http://purl.org/dc/dcmitype/StillImage" />
      </cc:Work>
    </rdf:RDF>
  </metadata>
  <defs
     id="defs5757" />
  <sodipodi:namedview
     pagecolor="#ffffff"
     bordercolor="#666666"
     borderopacity="1"
     objecttolerance="10"
     gridtolerance="10"
     guidetolerance="10"
     inkscape:pageopacity="0"
     inkscape:pageshadow="2"
     inkscape:window-width="2560"
     inkscape:window-height="1315"
     id="namedview5755"
     showgrid="false"
     inkscape:zoom="66.75088"
     inkscape:cx="10"
     inkscape:cy="10.599243"
     inkscape:window-x="0"
     inkscape:window-y="1"
     inkscape:window-maximized="1"
     inkscape:current-layer="svg5647" />
  <path
     d="M7 1h4v1h-4v-1z"
     fill="rgb(96,106,112)"
     id="path5651" />
  <path
     d="M5 2h2v1h-2v-1z"
     fill="rgb(96,106,112)"
     id="path5653" />
  <path
     d="M8 2h3v1h-3v-1z"
     fill="rgb(107,106,99)"
     id="path5657" />
  <path
     d="M11 2h2v1h-2v-1z"
     fill="rgb(96,106,112)"
     id="path5659" />
  <path
     d="M4 3h1v2h-1v-2z"
     fill="rgb(96,106,112)"
     id="path5661" />
  <path
     d="M7 3h1v2h-1v-2z"
     fill="rgb(107,106,99)"
     id="path5665" />
  <path
     d="M8 3h3v1h-2v1h-1v-2z"
     fill="rgb(254,227,199)"
     id="path5667" />
  <path
     d="M11 3h1v2h-1v-2z"
     fill="rgb(107,106,99)"
     id="path5669" />
  <path
     d="M13 3h1v2h-1v-2z"
     fill="rgb(96,106,112)"
     id="path5673" />
  <path
     d="M9 4h2v1h-2v-1z"
     fill="rgb(253,215,178)"
     id="path5675" />
  <path
     d="M12 4h1v2h-1v1h-3v-1h2v-1h1v-1z"
     fill="rgb(245,245,245)"
     id="path5677" />
  <path
     d="M3 5h1v4h-1v-4z"
     fill="rgb(96,106,112)"
     id="path5679" />
  <path
     d="M8 5h3v1h-3v-1z"
     fill="rgb(107,106,99)"
     id="path5681" />
  <path
     d="M14 5h1v3h-1v-3z"
     fill="rgb(96,106,112)"
     id="path5685" />
  <path
     d="M6 7h5v1h-3v4h-1v-4h-1v-1z"
     fill="rgb(107,106,99)"
     id="path5687" />
  <path
     d="M11 7h1v2h-1v-2z"
     fill="rgb(96,106,112)"
     id="path5689" />
  <path
     d="M12 7h1v1h-1v-1z"
     fill="rgb(107,106,99)"
     id="path5691" />
  <path
     d="M5 8h1v3h-1v-3z"
     fill="rgb(107,106,99)"
     id="path5693" />
  <path
     d="M6 8h1v3h-1v-3z"
     fill="rgb(254,227,199)"
     id="path5695" />
  <path
     d="M8 8h2v1h-1v3h-1v-4z"
     fill="rgb(255,215,97)"
     id="path5697" />
  <path
     d="M10 8h1v1h-1v-1z"
     fill="rgb(255,176,58)"
     id="path5699" />
  <path
     d="M12 8h1v2h-1v-2z"
     fill="rgb(254,227,199)"
     id="path5701" />
  <path
     d="M13 8h1v2h1v1h1v1h1v1h1v1h1v1h-1v1h-1v-1h-1v-1h-1v-1h-1v-1h-1v-1h-1v-1  h1v-2z"
     fill="rgb(96,106,112)"
     id="path5703" />
  <path
     d="M4 9h1v2h-1v-2z"
     fill="rgb(96,106,112)"
     id="path5705" />
  <path
     d="M9 9h2v1h-2v-1z"
     fill="rgb(96,106,112)"
     id="path5707" />
  <path
     d="M11 9h1v2h-1v-2z"
     fill="rgb(107,106,99)"
     id="path5709" />
  <path
     d="M14 9h1v1h-1v-1z"
     fill="rgb(243,243,243)"
     id="path5711" />
  <path
     d="M9 10h2v2h-2v-2z"
     fill="rgb(255,176,58)"
     id="path5713" />
  <path
     d="M5 11h2v1h-2v-1z"
     fill="rgb(96,106,112)"
     id="path5715" />
  <path
     d="M11 11h1v1h-1v-1z"
     fill="rgb(96,106,112)"
     id="path5717" />
  <path
     d="M12 11h1v1h-1v-1z"
     fill="rgb(74,90,123)"
     id="path5719" />
  <path
     d="M7 12h4v1h-4v-1z"
     fill="rgb(96,106,112)"
     id="path5723" />
  <path
     d="M11 12h1v6h-5v-5h1v4h3v-5z"
     fill="rgb(64,63,54)"
     id="path5725" />
  <path
     d="M12 12h1v1h-1v-1z"
     fill="rgb(96,106,112)"
     id="path5727" />
  <path
     d="M13 12h1v1h-1v-1z"
     fill="rgb(74,90,123)"
     id="path5729" />
  <path
     d="M6 13h1v1h-1v-1z"
     fill="rgb(243,243,243)"
     id="path5731" />
  <path
     d="M8 13h1v4h-1v-4z"
     fill="rgb(81,156,177)"
     id="path5733" />
  <path
     d="M9 13h1v4h-1v-4z"
     fill="rgb(58,121,139)"
     id="path5735" />
  <path
     d="M10 13h1v4h-1v-4z"
     fill="rgb(81,156,177)"
     id="path5737" />
  <path
     d="M12 13h1v6h-5v-1h4v-5z"
     fill="rgb(243,243,243)"
     id="path5739" />
  <path
     d="M13 13h1v1h-1v-1z"
     fill="rgb(96,106,112)"
     id="path5741" />
  <path
     d="M14 13h1v1h-1v-1z"
     fill="rgb(74,90,123)"
     id="path5743" />
  <path
     d="M14 14h1v1h-1v-1z"
     fill="rgb(96,106,112)"
     id="path5745" />
  <path
     d="M15 14h1v1h-1v-1z"
     fill="rgb(74,90,123)"
     id="path5747" />
  <path
     d="M15 15h1v1h-1v-1z"
     fill="rgb(96,106,112)"
     id="path5749" />
  <path
     d="M16 15h1v1h-1v-1z"
     fill="rgb(74,90,123)"
     id="path5751" />
  <path
     d="M16 16h1v1h-1v-1z"
     fill="rgb(96,106,112)"
     id="path5753" />
</svg>
